<svg width="60" height="82" viewBox="0 0 60 82" fill="none" xmlns="http://www.w3.org/2000/svg">
<rect x="-0.5" y="0.5" width="59" height="81" rx="7.5" transform="matrix(-1 0 0 1 59 0)" fill="#F8F7F6" stroke="#FDCB02"/>
<path d="M35.48 32.3379C35.5776 32.2403 35.7359 32.2403 35.8335 32.3379L39.0406 35.545C39.1383 35.6427 39.1383 35.8009 39.0406 35.8986L25.6014 49.3379C25.5572 49.382 25.498 49.4081 25.4356 49.4108L22.0806 49.5587C21.934 49.5651 21.8134 49.4445 21.8199 49.2979L21.9677 45.9429C21.9705 45.8805 21.9965 45.8214 22.0407 45.7772L35.48 32.3379Z" stroke="#FDCB02" stroke-width="1.5"/>
<path d="M32.7039 34.2593L36.7975 38.353" stroke="#FDCB02" stroke-width="1.5"/>
<path d="M28 50L39 50" stroke="#FDCB02" stroke-width="1.5" stroke-linecap="round"/>
</svg>
