<svg width="94" height="49" viewBox="0 0 94 49" fill="none" xmlns="http://www.w3.org/2000/svg">
<rect width="94" height="48" rx="8" transform="matrix(-1 0 0 1 94 0.0899048)" fill="#FDCB02"/>
<path d="M29.0653 16.8579H27.4173V20.4579H24.5533V21.8179H27.4173V25.0499H29.0653V16.8579ZM24.5213 17.7379H17.9613V19.0819H22.7453C22.4413 21.3379 20.5853 23.0499 17.1933 23.9459L17.8653 25.2579C22.0253 24.0739 24.5213 21.4979 24.5213 17.7379ZM19.6573 25.6419V31.1459H29.0653V25.6419H19.6573ZM21.2733 29.8179V26.9539H27.4493V29.8179H21.2733ZM44.04 16.8739H42.472V20.5219H40.952V17.1139H39.4V25.5459H40.952V21.8659H42.472V25.6259H44.04V16.8739ZM38.168 24.7939L39.048 23.5459C37.176 22.7779 36.248 21.1619 36.248 19.5459V17.7059H34.648V19.5459C34.648 21.2099 33.672 23.0179 31.736 23.9139L32.616 25.1779C34.024 24.5539 34.936 23.4659 35.464 22.1219C35.992 23.2899 36.888 24.2659 38.168 24.7939ZM34.248 26.3459V27.6739H42.392V31.3379H44.04V26.3459H34.248Z" fill="white"/>
<rect x="57" y="15.0899" width="14" height="14" rx="7" stroke="white" stroke-width="1.5" stroke-linecap="round"/>
<path d="M69 27.0899L75 33.0899" stroke="white" stroke-width="1.5" stroke-linecap="round"/>
</svg>
