<svg width="30" height="30" viewBox="0 0 30 30" fill="none" xmlns="http://www.w3.org/2000/svg">
<path fill-rule="evenodd" clip-rule="evenodd" d="M2.67098 5.24663C3.10384 4.52991 5.48879 1.92305 7.19072 2.00174C7.69947 2.0439 8.14919 2.35167 8.5146 2.70862C9.35361 3.52792 11.7554 6.62665 11.8917 7.27872C12.2234 8.87797 10.3177 9.79986 10.9009 11.4118C12.3879 15.0501 14.9499 17.612 18.5898 19.0975C20.2004 19.6807 21.1224 17.7751 22.7217 18.1081C23.3724 18.2444 26.4727 20.6461 27.292 21.4851C27.6476 21.8491 27.9568 22.3002 27.9989 22.8089C28.0622 24.6007 25.2936 27.0192 24.7539 27.3284C23.4806 28.2391 21.8194 28.2236 19.7943 27.282C14.1432 24.9309 5.11214 16.0704 2.71736 10.206C1.80104 8.19218 1.7378 6.51985 2.67098 5.24663Z" fill="#3D3D3D"/>
</svg>
