<svg width="30" height="30" viewBox="0 0 30 30" fill="none" xmlns="http://www.w3.org/2000/svg">
<path fill-rule="evenodd" clip-rule="evenodd" d="M15.0079 8.06671C11.1772 8.06671 8.06928 11.1734 8.06928 15.0026C8.06928 18.8319 11.1772 21.9386 15.0079 21.9386C18.8387 21.9386 21.9465 18.8319 21.9465 15.0026C21.9465 11.1734 18.8387 8.06671 15.0079 8.06671ZM15.0079 19.5018C12.5227 19.5018 10.507 17.4869 10.507 15.0026C10.507 12.5184 12.5227 10.5035 15.0079 10.5035C17.4932 10.5035 19.5088 12.5184 19.5088 15.0026C19.5088 17.4869 17.4932 19.5018 15.0079 19.5018Z" fill="#3D3D3D"/>
<path d="M22.2209 9.41178C23.1127 9.41178 23.8408 8.68918 23.8408 7.79252C23.8408 6.90113 23.1127 6.17325 22.2209 6.17325C21.3292 6.17325 20.601 6.89586 20.601 7.79252C20.601 8.6839 21.3239 9.41178 22.2209 9.41178Z" fill="#3D3D3D"/>
<path fill-rule="evenodd" clip-rule="evenodd" d="M15.0079 1.5C11.3407 1.5 10.8817 1.51582 9.44118 1.57912C8.00596 1.64241 7.01925 1.87449 6.16445 2.20678C5.27272 2.55489 4.51818 3.01377 3.76891 3.76802C3.01436 4.517 2.55531 5.27125 2.20705 6.15736C1.87463 7.01709 1.64247 7.99814 1.57915 9.4328C1.51583 10.878 1.5 11.3369 1.5 15.0026C1.5 18.6684 1.51583 19.1273 1.57915 20.5672C1.64247 22.0019 1.87463 22.9882 2.20705 23.8426C2.55531 24.734 3.01436 25.4883 3.76891 26.2373C4.51818 26.9862 5.27272 27.4504 6.15918 27.7932C7.01925 28.1255 8.00068 28.3576 9.4359 28.4209C10.8764 28.4842 11.3355 28.5 15.0026 28.5C18.6698 28.5 19.1289 28.4842 20.5694 28.4209C22.0046 28.3576 22.9913 28.1255 23.8461 27.7932C24.7326 27.4504 25.4871 26.9862 26.2364 26.2373C26.9856 25.4883 27.45 24.734 27.7929 23.8479C28.1254 22.9882 28.3575 22.0071 28.4209 20.5725C28.4842 19.1325 28.5 18.6737 28.5 15.0079C28.5 11.3422 28.4842 10.8833 28.4209 9.44335C28.3575 8.00869 28.1254 7.02237 27.7929 6.1679C27.4605 5.27124 27.0015 4.517 26.2469 3.76802C25.4977 3.01905 24.7431 2.55489 23.8567 2.21205C22.9966 1.87976 22.0151 1.64769 20.5799 1.58439C19.1342 1.51582 18.6751 1.5 15.0079 1.5ZM15.0079 3.93153C18.6171 3.93153 19.0445 3.94735 20.4638 4.01065C21.783 4.06867 22.4953 4.29019 22.9702 4.4748C23.5981 4.71743 24.0519 5.0128 24.5215 5.48222C24.9964 5.95693 25.2866 6.40526 25.5293 7.03292C25.714 7.50762 25.9356 8.22495 25.9937 9.53829C26.057 10.9624 26.0728 11.3896 26.0728 14.9921C26.0728 18.5998 26.057 19.0271 25.9937 20.4459C25.9356 21.7645 25.714 22.4766 25.5293 22.9513C25.2866 23.5789 24.9911 24.0325 24.5215 24.502C24.0466 24.9767 23.5981 25.2668 22.9702 25.5094C22.4953 25.694 21.7777 25.9155 20.4638 25.9735C19.0392 26.0368 18.6118 26.0526 15.0079 26.0526C11.3988 26.0526 10.9714 26.0368 9.55198 25.9735C8.23285 25.9155 7.52052 25.694 7.04563 25.5094C6.41773 25.2668 5.96394 24.9714 5.49433 24.502C5.01944 24.0273 4.72924 23.5789 4.48652 22.9513C4.30184 22.4766 4.08022 21.7592 4.02218 20.4459C3.95886 19.0218 3.94303 18.5946 3.94303 14.9921C3.94303 11.3844 3.95886 10.9571 4.02218 9.53829C4.08022 8.21967 4.30184 7.50762 4.48652 7.03292C4.72924 6.40526 5.02472 5.95165 5.49433 5.48222C5.96922 5.00752 6.41773 4.71743 7.04563 4.4748C7.52052 4.29019 8.23813 4.06867 9.55198 4.01065C10.9714 3.94735 11.3988 3.93153 15.0079 3.93153Z" fill="#3D3D3D"/>
</svg>
