<svg width="30" height="30" viewBox="0 0 30 30" fill="none" xmlns="http://www.w3.org/2000/svg">
<path d="M15 24.8165C21.9036 24.8165 27.5 19.9327 27.5 13.9083C27.5 7.88379 21.9036 3 15 3C8.09644 3 2.5 7.88379 2.5 13.9083C2.5 17.9386 5.00466 21.4584 8.72975 23.3469C8.21544 24.4271 7.82907 24.989 7.17107 25.9459C7.00901 26.1816 6.83048 26.4413 6.6295 26.7385C6.55093 26.8547 6.62971 27.0126 6.76497 26.9992C8.23354 26.8539 10.2401 25.7682 11.5632 24.399C12.6551 24.6709 13.8081 24.8165 15 24.8165Z" fill="#3D3D3D"/>
<path fill-rule="evenodd" clip-rule="evenodd" d="M13.7168 15.0638C13.3951 16.2397 12.2874 17.0236 11.0009 17.0236C9.28565 17.0236 7.89199 15.7052 7.85626 13.8879C7.85626 12.1063 9.10697 10.7879 10.9652 10.7879C12.2874 10.7879 13.4309 11.6074 13.7168 12.8546H15.6107C15.1819 10.5384 13.3594 9.00623 10.9652 9.00623C8.17787 9.00623 5.99805 11.0729 5.99805 13.9236C5.99805 16.7742 8.2136 18.8409 10.9652 18.8409C13.3594 18.8409 15.1462 17.3443 15.6107 15.0638H13.7168ZM21.7928 18.6628H23.4724V14.4937C23.4724 13.6029 23.258 12.9259 22.7577 12.427C22.2931 11.9281 21.6856 11.6787 20.9352 11.6787C20.0418 11.6787 19.3629 11.9994 18.934 12.6408V9.04186H17.183V18.6628H18.934V15.0282C18.934 13.9236 19.5415 13.3535 20.4349 13.3535C21.2568 13.3535 21.7928 13.8523 21.7928 14.7431V18.6628Z" fill="white"/>
</svg>
