<svg width="144" height="42" viewBox="0 0 144 42" fill="none" xmlns="http://www.w3.org/2000/svg">
<g clip-path="url(#clip0)">
<path d="M28.7784 6.20398H12.8361C11.3482 6.20398 10.1791 7.36652 10.1791 8.84612C10.1791 10.3257 11.3482 11.4883 12.8361 11.4883H18.1502V33.1538C18.1502 34.6334 19.3193 35.7959 20.8072 35.7959C22.2952 35.7959 23.4643 34.6334 23.4643 33.1538V11.4883H28.7784C30.2663 11.4883 31.4354 10.3257 31.4354 8.84612C31.4354 7.36652 30.2663 6.20398 28.7784 6.20398Z" fill="#FDCB02"/>
<path d="M135.872 28.9266C135.872 33.2597 131.195 35.7433 126.732 35.7433C123.862 35.7433 119.398 34.3694 117.538 31.4102C115.306 27.7112 119.983 25.2805 122.002 28.2397C122.959 29.6136 124.978 30.5647 126.785 30.5647C128.273 30.5647 130.451 30.1948 130.451 28.9795C130.451 27.8698 127.263 27.4999 125.456 27.0771C119.451 25.7032 118.548 23.4838 118.548 21.0002C118.548 17.5654 121.843 14.7119 126.306 14.7119C129.761 14.7119 132.311 16.0858 134.171 18.728C136.35 21.9514 132.205 25.0691 129.654 21.74C128.804 20.6303 127.741 20.049 126.306 20.049C125.244 20.049 124.128 20.1547 124.128 20.9474C124.128 21.74 125.881 21.8985 127.476 22.2156C133.427 23.3781 135.872 25.4918 135.872 28.9266Z" fill="#FDCB02"/>
<path d="M69.3698 31.0929L62.0895 24.7518L68.9447 19.6789C70.1138 18.7805 70.3795 17.1424 69.4761 15.9799C68.5727 14.8173 66.9253 14.5531 65.7562 15.4515L59.2731 20.2601V8.84612C59.2731 7.36652 58.104 6.20398 56.616 6.20398C55.1281 6.20398 53.959 7.36652 53.959 8.84612V33.1538C53.959 34.6334 55.1281 35.7959 56.616 35.7959C58.104 35.7959 59.2731 34.6334 59.2731 33.1538V29.2963L65.8625 35.0561C66.9785 36.0073 68.6258 35.9016 69.6355 34.7919C70.5921 33.6822 70.4858 32.0441 69.3698 31.0929Z" fill="#FDCB02"/>
<path d="M105.076 35.7959C99.6553 35.7959 95.2446 31.8855 95.2446 27.024V17.3009C95.2446 15.8214 96.4137 14.6588 97.9017 14.6588C99.3896 14.6588 100.559 15.8214 100.559 17.3009V27.024C100.559 28.9263 102.631 30.5116 105.076 30.5116C107.52 30.5116 109.593 28.9263 109.593 27.024V17.3009C109.593 15.8214 110.762 14.6588 112.25 14.6588C113.738 14.6588 114.907 15.8214 114.907 17.3009V27.024C114.907 31.8855 110.496 35.7959 105.076 35.7959Z" fill="#FDCB02"/>
<path d="M87.8352 28.398C86.2941 29.8247 84.2747 30.0889 82.4679 30.0889C80.1297 30.0889 78.3229 28.5036 77.8447 26.8655H90.1734C92.0333 26.8655 92.9367 26.02 92.9367 24.4876C92.9367 20.8414 89.27 14.7645 82.4148 14.7645C76.5162 14.7645 71.946 19.4147 71.946 25.2274C71.946 31.0401 76.5693 35.6374 82.4148 35.6374C86.2409 35.6374 89.4825 34.3692 91.6613 31.8856C93.7869 29.402 90.8111 25.5444 87.8352 28.398ZM78.1104 22.2154C78.6418 20.4715 80.5017 19.4147 82.3617 19.4147H83.4245C85.3375 19.4147 87.1443 20.4715 87.6757 22.321C87.7289 22.5324 87.4632 22.7438 87.2506 22.7438H78.4824C78.2698 22.7438 78.1104 22.5853 78.1104 22.3739V22.2154Z" fill="#FDCB02"/>
</g>
<g clip-path="url(#clip1)">
<path d="M42.3943 20.9908C40.3071 19.166 37.192 19.1702 35.1056 20.9956C32.5945 23.1916 29.659 26.4455 29.3563 29.847C29.2686 30.8297 30.0132 31.7086 30.9966 31.7825C31.0057 31.7831 31.0147 31.7838 31.0238 31.7845C32.7136 31.8939 34.8891 29.6457 35.0339 29.4939L35.0422 29.4855L32.0928 28.1873C32.0614 28.1706 32.0566 28.1372 32.0816 28.1128L32.7581 27.4442C32.7832 27.4198 32.8312 27.4059 32.8653 27.4149L36.5761 27.8655L37.9458 26.419C38.3654 26.0039 38.964 25.9294 39.282 26.2518C39.6001 26.5743 39.5172 27.1719 39.0976 27.5863L37.6333 28.9311L37.9534 32.7422C37.9618 32.7763 37.9479 32.8244 37.9228 32.8494L37.2463 33.518C37.2213 33.5424 37.1879 33.5368 37.1719 33.5055L35.9915 30.4397L35.9846 30.4466C35.8669 30.5664 34.1939 32.3062 34.4305 34.1776C34.4347 34.2096 34.4395 34.2417 34.4451 34.273C34.6128 35.2376 35.6261 35.8087 36.5525 35.4946C37.483 35.1784 38.277 34.6191 38.7524 33.8482C40.5981 36.8409 47.2354 36.65 48.0963 31.3917C48.7422 27.4477 45.2853 23.5175 42.3943 20.9908Z" fill="#FDCB02"/>
<path d="M30.1859 21.8521C32.0117 21.8521 33.4917 20.1683 33.4917 18.0912C33.4917 16.0141 32.0117 14.3303 30.1859 14.3303C28.3602 14.3303 26.8801 16.0141 26.8801 18.0912C26.8801 20.1683 28.3602 21.8521 30.1859 21.8521Z" fill="#FDCB02"/>
<path d="M38.7463 17.5344C40.5721 17.5344 42.0521 15.8506 42.0521 13.7735C42.0521 11.6964 40.5721 10.0126 38.7463 10.0126C36.9206 10.0126 35.4406 11.6964 35.4406 13.7735C35.4406 15.8506 36.9206 17.5344 38.7463 17.5344Z" fill="#FDCB02"/>
<path d="M47.3069 21.8521C49.1326 21.8521 50.6127 20.1683 50.6127 18.0912C50.6127 16.0141 49.1326 14.3303 47.3069 14.3303C45.4812 14.3303 44.0011 16.0141 44.0011 18.0912C44.0011 20.1683 45.4812 21.8521 47.3069 21.8521Z" fill="#FDCB02"/>
</g>
<defs>
<clipPath id="clip0">
<rect width="130.673" height="29.5919" fill="white" transform="translate(6.66333 6.20398)"/>
</clipPath>
<clipPath id="clip1">
<rect width="23.7321" height="25.7831" fill="white" transform="translate(26.8801 10.0126)"/>
</clipPath>
</defs>
</svg>
