<svg width="131" height="39" viewBox="0 0 131 39" fill="none" xmlns="http://www.w3.org/2000/svg">
<g clip-path="url(#clip0)">
<path d="M26.1808 5.64355H11.6778C10.3242 5.64355 9.26062 6.70114 9.26062 8.04716C9.26062 9.39319 10.3242 10.4508 11.6778 10.4508H16.5121V30.1604C16.5121 31.5064 17.5757 32.564 18.9293 32.564C20.2829 32.564 21.3465 31.5064 21.3465 30.1604V10.4508H26.1808C27.5344 10.4508 28.598 9.39319 28.598 8.04716C28.598 6.70114 27.5344 5.64355 26.1808 5.64355Z" fill="#3D3D3D"/>
<path d="M123.606 26.3147C123.606 30.2566 119.352 32.516 115.291 32.516C112.681 32.516 108.62 31.2662 106.928 28.5741C104.898 25.2091 109.152 22.9977 110.989 25.6898C111.859 26.9397 113.696 27.805 115.34 27.805C116.693 27.805 118.675 27.4685 118.675 26.3628C118.675 25.3533 115.775 25.0168 114.131 24.6322C108.668 23.3823 107.846 21.3633 107.846 19.1039C107.846 15.9792 110.844 13.3833 114.905 13.3833C118.047 13.3833 120.367 14.6332 122.059 17.0368C124.041 19.9692 120.271 22.8055 117.95 19.7769C117.177 18.7674 116.21 18.2386 114.905 18.2386C113.938 18.2386 112.923 18.3347 112.923 19.0558C112.923 19.7769 114.518 19.9211 115.968 20.2096C121.383 21.2671 123.606 23.19 123.606 26.3147Z" fill="#3D3D3D"/>
<path d="M63.1072 28.2856L56.4842 22.5169L62.7204 17.902C63.784 17.0847 64.0257 15.5945 63.2039 14.5369C62.382 13.4793 60.8834 13.239 59.8198 14.0562L53.922 18.4308V8.04716C53.922 6.70114 52.8584 5.64355 51.5048 5.64355C50.1512 5.64355 49.0876 6.70114 49.0876 8.04716V30.1604C49.0876 31.5064 50.1512 32.564 51.5048 32.564C52.8584 32.564 53.922 31.5064 53.922 30.1604V26.6511L59.9165 31.891C60.9317 32.7563 62.4304 32.6601 63.3489 31.6506C64.2191 30.6411 64.1224 29.1509 63.1072 28.2856Z" fill="#3D3D3D"/>
<path d="M95.591 32.5642C90.6599 32.5642 86.6474 29.0069 86.6474 24.5842V15.7389C86.6474 14.3929 87.711 13.3353 89.0646 13.3353C90.4182 13.3353 91.4818 14.3929 91.4818 15.7389V24.5842C91.4818 26.3148 93.3672 27.757 95.591 27.757C97.8148 27.757 99.7001 26.3148 99.7001 24.5842V15.7389C99.7001 14.3929 100.764 13.3353 102.117 13.3353C103.471 13.3353 104.534 14.3929 104.534 15.7389V24.5842C104.534 29.0069 100.522 32.5642 95.591 32.5642Z" fill="#3D3D3D"/>
<path d="M79.9067 25.8339C78.5047 27.1319 76.6676 27.3722 75.024 27.3722C72.8969 27.3722 71.2532 25.93 70.8181 24.4398H82.0338C83.7258 24.4398 84.5476 23.6707 84.5476 22.2766C84.5476 18.9596 81.2119 13.4313 74.9756 13.4313C69.6095 13.4313 65.452 17.6616 65.452 22.9496C65.452 28.2375 69.6578 32.4198 74.9756 32.4198C78.4563 32.4198 81.4053 31.2661 83.3874 29.0067C85.3211 26.7473 82.6139 23.238 79.9067 25.8339ZM71.0598 20.2095C71.5432 18.6231 73.2353 17.6616 74.9273 17.6616H75.8941C77.6345 17.6616 79.2782 18.6231 79.7616 20.3056C79.81 20.4979 79.5682 20.6902 79.3749 20.6902H71.3982C71.2048 20.6902 71.0598 20.546 71.0598 20.3537V20.2095Z" fill="#3D3D3D"/>
</g>
<g clip-path="url(#clip1)">
<path d="M38.5663 19.0956C36.6676 17.4356 33.8337 17.4394 31.9356 19.1C29.6513 21.0977 26.9807 24.0578 26.7053 27.1523C26.6256 28.0463 27.303 28.8458 28.1976 28.913C28.2058 28.9136 28.2141 28.9143 28.2223 28.9149C29.7595 29.0144 31.7387 26.9692 31.8704 26.831L31.878 26.8234L29.1948 25.6424C29.1663 25.6272 29.1619 25.5968 29.1847 25.5746L29.8001 24.9664C29.8228 24.9442 29.8665 24.9315 29.8976 24.9398L33.2734 25.3497L34.5194 24.0337C34.9012 23.6561 35.4457 23.5883 35.735 23.8817C36.0243 24.175 35.949 24.7186 35.5672 25.0956L34.2351 26.3191L34.5264 29.7861C34.534 29.8171 34.5213 29.8608 34.4985 29.8837L33.8831 30.4919C33.8603 30.5141 33.8299 30.509 33.8154 30.4805L32.7416 27.6914L32.7352 27.6978C32.6282 27.8068 31.1062 29.3895 31.3215 31.0919C31.3253 31.1211 31.3297 31.1502 31.3348 31.1787C31.4873 32.0562 32.4092 32.5758 33.2519 32.29C34.0984 32.0024 34.8208 31.4936 35.2532 30.7922C36.9322 33.5147 42.9704 33.3411 43.7536 28.5576C44.3411 24.9696 41.1964 21.3942 38.5663 19.0956Z" fill="#3D3D3D"/>
<path d="M27.4604 19.8801C29.1213 19.8801 30.4678 18.3483 30.4678 16.4587C30.4678 14.5692 29.1213 13.0374 27.4604 13.0374C25.7995 13.0374 24.4531 14.5692 24.4531 16.4587C24.4531 18.3483 25.7995 19.8801 27.4604 19.8801Z" fill="#3D3D3D"/>
<path d="M35.2481 15.9516C36.9091 15.9516 38.2555 14.4198 38.2555 12.5303C38.2555 10.6407 36.9091 9.10889 35.2481 9.10889C33.5872 9.10889 32.2408 10.6407 32.2408 12.5303C32.2408 14.4198 33.5872 15.9516 35.2481 15.9516Z" fill="#3D3D3D"/>
<path d="M43.0359 19.8801C44.6968 19.8801 46.0432 18.3483 46.0432 16.4587C46.0432 14.5692 44.6968 13.0374 43.0359 13.0374C41.3749 13.0374 40.0285 14.5692 40.0285 16.4587C40.0285 18.3483 41.3749 19.8801 43.0359 19.8801Z" fill="#3D3D3D"/>
</g>
<defs>
<clipPath id="clip0">
<rect width="118.876" height="26.9204" fill="white" transform="translate(6.06244 5.64307)"/>
</clipPath>
<clipPath id="clip1">
<rect width="21.5897" height="23.4554" fill="white" transform="translate(24.454 9.1084)"/>
</clipPath>
</defs>
</svg>
