<svg width="47" height="14" viewBox="0 0 47 14" fill="none" xmlns="http://www.w3.org/2000/svg">
<g clip-path="url(#clip0)">
<path d="M9.12074 1.90466H3.6307C3.1183 1.90466 2.7157 2.30501 2.7157 2.81454C2.7157 3.32407 3.1183 3.72441 3.6307 3.72441H5.46072V11.1854C5.46072 11.6949 5.86332 12.0952 6.37572 12.0952C6.88813 12.0952 7.29073 11.6949 7.29073 11.1854V3.72441H9.12074C9.63315 3.72441 10.0357 3.32407 10.0357 2.81454C10.0357 2.30501 9.63315 1.90466 9.12074 1.90466Z" fill="#3D3D3D"/>
<path d="M44.7893 9.72996C44.7893 11.2222 43.1789 12.0774 41.6417 12.0774C40.6535 12.0774 39.1163 11.6043 38.4758 10.5852C37.7071 9.31142 39.3176 8.47433 40.013 9.49339C40.3424 9.96653 41.0378 10.2941 41.66 10.2941C42.1724 10.2941 42.9227 10.1667 42.9227 9.74816C42.9227 9.36601 41.8247 9.23863 41.2025 9.09305C39.1346 8.61991 38.8235 7.85562 38.8235 7.00034C38.8235 5.8175 39.9581 4.83484 41.4953 4.83484C42.6848 4.83484 43.5632 5.30797 44.2037 6.21785C44.954 7.32789 43.5266 8.40154 42.6482 7.2551C42.3554 6.87296 41.9894 6.67278 41.4953 6.67278C41.1293 6.67278 40.745 6.70918 40.745 6.98214C40.745 7.2551 41.3489 7.30969 41.8979 7.41888C43.9475 7.81922 44.7893 8.54712 44.7893 9.72996Z" fill="#3D3D3D"/>
<path d="M22.5938 10.4757L20.0867 8.29197L22.4474 6.54502C22.85 6.23566 22.9415 5.67154 22.6304 5.27119C22.3193 4.87085 21.752 4.77986 21.3494 5.08922L19.1168 6.74519V2.81454C19.1168 2.30501 18.7142 1.90466 18.2017 1.90466C17.6893 1.90466 17.2867 2.30501 17.2867 2.81454V11.1854C17.2867 11.6949 17.6893 12.0952 18.2017 12.0952C18.7142 12.0952 19.1168 11.6949 19.1168 11.1854V9.85696L21.386 11.8405C21.7703 12.168 22.3376 12.1316 22.6853 11.7495C23.0147 11.3673 22.9781 10.8032 22.5938 10.4757Z" fill="#3D3D3D"/>
<path d="M34.4872 12.0955C32.6206 12.0955 31.1017 10.7489 31.1017 9.07474V5.7264C31.1017 5.21687 31.5043 4.81653 32.0167 4.81653C32.5291 4.81653 32.9317 5.21687 32.9317 5.7264V9.07474C32.9317 9.72985 33.6454 10.2758 34.4872 10.2758C35.329 10.2758 36.0427 9.72985 36.0427 9.07474V5.7264C36.0427 5.21687 36.4453 4.81653 36.9577 4.81653C37.4701 4.81653 37.8727 5.21687 37.8727 5.7264V9.07474C37.8727 10.7489 36.3538 12.0955 34.4872 12.0955Z" fill="#3D3D3D"/>
<path d="M28.6506 9.54761C28.1199 10.0389 27.4245 10.1299 26.8023 10.1299C25.9971 10.1299 25.3748 9.584 25.2101 9.01988H29.4558C30.0963 9.01988 30.4074 8.72872 30.4074 8.20099C30.4074 6.94537 29.1447 4.85266 26.784 4.85266C24.7526 4.85266 23.1788 6.45404 23.1788 8.45576C23.1788 10.4575 24.7709 12.0407 26.784 12.0407C28.1016 12.0407 29.2179 11.6039 29.9682 10.7486C30.7002 9.89336 29.6754 8.56494 28.6506 9.54761ZM25.3016 7.4185C25.4847 6.81799 26.1252 6.45404 26.7657 6.45404H27.1317C27.7905 6.45404 28.4127 6.81799 28.5957 7.4549C28.614 7.52769 28.5225 7.60048 28.4493 7.60048H25.4297C25.3565 7.60048 25.3016 7.54589 25.3016 7.4731V7.4185Z" fill="#3D3D3D"/>
<path d="M15.123 4.83093C14.7223 4.83093 14.3763 5.10335 14.2671 5.46658C13.6661 5.06703 12.9741 4.83093 12.2093 4.83093C10.2061 4.83093 8.56714 6.46546 8.56714 8.46322C8.56714 10.461 10.2061 12.0955 12.2093 12.0955C12.9741 12.0955 13.6661 11.8594 14.2671 11.4599C14.3763 11.8231 14.7223 12.0955 15.123 12.0955C15.6329 12.0955 16.0335 11.696 16.0335 11.1874V5.739C16.0335 5.23048 15.6329 4.83093 15.123 4.83093ZM12.2093 10.2794C11.2077 10.2794 10.3882 9.4621 10.3882 8.46322C10.3882 7.46434 11.2077 6.64708 12.2093 6.64708C13.2109 6.64708 14.0303 7.46434 14.0303 8.46322C14.0303 9.4621 13.2109 10.2794 12.2093 10.2794Z" fill="#3D3D3D"/>
</g>
<defs>
<clipPath id="clip0">
<rect width="45" height="10.1906" fill="white" transform="translate(1 1.90466)"/>
</clipPath>
</defs>
</svg>
