<svg width="84" height="26" viewBox="0 0 84 26" fill="none" xmlns="http://www.w3.org/2000/svg">
<path d="M15.5986 4.17139H6.08604C5.1982 4.17139 4.50061 4.86506 4.50061 5.74793C4.50061 6.63079 5.1982 7.32447 6.08604 7.32447H9.25691V20.2521C9.25691 21.135 9.9545 21.8286 10.8423 21.8286C11.7302 21.8286 12.4278 21.135 12.4278 20.2521V7.32447H15.5986C16.4865 7.32447 17.1841 6.63079 17.1841 5.74793C17.1841 4.86506 16.4865 4.17139 15.5986 4.17139Z" fill="#FDCB02"/>
<path d="M79.5 17.7289C79.5 20.3144 76.7097 21.7963 74.0461 21.7963C72.3339 21.7963 69.6703 20.9765 68.5605 19.2108C67.2288 17.0037 70.0191 15.5532 71.2241 17.319C71.7948 18.1388 72.9997 18.7063 74.0778 18.7063C74.9657 18.7063 76.2657 18.4856 76.2657 17.7604C76.2657 17.0982 74.3632 16.8775 73.2851 16.6253C69.702 15.8055 69.163 14.4812 69.163 12.9992C69.163 10.9497 71.1289 9.24707 73.7925 9.24707C75.8535 9.24707 77.3755 10.0669 78.4853 11.6434C79.7854 13.5668 77.3121 15.4271 75.7901 13.4407C75.2828 12.7785 74.6486 12.4317 73.7925 12.4317C73.1583 12.4317 72.4924 12.4947 72.4924 12.9677C72.4924 13.4407 73.5388 13.5353 74.4901 13.7244C78.0414 14.4181 79.5 15.6794 79.5 17.7289Z" fill="#FDCB02"/>
<path d="M39.818 19.0224L35.4739 15.2387L39.5643 12.2117C40.2619 11.6757 40.4204 10.6983 39.8814 10.0046C39.3423 9.31091 38.3594 9.15325 37.6618 9.68928L33.7933 12.5586V5.74793C33.7933 4.86506 33.0957 4.17139 32.2079 4.17139C31.32 4.17139 30.6224 4.86506 30.6224 5.74793V20.2521C30.6224 21.135 31.32 21.8286 32.2079 21.8286C33.0957 21.8286 33.7933 21.135 33.7933 20.2521V17.9504L37.7252 21.3872C38.3911 21.9548 39.374 21.8917 39.9765 21.2296C40.5473 20.5674 40.4838 19.59 39.818 19.0224Z" fill="#FDCB02"/>
<path d="M61.1254 21.8283C57.8911 21.8283 55.2593 19.495 55.2593 16.5942V10.7925C55.2593 9.90962 55.9569 9.21594 56.8447 9.21594C57.7326 9.21594 58.4301 9.90962 58.4301 10.7925V16.5942C58.4301 17.7293 59.6668 18.6752 61.1254 18.6752C62.584 18.6752 63.8206 17.7293 63.8206 16.5942V10.7925C63.8206 9.90962 64.5182 9.21594 65.4061 9.21594C66.2939 9.21594 66.9915 9.90962 66.9915 10.7925V16.5942C66.9915 19.495 64.3597 21.8283 61.1254 21.8283Z" fill="#FDCB02"/>
<path d="M50.837 17.415C49.9174 18.2663 48.7125 18.424 47.6344 18.424C46.2392 18.424 45.1611 17.478 44.8757 16.5006H52.2322C53.342 16.5006 53.881 15.9961 53.881 15.0817C53.881 12.9061 51.6931 9.28003 47.6027 9.28003C44.083 9.28003 41.3561 12.0547 41.3561 15.5231C41.3561 18.9915 44.1147 21.7347 47.6027 21.7347C49.8857 21.7347 51.82 20.978 53.12 19.496C54.3884 18.0141 52.6127 15.7123 50.837 17.415ZM45.0343 13.7259C45.3514 12.6854 46.4612 12.0547 47.571 12.0547H48.2052C49.3467 12.0547 50.4248 12.6854 50.7419 13.7889C50.7736 13.9151 50.615 14.0412 50.4882 14.0412H45.2562C45.1294 14.0412 45.0343 13.9466 45.0343 13.8205V13.7259Z" fill="#FDCB02"/>
<path d="M23.7231 12.9939C22.4777 11.9051 20.6189 11.9076 19.374 12.9968C17.8757 14.3071 16.124 16.2487 15.9434 18.2783C15.8911 18.8647 16.3354 19.3892 16.9222 19.4332C16.9276 19.4336 16.933 19.434 16.9384 19.4344C17.9467 19.4997 19.2448 18.1582 19.3312 18.0676L19.3362 18.0626L17.5762 17.288C17.5576 17.278 17.5547 17.2581 17.5696 17.2435L17.9732 16.8446C17.9882 16.83 18.0168 16.8217 18.0372 16.8271L20.2514 17.096L21.0687 16.2329C21.3191 15.9852 21.6762 15.9407 21.866 16.1331C22.0558 16.3255 22.0064 16.6821 21.756 16.9294L20.8822 17.7318L21.0732 20.0059C21.0782 20.0262 21.0699 20.0549 21.055 20.0699L20.6513 20.4688C20.6364 20.4834 20.6165 20.48 20.6069 20.4613L19.9026 18.632L19.8984 18.6361C19.8283 18.7076 18.83 19.7457 18.9711 20.8624C18.9736 20.8815 18.9765 20.9006 18.9799 20.9193C19.0799 21.4949 19.6846 21.8356 20.2373 21.6482C20.7925 21.4595 21.2664 21.1258 21.55 20.6658C22.6513 22.4515 26.6117 22.3376 27.1254 19.2001C27.5108 16.8467 25.4481 14.5016 23.7231 12.9939Z" fill="#FDCB02"/>
<path d="M16.4378 13.5082C17.5272 13.5082 18.4103 12.5035 18.4103 11.2641C18.4103 10.0247 17.5272 9.02002 16.4378 9.02002C15.3483 9.02002 14.4652 10.0247 14.4652 11.2641C14.4652 12.5035 15.3483 13.5082 16.4378 13.5082Z" fill="#FDCB02"/>
<path d="M21.5464 10.9319C22.6358 10.9319 23.5189 9.9272 23.5189 8.68782C23.5189 7.44844 22.6358 6.44373 21.5464 6.44373C20.457 6.44373 19.5739 7.44844 19.5739 8.68782C19.5739 9.9272 20.457 10.9319 21.5464 10.9319Z" fill="#FDCB02"/>
<path d="M26.655 13.5082C27.7444 13.5082 28.6276 12.5035 28.6276 11.2641C28.6276 10.0247 27.7444 9.02002 26.655 9.02002C25.5656 9.02002 24.6825 10.0247 24.6825 11.2641C24.6825 12.5035 25.5656 13.5082 26.655 13.5082Z" fill="#FDCB02"/>
</svg>
