<svg width="31" height="30" viewBox="0 0 31 30" fill="none" xmlns="http://www.w3.org/2000/svg">
<g clip-path="url(#clip0)">
<path fill-rule="evenodd" clip-rule="evenodd" d="M5.41467 7.23927C7.86292 7.06084 11.7183 6.81818 14.5488 6.81818C17.3794 6.81818 21.2347 7.06084 23.683 7.23927C24.496 7.29852 25.1258 7.94215 25.1258 8.72827V9.6166L15.3271 14.7634C14.8431 15.0176 14.2546 15.0176 13.7706 14.7634L3.97191 9.6166V8.72827C3.97191 7.94215 4.60161 7.29852 5.41467 7.23927ZM16.261 16.3527L25.1258 11.6965V16.4668H27.0488V8.72827C27.0488 7.00736 25.6615 5.55989 23.8308 5.42646C21.3811 5.24793 17.4605 5 14.5488 5C11.6372 5 7.71659 5.24793 5.26687 5.42646C3.43611 5.55989 2.04883 7.00736 2.04883 8.72827V21.2717C2.04883 22.9926 3.43611 24.4401 5.26687 24.5735C7.71659 24.7521 11.6372 25 14.5488 25C15.4701 25 16.4925 24.9752 17.5372 24.9356V23.1159C16.4887 23.1564 15.4651 23.1818 14.5488 23.1818C11.7183 23.1818 7.86292 22.9392 5.41467 22.7607C4.60161 22.7015 3.97191 22.0579 3.97191 21.2717V11.6965L12.8366 16.3527C13.9015 16.912 15.1962 16.912 16.261 16.3527Z" fill="#3D3D3D"/>
<path d="M25.2514 17.1504V22.0313L21.8938 17.1504H18.2559V26.8593H21.8938V21.9254L25.2514 26.8063V26.8593H28.8894V22.0048V17.1504H25.2514Z" fill="#3D3D3D"/>
</g>
<defs>
<clipPath id="clip0">
<rect width="30" height="30" fill="white" transform="translate(0.5)"/>
</clipPath>
</defs>
</svg>
