<svg width="30" height="30" viewBox="0 0 30 30" fill="none" xmlns="http://www.w3.org/2000/svg">
<path fill-rule="evenodd" clip-rule="evenodd" d="M15 6.81818C12.1695 6.81818 8.31409 7.06084 5.86584 7.23927C5.05278 7.29852 4.42308 7.94215 4.42308 8.72827V9.6166L14.2217 14.7634C14.7057 15.0176 15.2943 15.0176 15.7783 14.7634L25.5769 9.6166V8.72827C25.5769 7.94215 24.9472 7.29852 24.1342 7.23927C21.6859 7.06084 17.8305 6.81818 15 6.81818ZM25.5769 11.6965L16.7122 16.3527C15.6474 16.912 14.3526 16.912 13.2878 16.3527L4.42308 11.6965V21.2717C4.42308 22.0579 5.05278 22.7015 5.86585 22.7607C8.31409 22.9392 12.1695 23.1818 15 23.1818C17.8305 23.1818 21.6859 22.9392 24.1342 22.7607C24.9472 22.7015 25.5769 22.0579 25.5769 21.2717V11.6965ZM5.71804 5.42646C8.16776 5.24793 12.0883 5 15 5C17.9117 5 21.8322 5.24793 24.282 5.42646C26.1127 5.55989 27.5 7.00736 27.5 8.72827V21.2717C27.5 22.9926 26.1127 24.4401 24.282 24.5735C21.8322 24.7521 17.9117 25 15 25C12.0883 25 8.16777 24.7521 5.71804 24.5735C3.88728 24.4401 2.5 22.9926 2.5 21.2717V8.72827C2.5 7.00736 3.88728 5.55989 5.71804 5.42646Z" fill="#3D3D3D"/>
</svg>
