<svg width="30" height="30" viewBox="0 0 30 30" fill="none" xmlns="http://www.w3.org/2000/svg">
<path fill-rule="evenodd" clip-rule="evenodd" d="M4.91467 7.23927C7.36292 7.06084 11.2183 6.81818 14.0488 6.81818C16.8794 6.81818 20.7347 7.06084 23.183 7.23927C23.996 7.29852 24.6258 7.94215 24.6258 8.72827V9.6166L14.8271 14.7634C14.3431 15.0176 13.7546 15.0176 13.2706 14.7634L3.47191 9.6166V8.72827C3.47191 7.94215 4.10161 7.29852 4.91467 7.23927ZM15.761 16.3527L24.6258 11.6965V16.4668H26.5488V8.72827C26.5488 7.00736 25.1615 5.55989 23.3308 5.42646C20.8811 5.24793 16.9605 5 14.0488 5C11.1372 5 7.21659 5.24793 4.76687 5.42646C2.93611 5.55989 1.54883 7.00736 1.54883 8.72827V21.2717C1.54883 22.9926 2.93611 24.4401 4.76687 24.5735C7.21659 24.7521 11.1372 25 14.0488 25C14.8062 25 15.6317 24.9832 16.4819 24.9553V23.136C15.6288 23.1646 14.8025 23.1818 14.0488 23.1818C11.2183 23.1818 7.36292 22.9392 4.91467 22.7607C4.10161 22.7015 3.47191 22.0579 3.47191 21.2717V11.6965L12.3366 16.3527C13.4015 16.912 14.6962 16.912 15.761 16.3527Z" fill="#3D3D3D"/>
<path fill-rule="evenodd" clip-rule="evenodd" d="M22.9592 19.0741C21.2001 19.0741 19.6887 20.687 19.6887 22.4948C19.6887 24.3027 21.2001 25.7924 22.9592 25.7924C23.9396 25.7924 24.7921 25.4634 25.2914 24.9431C25.5966 24.6251 25.8607 24.1619 26.0213 23.6081H22.8897V21.3788H22.8898V21.3915H28.3707C28.4238 21.7256 28.4514 22.0726 28.4514 22.4307C28.4514 24.0293 27.9294 25.4618 26.9305 26.5027C25.9277 27.5477 24.5299 28.1075 22.9592 28.1075C19.8375 28.1075 17.3281 25.5541 17.3281 22.4307C17.3281 19.3073 19.8375 16.7539 22.9592 16.7539C24.4929 16.7539 25.8401 17.3198 26.8164 18.2854L25.17 19.938C24.5868 19.3862 23.8038 19.0741 22.9592 19.0741Z" fill="#3D3D3D"/>
</svg>
