<svg width="172" height="142" viewBox="0 0 172 142" fill="none" xmlns="http://www.w3.org/2000/svg">
<path d="M153 71C153 107.451 123.451 137 87 137C50.5492 137 21 107.451 21 71C21 34.5492 50.5492 5 87 5C123.451 5 153 34.5492 153 71Z" fill="#FFFCF1"/>
<circle cx="87" cy="71" r="41" fill="#F8D05F"/>
<path fill-rule="evenodd" clip-rule="evenodd" d="M107.701 54.8663C108.873 53.6944 108.873 51.7946 107.701 50.6227C106.529 49.4509 104.629 49.4509 103.457 50.6227L87.0778 67.0024L70.6985 50.6231C69.5267 49.4513 67.6268 49.4513 66.455 50.6231C65.2832 51.7949 65.2832 53.6948 66.455 54.8666L82.8342 71.2459L66.6237 87.4564C65.4519 88.6282 65.4519 90.5281 66.6237 91.6999C67.7955 92.8717 69.6954 92.8717 70.8672 91.6999L87.0778 75.4894L103.289 91.7003C104.46 92.8721 106.36 92.8721 107.532 91.7003C108.704 90.5285 108.704 88.6286 107.532 87.4568L91.3213 71.2459L107.701 54.8663Z" fill="white"/>
<circle cx="164" cy="82" r="3" fill="#FFE371"/>
<circle cx="6.5" cy="66.5" r="1.5" fill="#FFE371"/>
<circle cx="41" cy="40" r="5" fill="#FFE371"/>
<circle cx="27" cy="91" r="4.45647" stroke="#FFEEBA" stroke-width="3.08707"/>
<circle cx="149" cy="53" r="5.45647" stroke="#FFEEBA" stroke-width="3.08707"/>
</svg>
