<svg width="431" height="290" viewBox="0 0 431 290" fill="none" xmlns="http://www.w3.org/2000/svg">
<path opacity="0.3" d="M223.605 22.4533C194.297 29.1611 181.929 64.1287 146.428 70.3028C101.694 81.2789 80.0456 78.5077 63.0777 129.729C46.1098 180.95 159.805 205.059 220.735 228.231C281.666 251.402 334.739 230.059 381.159 202.01C424.975 175.535 424.264 133.588 390.414 109.324C360.121 87.6098 354.845 78.1795 337.316 46.8447L337.055 46.3782C319.315 14.6699 268.922 12.0817 223.605 22.4533Z" fill="#FFEEBA"/>
<rect x="56.1324" y="116.609" width="243.878" height="137.374" rx="1.54353" fill="white" stroke="#FFEEBA" stroke-width="3.08707"/>
<rect x="54.5889" y="79.5637" width="246.965" height="32.4142" rx="3.08707" fill="#FFEEBA"/>
<rect x="106.296" y="196.101" width="148.179" height="32.4142" rx="0.771767" fill="#FFE371" stroke="#FFE371" stroke-width="1.54353"/>
<mask id="path-5-inside-1_1521:2604" fill="white">
<rect x="100.895" y="190.698" width="149.723" height="33.9577" rx="1.54353"/>
</mask>
<rect x="100.895" y="190.698" width="149.723" height="33.9577" rx="1.54353" fill="white" stroke="#FFE371" stroke-width="6.17413" mask="url(#path-5-inside-1_1521:2604)"/>
<circle cx="328.566" cy="64.9004" r="6.9459" stroke="#FFE371" stroke-width="3.08707"/>
<circle cx="364.839" cy="128.957" r="4.6306" fill="#FFE371"/>
<line x1="17.5435" y1="122.783" x2="31.4353" y2="122.783" stroke="#FFE371" stroke-width="3.08707" stroke-linecap="round"/>
<line x1="25.2613" y1="116.609" x2="25.2613" y2="130.501" stroke="#FFE371" stroke-width="3.08707" stroke-linecap="round"/>
<path d="M153.4 201.727V211.952H146.713V201.727H153.4ZM160.253 216.249H158.178V207.969H156.845V215.489H154.807V200.042H156.845V206.228H158.178V199.745H160.253V216.249ZM151.362 210.285V203.394H148.75V210.285H151.362ZM174.519 210.859C175.544 211.402 176.057 212.155 176.057 213.119C176.057 214.082 175.551 214.835 174.538 215.378C173.525 215.922 172.099 216.193 170.259 216.193C168.432 216.193 167.012 215.922 165.999 215.378C164.987 214.835 164.48 214.082 164.48 213.119C164.48 212.155 164.987 211.402 165.999 210.859C167.024 210.303 168.444 210.025 170.259 210.025C172.087 210.025 173.507 210.303 174.519 210.859ZM162.98 204.506V202.783H171.667V204.506H168.537C168.907 206.074 170.08 207.142 172.056 207.71L170.963 209.396C170.259 209.161 169.555 208.784 168.852 208.266C168.148 207.735 167.641 207.136 167.333 206.469C167.049 207.198 166.524 207.889 165.758 208.544C165.005 209.186 164.221 209.63 163.406 209.877L162.239 208.229C164.462 207.451 165.746 206.21 166.092 204.506H162.98ZM175.89 209.877H173.723V199.745H175.89V209.877ZM170.259 211.711C169.136 211.711 168.259 211.841 167.629 212.1C167.012 212.359 166.703 212.699 166.703 213.119C166.703 213.551 167.012 213.89 167.629 214.137C168.247 214.372 169.123 214.489 170.259 214.489C171.408 214.489 172.291 214.372 172.908 214.137C173.525 213.89 173.834 213.551 173.834 213.119C173.834 212.686 173.519 212.347 172.889 212.1C172.272 211.841 171.395 211.711 170.259 211.711ZM164.925 201.894V200.171H169.722V201.894H164.925ZM188.416 209.673C187.082 209.859 185.396 210.007 183.359 210.118C181.322 210.217 179.624 210.266 178.265 210.266L177.987 208.525C179.753 208.525 181.068 208.513 181.933 208.488V207.025C181.031 206.827 180.303 206.438 179.747 205.858C179.204 205.265 178.932 204.574 178.932 203.783C178.932 202.82 179.321 202.018 180.099 201.375C180.889 200.721 181.877 200.394 183.063 200.394C184.236 200.394 185.211 200.721 185.989 201.375C186.767 202.018 187.156 202.826 187.156 203.802C187.156 204.592 186.872 205.284 186.304 205.876C185.748 206.469 185.02 206.852 184.118 207.025V208.414C185.798 208.328 187.181 208.204 188.267 208.043C188.28 208.155 188.298 208.402 188.323 208.784C188.36 209.167 188.391 209.464 188.416 209.673ZM191.342 199.745V205.117H193.509V206.895H191.342V212.026H189.175V199.745H191.342ZM191.731 216.008H180.303V211.34H182.47V214.304H191.731V216.008ZM184.489 204.987C184.859 204.629 185.045 204.228 185.045 203.783C185.045 203.339 184.859 202.944 184.489 202.598C184.118 202.24 183.643 202.061 183.063 202.061C182.47 202.061 181.982 202.234 181.599 202.579C181.229 202.925 181.044 203.326 181.044 203.783C181.044 204.228 181.229 204.629 181.599 204.987C181.982 205.333 182.47 205.506 183.063 205.506C183.643 205.506 184.118 205.333 184.489 204.987ZM207.794 209.896H205.405V212.47H209.202V214.193H194.292V212.47H198.052V209.896H196.199V204.432H205.164V202.524H196.107V200.801H207.313V206.154H198.348V208.155H207.794V209.896ZM200.163 209.896V212.47H203.312V209.896H200.163Z" fill="#FCB34A"/>
<path fill-rule="evenodd" clip-rule="evenodd" d="M312.105 240.807C313.029 240.127 312.915 238.713 311.895 238.19L286.511 225.166C285.378 224.585 284.068 225.549 284.286 226.803L289.159 254.914C289.355 256.044 290.671 256.573 291.594 255.894L296.878 252.008C297.564 251.502 298.53 251.65 299.036 252.336L308.72 265.503C309.226 266.189 310.192 266.337 310.878 265.831L315.845 262.178C316.532 261.673 316.679 260.707 316.174 260.02L306.489 246.854C305.984 246.167 306.131 245.201 306.818 244.696L312.105 240.807Z" fill="#F29C42"/>
</svg>
