<svg width="140" height="140" viewBox="0 0 140 140" fill="none" xmlns="http://www.w3.org/2000/svg">
<circle cx="70" cy="70" r="70" fill="white"/>
<path d="M36.1799 95.78C34.5359 95.228 33.7679 93.968 33.6959 92.744H35.8319V91.484H29.8919V92.744H32.0519C31.9799 94.076 31.1759 95.408 29.4599 95.984L30.2639 97.232C31.5479 96.8 32.4119 95.924 32.9039 94.844C33.3719 95.828 34.1999 96.62 35.4119 97.016L36.1799 95.78ZM37.1879 100.64H32.9999V99.692H37.1879V100.64ZM37.1879 98.48H32.9999V97.472H31.4399V101.9H38.7599V97.472H37.1879V98.48ZM37.1759 90.98V93.452H35.5079V94.736H37.1759V97.028H38.7599V90.98H37.1759ZM50.003 94.304C47.507 94.004 46.343 92.78 46.343 91.496V91.172H44.723V91.496C44.723 92.744 43.535 94.004 41.051 94.304L41.639 95.54C43.487 95.276 44.831 94.496 45.527 93.404C46.223 94.508 47.567 95.276 49.427 95.54L50.003 94.304ZM41.663 99.62H47.759V102.044H49.343V98.372H41.663V99.62ZM46.331 96.332V94.904H44.747V96.332H40.559V97.592H50.555V96.332H46.331ZM60.8328 92.144H58.3608V90.968H56.7648V92.144H54.3168V93.38H60.8208L60.8328 92.144ZM56.3688 95.9C56.3688 95.3 56.8608 94.976 57.5688 94.976C58.2648 94.976 58.7688 95.3 58.7688 95.9C58.7688 96.512 58.2648 96.836 57.5688 96.836C56.8608 96.836 56.3688 96.512 56.3688 95.9ZM60.2808 95.9C60.2808 94.652 59.1528 93.776 57.5688 93.776C55.9848 93.776 54.8568 94.652 54.8568 95.9C54.8568 97.172 55.9848 98.036 57.5688 98.036C59.1528 98.036 60.2808 97.172 60.2808 95.9ZM57.4728 98.636H55.8888V101.84H63.4128V100.58H57.4728V98.636ZM63.0168 94.352V90.98H61.4328V99.248H63.0168V95.66H64.4808V94.352H63.0168ZM71.6198 94.628C70.3598 94.892 69.2078 94.976 67.3118 94.988V92.792H70.6838V91.556H65.7398V96.236H66.6638C69.0158 96.236 70.3478 96.176 71.7758 95.864L71.6198 94.628ZM68.3438 99.968H74.0558V96.92H66.7598V98.168H72.4958V98.816H66.7718V101.9H74.3798V100.664H68.3438V99.968ZM74.0558 93.068V90.968H72.4718V96.464H74.0558V94.352H75.5198V93.068H74.0558ZM84.0509 93.992V95.012H81.6149V96.284H84.0509V97.34H85.6349V90.98H84.0509V92.732H82.0709C82.1189 92.408 82.1429 92.072 82.1429 91.724H77.0789V92.996H80.4149C80.2109 94.496 78.9989 95.684 76.4789 96.356L77.0909 97.604C79.5269 96.92 81.0749 95.732 81.7589 93.992H84.0509ZM81.9869 100.748C80.6189 100.748 79.8149 100.4 79.8149 99.728C79.8149 99.056 80.6189 98.708 81.9869 98.708C83.3429 98.708 84.1469 99.056 84.1469 99.728C84.1469 100.4 83.3429 100.748 81.9869 100.748ZM81.9869 97.484C79.7309 97.484 78.2549 98.348 78.2549 99.728C78.2549 101.108 79.7309 101.972 81.9869 101.972C84.2309 101.972 85.7069 101.108 85.7069 99.728C85.7069 98.348 84.2309 97.484 81.9869 97.484ZM93.29 97.208C93.59 95.384 93.59 94.04 93.59 92.972V92.072H87.902V93.332H92.03C92.03 94.316 91.994 95.504 91.742 97.076L93.29 97.208ZM90.878 95.24H89.318V98.504C88.622 98.516 87.95 98.516 87.338 98.516L87.482 99.812C89.402 99.8 91.874 99.752 94.118 99.368L94.034 98.228C93.026 98.348 91.946 98.42 90.878 98.456V95.24ZM97.61 95.42H96.122V90.968H94.538V102.02H96.122V96.74H97.61V95.42ZM102.757 91.832H101.173V93.44C101.173 95.588 100.261 97.724 98.329 98.552L99.277 99.86C100.597 99.236 101.497 98.048 101.989 96.572C102.481 97.928 103.333 99.02 104.605 99.596L105.505 98.312C103.633 97.508 102.757 95.492 102.757 93.44V91.832ZM106.045 90.968V102.056H107.629V90.968H106.045ZM46.235 111.204H44.999C45.263 110.304 45.359 109.332 45.359 108.288H41.027V109.548H43.787C43.595 111.708 42.623 113.304 40.415 114.624L41.315 115.74C42.875 114.828 43.883 113.736 44.507 112.476H46.235V117.54H47.711V107.22H46.235V111.204ZM48.563 106.968V118.02H50.063V106.968H48.563ZM55.882 107.832H54.298V109.44C54.298 111.588 53.386 113.724 51.454 114.552L52.402 115.86C53.722 115.236 54.622 114.048 55.114 112.572C55.606 113.928 56.458 115.02 57.73 115.596L58.63 114.312C56.758 113.508 55.882 111.492 55.882 109.44V107.832ZM59.17 106.968V118.056H60.754V106.968H59.17ZM69.8011 109.56H65.4211V108.516H69.8011V109.56ZM71.3491 107.304H63.8731V110.772H71.3491V107.304ZM72.6211 112.608V111.36H62.6371V112.608H66.8251V113.304H63.7771V114.468H69.8491V115.044H63.7891V117.948H71.6971V116.76H65.3611V116.136H71.4091V113.304H68.4091V112.608H72.6211ZM85.8869 110.124C83.4269 109.824 82.2029 108.576 82.2029 107.436V107.112H80.5709V107.436C80.5709 108.588 79.3589 109.824 76.8869 110.124L77.4389 111.348C79.3229 111.108 80.6909 110.328 81.3869 109.26C82.0949 110.316 83.4509 111.108 85.3349 111.348L85.8869 110.124ZM83.6309 116.664H79.1069V115.392H83.6309V116.664ZM86.3789 113.148V111.9H76.3949V113.148H80.5829V114.156H77.5589V117.9H85.1909V114.156H82.1669V113.148H86.3789ZM88.13 107.616V108.864H91.55C91.322 110.328 89.942 111.54 87.494 112.152L88.094 113.388C91.382 112.548 93.242 110.556 93.242 107.616H88.13ZM90.866 114.852H95.054V116.664H90.866V114.852ZM89.306 117.9H96.614V113.604H89.306V117.9ZM95.018 106.992V113.136H96.614V106.992H95.018Z" fill="#6F6F6F"/>
<rect x="50" y="37.4231" width="39.7692" height="39.1667" rx="4.82051" stroke="#6F6F6F" stroke-width="2.41026"/>
<line x1="79.5254" y1="33.2051" x2="79.5254" y2="39.8333" stroke="#6F6F6F" stroke-width="2.41026" stroke-linecap="round"/>
<line x1="60.2432" y1="33.2051" x2="60.2432" y2="39.8333" stroke="#6F6F6F" stroke-width="2.41026" stroke-linecap="round"/>
<circle cx="58.7369" cy="50.9808" r="1.50641" fill="#6F6F6F"/>
<circle cx="58.7369" cy="58.814" r="1.50641" fill="#6F6F6F"/>
<circle cx="58.7369" cy="66.6475" r="1.50641" fill="#6F6F6F"/>
<circle cx="65.9683" cy="50.9808" r="1.50641" fill="#6F6F6F"/>
<circle cx="65.9683" cy="58.814" r="1.50641" fill="#6F6F6F"/>
<circle cx="65.9683" cy="66.6475" r="1.50641" fill="#6F6F6F"/>
<circle cx="73.1988" cy="50.9808" r="1.50641" fill="#6F6F6F"/>
<circle cx="73.1988" cy="58.814" r="1.50641" fill="#6F6F6F"/>
<circle cx="80.4293" cy="50.9808" r="1.50641" fill="#6F6F6F"/>
<circle cx="85.8525" cy="69.0576" r="9.94231" fill="white" stroke="#6F6F6F" stroke-width="2.41026"/>
</svg>
