<svg width="140" height="140" viewBox="0 0 140 140" fill="none" xmlns="http://www.w3.org/2000/svg">
<rect x="83.5979" y="106.213" width="39.2901" height="11.1904" rx="3" fill="#FFEEBA"/>
<rect x="11.8389" y="106.213" width="40.0761" height="11.1904" rx="3" fill="#FFEEBA"/>
<circle cx="120.725" cy="101.584" r="1.07058" fill="#6F6F6F"/>
<path d="M106.397 80.2463V78.5057C106.397 73.1815 110.713 68.8655 116.037 68.8655V68.8655C117.635 68.8655 118.929 67.5706 118.929 65.9734V53.5197C118.929 50.8359 121.105 48.6603 123.789 48.6603V48.6603C126.473 48.6603 128.648 50.8359 128.648 53.5197V83.3098C128.648 88.4739 125.555 93.1357 120.798 95.1433V95.1433C120.704 95.1827 120.644 95.2741 120.644 95.3753V98.3327M87.313 104.543V96.9352C87.313 95.8662 86.7441 94.8779 85.8196 94.341L84.4284 93.5331C81.3467 91.7435 79.4503 88.4491 79.4503 84.8855V34.9366C79.4503 32.4262 81.4855 30.391 83.9959 30.391V30.391C86.5064 30.391 88.5415 32.4262 88.5415 34.9366V53.974M118.929 41.8164V30.4739C118.929 27.714 116.692 25.4767 113.932 25.4767V25.4767C111.172 25.4767 108.935 27.714 108.935 30.4739V55.8285M88.5415 55.4164V30.7266C88.5415 27.8271 90.892 25.4767 93.7914 25.4767V25.4767C96.6908 25.4767 99.0413 27.8271 99.0413 30.7266V54.7296M99.0413 55.8285V25.2653C99.0413 22.5332 101.256 20.3184 103.988 20.3184V20.3184C106.72 20.3184 108.935 22.5332 108.935 25.2653V55.8285M108.935 59.6061V55.8285" stroke="#6F6F6F" stroke-width="2" stroke-linecap="round"/>
<rect x="83.5979" y="106.213" width="41.4619" height="13.4705" rx="3" stroke="#6F6F6F" stroke-width="2"/>
<circle r="1.07058" transform="matrix(-1 0 0 1 18.7929 42.4495)" fill="#6F6F6F"/>
<path d="M31.5296 80.2463V78.5057C31.5296 73.1815 27.2135 68.8655 21.8893 68.8655V68.8655C20.2921 68.8655 18.9972 67.5706 18.9972 65.9734V53.5197C18.9972 50.8359 16.8216 48.6603 14.1378 48.6603V48.6603C11.4541 48.6603 9.27842 50.8359 9.27842 53.5197V83.3098C9.27842 88.4739 12.3712 93.1357 17.129 95.1433V95.1433C17.2223 95.1827 17.283 95.2741 17.283 95.3753V104.741M50.6136 101.082V96.9352C50.6136 95.8662 51.1826 94.8779 52.1071 94.341L53.4982 93.5331C56.5799 91.7435 58.4763 88.4491 58.4763 84.8855V34.9366C58.4763 32.4262 56.4412 30.391 53.9307 30.391V30.391C51.4202 30.391 49.3851 32.4262 49.3851 34.9366V53.974M18.9972 38.6786V30.4739C18.9972 27.714 21.2345 25.4767 23.9944 25.4767V25.4767C26.7542 25.4767 28.9915 27.714 28.9915 30.4739V55.8285M49.3851 55.4164V30.7266C49.3851 27.8271 47.0347 25.4767 44.1352 25.4767V25.4767C41.2358 25.4767 38.8854 27.8271 38.8854 30.7266V54.7296M38.8854 55.8285V25.2653C38.8854 22.5332 36.6706 20.3184 33.9385 20.3184V20.3184C31.2064 20.3184 28.9915 22.5332 28.9915 25.2653V55.8285M28.9915 59.6061V55.8285" stroke="#6F6F6F" stroke-width="2" stroke-linecap="round"/>
<path d="M38.7806 119.683H33.5979H15.8669C14.2101 119.683 12.8669 118.34 12.8669 116.683V109.213C12.8669 107.556 14.2101 106.213 15.8669 106.213H51.3289C52.9857 106.213 54.3289 107.556 54.3289 109.213V116.683C54.3289 118.34 52.9857 119.683 51.3289 119.683H49.1461" stroke="#6F6F6F" stroke-width="2" stroke-linecap="round"/>
<path fill-rule="evenodd" clip-rule="evenodd" d="M73.0967 95.7398C65.9204 91.3232 59.2444 86.1252 53.1881 80.2387C48.9303 75.9995 45.1111 70.8314 43.1343 65.1304C39.5771 54.0711 41.2661 40.3327 53.188 37.6634C64.3026 35.1749 71.1535 43.375 73.8739 49.9419C76.6206 43.375 83.5007 35.1744 94.5897 37.6634C106.218 41.4103 108.196 54.0711 104.639 65.1304C102.662 70.8314 98.8475 75.9995 94.5897 80.2387C88.5334 86.1252 81.8574 91.3232 74.681 95.7398L73.9038 96.2233L73.0967 95.7398Z" fill="white"/>
<path fill-rule="evenodd" clip-rule="evenodd" d="M74.6889 94.7354C67.8573 90.3946 61.502 85.2857 55.7367 79.5002C51.6835 75.3338 48.0477 70.2544 46.1659 64.6512C42.7796 53.7817 44.3874 40.2791 55.7366 37.6556C66.3173 35.2098 72.839 43.2691 75.4288 49.7233C78.0435 43.2691 84.593 35.2093 95.1494 37.6556C106.219 41.3382 108.102 53.7817 104.716 64.6512C102.834 70.2544 99.2026 75.3338 95.1493 79.5002C89.384 85.2857 83.0287 90.3946 76.1971 94.7354L75.4573 95.2106L74.6889 94.7354Z" fill="#FFE371"/>
<path d="M41.5334 51.207C41.263 52.9807 41.1822 54.8329 41.2706 56.707C41.4125 59.7163 41.9903 62.7817 42.9187 65.6681C44.9335 71.479 48.8263 76.7466 53.1661 81.0674C59.339 87.0673 66.1436 92.3654 73.4581 96.8671L74.2808 97.3599L75.0729 96.8671C82.3875 92.3654 89.1921 87.0673 95.365 81.0674C99.7048 76.7466 103.593 71.479 105.608 65.6681C106.646 62.4402 107.222 59.0784 107.236 55.8345C107.248 53.1655 106.88 50.5763 106.078 48.207C104.449 43.3997 101.031 39.4979 95.365 37.6722C84.0624 35.1352 77.0499 43.4938 74.2503 50.1871C71.4775 43.4938 64.4946 35.1358 53.166 37.6722C49.3175 38.5339 46.5152 40.5272 44.5976 43.207" stroke="#6F6F6F" stroke-width="2" stroke-linecap="round" stroke-linejoin="round"/>
<path d="M89.5874 47.7331C95.1598 47.0368 98.6425 52.6088 97.946 57.4848" stroke="#6F6F6F" stroke-width="2" stroke-linecap="round" stroke-linejoin="round"/>
</svg>
