<svg width="140" height="140" viewBox="0 0 140 140" fill="none" xmlns="http://www.w3.org/2000/svg">
<path d="M16.7309 101.104L16.2259 100.075C15.4955 98.5882 16.109 96.7905 17.5962 96.0601L24.9601 92.4436C26.4473 91.7132 28.245 92.3267 28.9754 93.8139L34.9627 106.005L36.7901 109.726L38.6176 113.447L40.95 118.196C41.6804 119.683 41.0668 121.481 39.5797 122.211L32.2158 125.828C30.7286 126.558 28.9309 125.945 28.2005 124.458L22.2132 112.267L20.3858 108.546" stroke="#6F6F6F" stroke-width="2" stroke-linecap="round"/>
<path d="M40.4947 116.354L45.8109 114.936C46.2166 114.827 46.6344 114.771 47.0543 114.767L94.8438 114.334C96.1169 114.323 97.3377 113.826 98.2571 112.945L130.435 82.1246C132.309 80.33 132.445 77.381 130.744 75.4216V75.4216C129.123 73.5534 126.358 73.1992 124.318 74.5983L111.21 83.5879L102.866 89.3105M57.4712 97.5636L87.5865 99.7147C90.4808 99.9214 92.9427 97.6291 92.9427 94.7274V93.2168C92.9427 90.6681 91.0257 88.5273 88.4925 88.2471L54.0621 84.4381C53.149 84.3371 52.2257 84.4896 51.3936 84.8788L41.177 89.6584L35.4325 92.3458" stroke="#6F6F6F" stroke-width="2" stroke-linecap="round"/>
<circle cx="58.6698" cy="41.218" r="19.4328" stroke="#6F6F6F" stroke-width="2"/>
<circle cx="59.539" cy="42.139" r="17.4417" fill="#FFE371"/>
<circle cx="74.5506" cy="53.6067" r="21.845" fill="white"/>
<circle cx="76.2661" cy="55.3227" r="20.1293" fill="#FFEEBA"/>
<path d="M56.2972 41.6015C54.0268 45.0465 52.7056 49.1723 52.7056 53.6067C52.7056 65.6714 62.4859 75.4518 74.5506 75.4518C86.6153 75.4518 96.3956 65.6714 96.3956 53.6067C96.3956 41.5421 86.6153 31.7617 74.5506 31.7617C72.6472 31.7617 70.8007 32.0051 69.0405 32.4626" stroke="#6F6F6F" stroke-width="2" stroke-linecap="round"/>
<path d="M74.5995 38.8672C74.8875 38.8672 75.1395 38.9512 75.3555 39.1192C75.5715 39.2632 75.6795 39.5032 75.6795 39.8392V41.2072C78.0075 41.3512 79.9515 41.8792 81.5115 42.7912C81.9195 43.0072 82.1595 43.3192 82.2315 43.7272C82.3035 44.1352 82.2435 44.5192 82.0515 44.8792C81.8595 45.2632 81.5955 45.5152 81.2595 45.6352C80.9235 45.7312 80.5635 45.6832 80.1795 45.4912C79.4835 45.1072 78.7635 44.8072 78.0195 44.5912C77.2995 44.3752 76.5195 44.2432 75.6795 44.1952V52.2952C77.2635 52.7032 78.5595 53.1352 79.5675 53.5912C80.5995 54.0472 81.4035 54.5512 81.9795 55.1032C82.5795 55.6552 82.9875 56.2792 83.2035 56.9752C83.4195 57.6472 83.5275 58.4272 83.5275 59.3152V59.6392C83.5275 60.7912 83.3355 61.7872 82.9515 62.6272C82.5675 63.4432 82.0275 64.1272 81.3315 64.6792C80.6355 65.2312 79.8075 65.6512 78.8475 65.9392C77.8875 66.2272 76.8315 66.4072 75.6795 66.4792V68.2792C75.6795 68.6152 75.5715 68.8552 75.3555 68.9992C75.1395 69.1672 74.8875 69.2512 74.5995 69.2512C74.2875 69.2512 74.0235 69.1672 73.8075 68.9992C73.5915 68.8552 73.4835 68.6152 73.4835 68.2792V66.4792C72.1875 66.4072 70.9035 66.1912 69.6315 65.8312C68.3835 65.4712 67.2795 64.9912 66.3195 64.3912C65.9115 64.1272 65.6715 63.7912 65.5995 63.3832C65.5275 62.9512 65.6115 62.5432 65.8515 62.1592C66.4275 61.3192 67.1355 61.1512 67.9755 61.6552C69.6555 62.7112 71.4915 63.3232 73.4835 63.4912V61.3672V59.2432V57.1192V54.9952C72.3795 54.7552 71.3595 54.4672 70.4235 54.1312C69.5115 53.7712 68.7195 53.3272 68.0475 52.7992C67.3755 52.2712 66.8475 51.6232 66.4635 50.8552C66.1035 50.0872 65.9235 49.1512 65.9235 48.0472V47.5432C65.9235 46.7992 66.0555 46.0792 66.3195 45.3832C66.6075 44.6632 67.0515 44.0152 67.6515 43.4392C68.2755 42.8632 69.0675 42.3832 70.0275 41.9992C70.9875 41.5912 72.1395 41.3392 73.4835 41.2432V39.8392C73.4835 39.5032 73.5915 39.2632 73.8075 39.1192C74.0235 38.9512 74.2875 38.8672 74.5995 38.8672ZM73.4835 44.2312C72.0915 44.3512 71.0475 44.7112 70.3515 45.3112C69.6795 45.8872 69.3435 46.6072 69.3435 47.4712V47.9032C69.3435 48.4552 69.4035 48.9232 69.5235 49.3072C69.6675 49.6912 69.8955 50.0272 70.2075 50.3152C70.5195 50.6032 70.9395 50.8672 71.4675 51.1072C72.0195 51.3232 72.6915 51.5392 73.4835 51.7552V44.2312ZM75.6795 63.4912C77.1915 63.3472 78.2955 62.9392 78.9915 62.2672C79.6875 61.5712 80.0355 60.7672 80.0355 59.8552V59.5672C80.0355 59.0872 79.9875 58.6552 79.8915 58.2712C79.7955 57.8872 79.5915 57.5392 79.2795 57.2272C78.9675 56.8912 78.5235 56.5912 77.9475 56.3272C77.3955 56.0632 76.6395 55.7992 75.6795 55.5352V57.5242V59.5132V63.4912Z" fill="#6F6F6F"/>
<circle r="1.07058" transform="matrix(-1 0 0 1 58.8468 38.6155)" fill="#6F6F6F"/>
</svg>
