<svg width="160" height="160" viewBox="0 0 160 160" fill="none" xmlns="http://www.w3.org/2000/svg">
<circle cx="80.0007" cy="79.9992" r="37.1321" fill="white"/>
<circle cx="80.0002" cy="79.9993" r="37.1321" fill="white"/>
<circle cx="81.8347" cy="78.1651" r="35.2979" fill="#FFEEBA"/>
<path d="M80 48L80 51" stroke="#6F6F6F" stroke-width="2" stroke-linecap="round"/>
<path d="M80 109L80 112" stroke="#6F6F6F" stroke-width="2" stroke-linecap="round"/>
<path d="M112 80L109 80" stroke="#6F6F6F" stroke-width="2" stroke-linecap="round"/>
<path d="M51 80H48" stroke="#6F6F6F" stroke-width="2" stroke-linecap="round"/>
<path d="M64.151 46.41C68.9578 44.1379 74.3307 42.8672 80.0003 42.8672C100.508 42.8672 117.132 59.4918 117.132 79.9993C117.132 100.507 100.508 117.131 80.0003 117.131C59.4928 117.131 42.8682 100.507 42.8682 79.9993C42.8682 72.2605 45.2356 65.0746 49.2857 59.1264" stroke="#6F6F6F" stroke-width="2" stroke-linecap="round"/>
<path d="M93.04 100.205L80.0005 80.3395L85.5513 68.5742" stroke="#6F6F6F" stroke-width="2" stroke-linecap="round" stroke-linejoin="round"/>
<circle cx="60" cy="49" r="1" fill="#6F6F6F"/>
</svg>
