<svg width="172" height="142" viewBox="0 0 172 142" fill="none" xmlns="http://www.w3.org/2000/svg">
<path fill-rule="evenodd" clip-rule="evenodd" d="M102.42 54.5068H81.6305C83.4752 50.6196 87.4362 47.9316 92.025 47.9316C96.6139 47.9316 100.575 50.6196 102.42 54.5068Z" fill="#FFEEBA"/>
<path fill-rule="evenodd" clip-rule="evenodd" d="M82.2856 53.229C82.6882 51.8715 82.9044 50.4338 82.9044 48.9456C82.9044 40.6407 76.1719 33.9082 67.867 33.9082C59.5621 33.9082 52.8296 40.6407 52.8296 48.9456C52.8296 50.4338 53.0458 51.8715 53.4484 53.229H82.2856Z" fill="#FFE371"/>
<mask id="path-3-inside-1_2006:4911" fill="white">
<path fill-rule="evenodd" clip-rule="evenodd" d="M103.524 54.8801H81.1112C82.2856 50.0898 86.8571 46.5176 92.3177 46.5176C97.7782 46.5176 102.35 50.0898 103.524 54.8801Z"/>
</mask>
<path d="M81.1112 54.8801L79.1687 54.4039L78.5617 56.8801H81.1112V54.8801ZM103.524 54.8801V56.8801H106.074L105.467 54.4039L103.524 54.8801ZM81.1112 56.8801H103.524V52.8801H81.1112V56.8801ZM83.0537 55.3563C83.9947 51.5179 87.718 48.5176 92.3177 48.5176V44.5176C85.9963 44.5176 80.5765 48.6616 79.1687 54.4039L83.0537 55.3563ZM92.3177 48.5176C96.9174 48.5176 100.641 51.5179 101.582 55.3563L105.467 54.4039C104.059 48.6616 98.6391 44.5176 92.3177 44.5176V48.5176Z" fill="#6F6F6F" mask="url(#path-3-inside-1_2006:4911)"/>
<mask id="path-5-inside-2_2006:4911" fill="white">
</mask>
<path d="M81.3268 52.9446C81.1698 53.4741 81.4717 54.0307 82.0012 54.1877C82.5307 54.3448 83.0872 54.0429 83.2443 53.5134L81.3268 52.9446ZM52.4897 53.5134C52.6468 54.0429 53.2033 54.3448 53.7328 54.1877C54.2623 54.0307 54.5642 53.4741 54.4072 52.9446L52.4897 53.5134ZM75.23 36.9918C75.6999 37.2819 76.3161 37.1361 76.6062 36.6662C76.8963 36.1962 76.7506 35.5801 76.2806 35.29L75.23 36.9918ZM82.9889 43.5922C82.8046 43.0716 82.2331 42.7989 81.7125 42.9832C81.1918 43.1676 80.9192 43.739 81.1035 44.2596L82.9889 43.5922ZM81.9044 48.9456C81.9044 50.3365 81.7024 51.6784 81.3268 52.9446L83.2443 53.5134C83.674 52.0645 83.9044 50.5311 83.9044 48.9456H81.9044ZM54.4072 52.9446C54.0316 51.6784 53.8296 50.3365 53.8296 48.9456H51.8296C51.8296 50.5311 52.06 52.0645 52.4897 53.5134L54.4072 52.9446ZM53.8296 48.9456C53.8296 41.193 60.1144 34.9082 67.867 34.9082V32.9082C59.0098 32.9082 51.8296 40.0884 51.8296 48.9456H53.8296ZM67.867 34.9082C70.5691 34.9082 73.0901 35.6707 75.23 36.9918L76.2806 35.29C73.8341 33.7796 70.9508 32.9082 67.867 32.9082V34.9082ZM81.1035 44.2596C81.6219 45.7238 81.9044 47.3006 81.9044 48.9456H83.9044C83.9044 47.0701 83.582 45.2677 82.9889 43.5922L81.1035 44.2596Z" fill="#6F6F6F" mask="url(#path-5-inside-2_2006:4911)"/>
<path d="M101.081 135C101.633 135 102.081 134.552 102.081 134C102.081 133.448 101.633 133 101.081 133L101.081 135ZM46.1107 94L45.1118 94.0475L46.1107 94ZM45.6352 84L44.6363 84.0475L45.6352 84ZM44.6842 64L45.6831 63.9525L44.6842 64ZM43.9231 69.0475C43.9493 69.5992 44.4178 70.0251 44.9695 69.9989C45.5211 69.9726 45.9471 69.5042 45.9209 68.9525L43.9231 69.0475ZM46.5152 81.4525C46.489 80.9008 46.0205 80.4749 45.4689 80.5011C44.9172 80.5274 44.4912 80.9958 44.5175 81.5475L46.5152 81.4525ZM105.307 94L104.308 93.9525L105.307 94ZM104.356 114L103.357 113.953L104.356 114ZM102.881 123.953C102.855 124.504 103.281 124.973 103.833 124.999C104.384 125.025 104.853 124.599 104.879 124.047L102.881 123.953ZM104.831 104L105.83 104.048L104.831 104ZM104.118 119L105.117 119.047L104.118 119ZM104.594 109L105.592 109.048L104.594 109ZM107.059 57.1425L108.058 57.19L107.059 57.1425ZM44.3582 57.1425L45.357 57.095L44.3582 57.1425ZM47.8768 131.142L48.8757 131.095L47.8768 131.142ZM101.081 133L50.8734 133L50.8734 135L101.081 135L101.081 133ZM47.3548 55L104.063 55L104.063 53L47.3548 53L47.3548 55ZM48.8757 131.095L47.1096 93.9525L45.1118 94.0475L46.8779 131.19L48.8757 131.095ZM47.1096 93.9525L46.6341 83.9525L44.6363 84.0475L45.1118 94.0475L47.1096 93.9525ZM45.6831 63.9525L45.357 57.095L43.3593 57.19L43.6854 64.0475L45.6831 63.9525ZM45.9209 68.9525L45.6831 63.9525L43.6854 64.0475L43.9231 69.0475L45.9209 68.9525ZM46.6341 83.9525L46.5152 81.4525L44.5175 81.5475L44.6363 84.0475L46.6341 83.9525ZM106.06 57.095L104.308 93.9525L106.306 94.0475L108.058 57.19L106.06 57.095ZM104.308 93.9525L103.832 103.953L105.83 104.048L106.306 94.0475L104.308 93.9525ZM103.357 113.953L103.119 118.953L105.117 119.047L105.355 114.047L103.357 113.953ZM103.119 118.953L102.881 123.953L104.879 124.047L105.117 119.047L103.119 118.953ZM103.832 103.953L103.595 108.953L105.592 109.048L105.83 104.048L103.832 103.953ZM103.595 108.953L103.357 113.953L105.355 114.047L105.592 109.048L103.595 108.953ZM104.063 55C105.205 55 106.115 55.9544 106.06 57.095L108.058 57.19C108.167 54.9088 106.346 53 104.063 53L104.063 55ZM47.3548 53C45.071 53 43.2508 54.9088 43.3593 57.19L45.357 57.095C45.3028 55.9544 46.2129 55 47.3548 55L47.3548 53ZM50.8734 133C49.8058 133 48.9264 132.161 48.8757 131.095L46.8779 131.19C46.9794 133.323 48.7382 135 50.8734 135L50.8734 133Z" fill="#6F6F6F"/>
<circle cx="45.1412" cy="75.2363" r="1" fill="#6F6F6F"/>
<circle cx="79.823" cy="39.5198" r="1.07058" fill="#6F6F6F"/>
<path d="M75.7087 69.793V118.205" stroke="#6F6F6F" stroke-width="2" stroke-linecap="round"/>
<path d="M91.1365 69.8008L89.9486 118.198" stroke="#6F6F6F" stroke-width="2" stroke-linecap="round"/>
<path d="M60.0242 69.8008L61.212 118.198" stroke="#6F6F6F" stroke-width="2" stroke-linecap="round"/>
<rect x="82.6155" y="11.2285" width="72.0523" height="13.4241" rx="3" transform="rotate(30.965 82.6155 11.2285)" stroke="#6F6F6F" stroke-width="2"/>
<path d="M121.97 35.179V35.179C124.652 30.7099 123.203 24.9131 118.734 22.2315L117.697 21.6094C113.228 18.9278 107.431 20.3768 104.749 24.846V24.846" stroke="#6F6F6F" stroke-width="2"/>
<circle cx="42.394" cy="23.8498" r="7.09589" fill="#FFEEBA"/>
<circle cx="42.3937" cy="23.8498" r="7.09589" stroke="#6F6F6F" stroke-width="2"/>
</svg>
