<svg width="365" height="258" viewBox="0 0 365 258" fill="none" xmlns="http://www.w3.org/2000/svg">
<g clip-path="url(#clip0_2015_3139)">
<path opacity="0.5" d="M27.7988 222.217C16.4924 213.418 7.61741 201.339 2.56308 184.818C-2.67092 167.71 -0.191661 150.543 12.8993 137.889C50.0283 101.974 71.5871 87.6083 78.7733 51.6935C85.9596 15.7787 136.263 -2.17866 159.02 0.21566C181.776 2.60998 211.719 5.0043 248.848 55.285C285.977 105.566 319.513 109.157 330.292 117.537C347.384 130.814 362.319 151.824 364.595 173.696C367.745 203.948 343.874 237.146 317.645 250.207C268.598 274.557 217.504 233.542 166.206 239.648C123.855 244.688 63.5505 249.967 27.7988 222.217Z" fill="#FFEEBA"/>
<path d="M315.644 91.548C317.67 91.548 319.312 89.9034 319.312 87.8746C319.312 85.8458 317.67 84.2012 315.644 84.2012C313.617 84.2012 311.975 85.8458 311.975 87.8746C311.975 89.9034 313.617 91.548 315.644 91.548Z" stroke="#FFE371" stroke-width="2" stroke-miterlimit="10"/>
<path d="M25.2588 83.9914C27.2851 83.9914 28.9277 82.3467 28.9277 80.318C28.9277 78.2892 27.2851 76.6445 25.2588 76.6445C23.2325 76.6445 21.5898 78.2892 21.5898 80.318C21.5898 82.3467 23.2325 83.9914 25.2588 83.9914Z" stroke="#FFE371" stroke-width="2" stroke-miterlimit="10"/>
</g>
<path d="M265.153 73.041H52.4922C46.9774 73.041 42.5068 77.5116 42.5068 83.0264V216.549C42.5068 222.064 46.9774 226.535 52.4922 226.535H265.153C270.668 226.535 275.139 222.064 275.139 216.549V83.0264C275.139 77.5116 270.668 73.041 265.153 73.041Z" fill="white"/>
<rect x="105.117" y="168.037" width="112.268" height="25.9079" rx="7" fill="#FFEEBA"/>
<path d="M42.5068 83.041C42.5068 77.5182 46.984 73.041 52.5068 73.041H264.599C270.122 73.041 274.599 77.5182 274.599 83.041V101.108H42.5068V83.041Z" fill="#FFE371"/>
<path d="M58 101L222 101L58 101Z" fill="white"/>
<path d="M58 101L222 101" stroke="#6F6F6F" stroke-width="2" stroke-linecap="round" stroke-linejoin="round"/>
<path d="M230.997 100.797H229H230.997Z" fill="white"/>
<path d="M230.997 100.797H229" stroke="#6F6F6F" stroke-width="2" stroke-linecap="round" stroke-linejoin="round"/>
<path d="M238.209 100.795H274.664H238.209Z" fill="white"/>
<path d="M238.209 100.795H274.664" stroke="#6F6F6F" stroke-width="2" stroke-linecap="round" stroke-linejoin="round"/>
<path d="M208.285 169.873C210.126 169.873 211.891 170.604 213.193 171.906C214.495 173.208 215.226 174.973 215.226 176.814V189.261C215.226 191.102 214.495 192.867 213.193 194.169C211.891 195.471 210.126 196.202 208.285 196.202H115.912" stroke="#6F6F6F" stroke-width="2" stroke-linecap="round" stroke-linejoin="round"/>
<path d="M109.899 196.526C108.058 196.526 106.293 195.795 104.991 194.493C103.689 193.191 102.958 191.426 102.958 189.585V177.138C102.958 175.298 103.689 173.532 104.991 172.23C106.293 170.929 108.058 170.197 109.899 170.197H204.679" stroke="#6F6F6F" stroke-width="2" stroke-linecap="round" stroke-linejoin="round"/>
<path d="M223.776 190.448L231.516 207.72C231.626 207.983 231.811 208.207 232.049 208.364C232.286 208.522 232.564 208.606 232.849 208.606C233.133 208.606 233.412 208.522 233.649 208.364C233.886 208.207 234.071 207.983 234.182 207.72L236.73 201.61C236.811 201.419 236.932 201.247 237.085 201.106C237.237 200.964 237.418 200.857 237.615 200.79L243.196 198.933C243.476 198.84 243.721 198.664 243.899 198.428C244.077 198.193 244.179 197.909 244.192 197.614C244.205 197.319 244.128 197.027 243.971 196.777C243.814 196.527 243.585 196.33 243.315 196.213L225.686 188.57C225.422 188.462 225.132 188.433 224.853 188.488C224.573 188.543 224.315 188.679 224.111 188.879C223.908 189.079 223.768 189.334 223.708 189.613C223.648 189.892 223.672 190.183 223.776 190.448Z" fill="#FFE371"/>
<path d="M221.616 191.528L229.356 208.8C229.467 209.063 229.652 209.287 229.889 209.444C230.127 209.602 230.405 209.686 230.69 209.686C230.974 209.686 231.253 209.602 231.49 209.444C231.727 209.287 231.912 209.063 232.023 208.8L234.57 202.69C234.652 202.499 234.773 202.327 234.925 202.186C235.078 202.044 235.259 201.937 235.456 201.87L241.037 200.013C241.317 199.92 241.562 199.744 241.74 199.509C241.918 199.273 242.02 198.989 242.033 198.694C242.045 198.399 241.968 198.107 241.812 197.857C241.655 197.607 241.426 197.41 241.155 197.293L223.527 189.65C223.263 189.542 222.973 189.513 222.693 189.568C222.413 189.623 222.156 189.759 221.952 189.959C221.749 190.159 221.609 190.414 221.549 190.693C221.489 190.972 221.513 191.263 221.616 191.528V191.528Z" stroke="#6F6F6F" stroke-width="2" stroke-linecap="round" stroke-linejoin="round"/>
<path d="M237.475 207.85L242.419 212.297" stroke="#6F6F6F" stroke-width="2" stroke-linecap="round" stroke-linejoin="round"/>
<path d="M240.95 204.859L248.41 211.563" stroke="#6F6F6F" stroke-width="2" stroke-linecap="round" stroke-linejoin="round"/>
<path d="M136.396 177.429C136.778 177.429 137.038 177.498 137.176 177.637C137.324 177.775 137.397 178.031 137.397 178.404V183.656C137.397 184.028 137.324 184.284 137.176 184.423C137.038 184.561 136.778 184.631 136.396 184.631H133.575C133.194 184.631 132.93 184.561 132.782 184.423C132.644 184.284 132.574 184.028 132.574 183.656V178.404C132.574 178.031 132.644 177.775 132.782 177.637C132.93 177.498 133.194 177.429 133.575 177.429H136.396ZM134.056 178.547C133.874 178.547 133.783 178.633 133.783 178.807V183.253C133.783 183.426 133.874 183.513 134.056 183.513H135.915C136.097 183.513 136.188 183.426 136.188 183.253V178.807C136.188 178.633 136.097 178.547 135.915 178.547H134.056ZM141.843 176.48C141.999 176.48 142.138 176.523 142.259 176.61C142.389 176.688 142.454 176.813 142.454 176.987V187.205C142.454 187.378 142.389 187.504 142.259 187.582C142.138 187.668 141.999 187.712 141.843 187.712C141.696 187.712 141.557 187.668 141.427 187.582C141.306 187.504 141.245 187.378 141.245 187.205V181.576H139.854V186.659C139.854 186.832 139.789 186.958 139.659 187.036C139.538 187.122 139.399 187.166 139.243 187.166C139.096 187.166 138.957 187.122 138.827 187.036C138.706 186.958 138.645 186.832 138.645 186.659V177.117C138.645 176.943 138.706 176.818 138.827 176.74C138.957 176.653 139.096 176.61 139.243 176.61C139.399 176.61 139.538 176.653 139.659 176.74C139.789 176.818 139.854 176.943 139.854 177.117V180.471H141.245V176.987C141.245 176.813 141.306 176.688 141.427 176.61C141.557 176.523 141.696 176.48 141.843 176.48ZM150.386 176.35C150.56 176.35 150.711 176.393 150.841 176.48C150.971 176.566 151.036 176.705 151.036 176.896V177.858H153.233C153.389 177.858 153.502 177.914 153.571 178.027C153.649 178.139 153.688 178.269 153.688 178.417C153.688 178.564 153.649 178.694 153.571 178.807C153.502 178.911 153.389 178.963 153.233 178.963H151.036V179.483C151.036 179.873 151.101 180.193 151.231 180.445C151.361 180.687 151.574 180.921 151.868 181.147C152.484 181.589 153.004 181.944 153.428 182.213C153.576 182.308 153.658 182.434 153.675 182.59C153.701 182.746 153.667 182.889 153.571 183.019C153.502 183.131 153.394 183.214 153.246 183.266C153.099 183.309 152.943 183.283 152.778 183.188C152.614 183.084 152.41 182.954 152.167 182.798C151.933 182.633 151.682 182.451 151.413 182.252C151.075 182 150.828 181.797 150.672 181.641C150.525 181.476 150.438 181.329 150.412 181.199H150.399C150.365 181.346 150.269 181.506 150.113 181.68C149.957 181.853 149.706 182.065 149.359 182.317C149.082 182.516 148.813 182.707 148.553 182.889C148.293 183.062 148.029 183.235 147.76 183.409C147.613 183.504 147.466 183.526 147.318 183.474C147.171 183.413 147.063 183.322 146.993 183.201C146.907 183.079 146.868 182.941 146.876 182.785C146.885 182.629 146.967 182.503 147.123 182.408C147.427 182.208 147.721 182.013 148.007 181.823C148.293 181.623 148.592 181.407 148.904 181.173C149.199 180.956 149.411 180.726 149.541 180.484C149.671 180.232 149.736 179.907 149.736 179.509V178.963H147.448C147.284 178.963 147.162 178.911 147.084 178.807C147.015 178.694 146.98 178.564 146.98 178.417C146.98 178.269 147.015 178.139 147.084 178.027C147.162 177.914 147.284 177.858 147.448 177.858H149.736V176.896C149.736 176.705 149.801 176.566 149.931 176.48C150.07 176.393 150.222 176.35 150.386 176.35ZM155.664 176.48C155.838 176.48 155.989 176.523 156.119 176.61C156.249 176.696 156.314 176.835 156.314 177.026V183.331C156.314 183.513 156.249 183.647 156.119 183.734C155.989 183.82 155.838 183.864 155.664 183.864C155.491 183.864 155.339 183.82 155.209 183.734C155.079 183.647 155.014 183.513 155.014 183.331V177.026C155.014 176.835 155.079 176.696 155.209 176.61C155.339 176.523 155.491 176.48 155.664 176.48ZM152.596 183.981C153.801 183.981 154.733 184.176 155.391 184.566C156.05 184.956 156.379 185.536 156.379 186.308C156.379 187.088 156.05 187.668 155.391 188.05C154.733 188.44 153.801 188.635 152.596 188.635C151.392 188.635 150.46 188.44 149.801 188.05C149.143 187.668 148.813 187.088 148.813 186.308C148.813 185.528 149.143 184.947 149.801 184.566C150.46 184.176 151.392 183.981 152.596 183.981ZM152.596 185.034C151.712 185.034 151.075 185.146 150.685 185.372C150.295 185.597 150.1 185.909 150.1 186.308C150.1 186.706 150.295 187.018 150.685 187.244C151.075 187.469 151.712 187.582 152.596 187.582C153.472 187.582 154.104 187.469 154.494 187.244C154.893 187.018 155.092 186.706 155.092 186.308C155.092 185.909 154.893 185.597 154.494 185.372C154.104 185.146 153.472 185.034 152.596 185.034ZM164.48 176.857C164.983 176.857 165.425 176.917 165.806 177.039C166.188 177.151 166.504 177.312 166.755 177.52C167.007 177.728 167.193 177.975 167.314 178.261C167.444 178.547 167.509 178.863 167.509 179.21C167.509 179.548 167.444 179.86 167.314 180.146C167.193 180.432 167.007 180.679 166.755 180.887C166.504 181.095 166.188 181.259 165.806 181.381C165.425 181.493 164.983 181.55 164.48 181.55C163.969 181.55 163.523 181.493 163.141 181.381C162.769 181.259 162.457 181.095 162.205 180.887C161.954 180.679 161.763 180.432 161.633 180.146C161.512 179.86 161.451 179.548 161.451 179.21C161.451 178.863 161.512 178.547 161.633 178.261C161.763 177.975 161.954 177.728 162.205 177.52C162.457 177.312 162.769 177.151 163.141 177.039C163.523 176.917 163.969 176.857 164.48 176.857ZM164.48 177.936C163.856 177.936 163.401 178.057 163.115 178.3C162.829 178.534 162.686 178.837 162.686 179.21C162.686 179.582 162.829 179.89 163.115 180.133C163.401 180.367 163.856 180.484 164.48 180.484C165.104 180.484 165.559 180.367 165.845 180.133C166.131 179.89 166.274 179.582 166.274 179.21C166.274 178.837 166.131 178.534 165.845 178.3C165.559 178.057 165.104 177.936 164.48 177.936ZM169.563 176.48C169.737 176.48 169.888 176.523 170.018 176.61C170.148 176.696 170.213 176.831 170.213 177.013V180.159H171.474C171.648 180.159 171.769 180.215 171.838 180.328C171.916 180.44 171.955 180.575 171.955 180.731C171.955 180.887 171.916 181.021 171.838 181.134C171.769 181.246 171.648 181.303 171.474 181.303H170.213V184.995C170.213 185.177 170.148 185.311 170.018 185.398C169.888 185.484 169.737 185.528 169.563 185.528C169.399 185.528 169.251 185.484 169.121 185.398C168.991 185.311 168.926 185.177 168.926 184.995V177.013C168.926 176.831 168.991 176.696 169.121 176.61C169.251 176.523 169.399 176.48 169.563 176.48ZM167.769 182.629C167.917 182.611 168.029 182.65 168.107 182.746C168.185 182.841 168.233 182.967 168.25 183.123C168.268 183.27 168.242 183.4 168.172 183.513C168.112 183.625 168.008 183.69 167.86 183.708C166.864 183.794 165.802 183.855 164.675 183.89C163.549 183.924 162.383 183.942 161.178 183.942C161.022 183.942 160.905 183.89 160.827 183.786C160.758 183.673 160.723 183.543 160.723 183.396C160.723 183.248 160.758 183.123 160.827 183.019C160.905 182.906 161.022 182.85 161.178 182.85C161.62 182.85 162.062 182.85 162.504 182.85C162.946 182.85 163.397 182.845 163.856 182.837V180.757H165.13V182.798C165.564 182.78 165.997 182.759 166.43 182.733C166.872 182.707 167.319 182.672 167.769 182.629ZM163.141 184.67C163.306 184.67 163.453 184.713 163.583 184.8C163.722 184.886 163.791 185.025 163.791 185.216V186.958C163.791 187.053 163.809 187.122 163.843 187.166C163.887 187.209 163.96 187.231 164.064 187.231H170.07C170.226 187.231 170.339 187.283 170.408 187.387C170.486 187.499 170.525 187.629 170.525 187.777C170.525 187.924 170.486 188.054 170.408 188.167C170.339 188.279 170.226 188.336 170.07 188.336H163.479C163.098 188.336 162.834 188.266 162.686 188.128C162.548 187.989 162.478 187.733 162.478 187.361V185.216C162.478 185.025 162.543 184.886 162.673 184.8C162.812 184.713 162.968 184.67 163.141 184.67ZM183.371 177.156C183.753 177.156 184.013 177.225 184.151 177.364C184.299 177.502 184.372 177.758 184.372 178.131V179.834C184.372 180.198 184.299 180.449 184.151 180.588C184.013 180.726 183.753 180.796 183.371 180.796H178.054C177.872 180.796 177.781 180.887 177.781 181.069V182.018C177.781 182.191 177.872 182.278 178.054 182.278H184.203C184.359 182.278 184.472 182.334 184.541 182.447C184.619 182.559 184.658 182.689 184.658 182.837C184.658 182.984 184.619 183.114 184.541 183.227C184.472 183.331 184.359 183.383 184.203 183.383H177.508C177.127 183.383 176.863 183.313 176.715 183.175C176.577 183.036 176.507 182.78 176.507 182.408V180.705C176.507 180.332 176.577 180.081 176.715 179.951C176.863 179.812 177.127 179.743 177.508 179.743H182.825C183.007 179.743 183.098 179.652 183.098 179.47V178.534C183.098 178.352 183.007 178.261 182.825 178.261H176.936C176.78 178.261 176.663 178.209 176.585 178.105C176.516 177.992 176.481 177.862 176.481 177.715C176.481 177.567 176.516 177.437 176.585 177.325C176.663 177.212 176.78 177.156 176.936 177.156H183.371ZM179.393 185.489H181.551V182.85H182.773V185.489H185.451C185.607 185.489 185.72 185.541 185.789 185.645C185.867 185.749 185.906 185.874 185.906 186.022C185.906 186.169 185.867 186.299 185.789 186.412C185.72 186.524 185.607 186.581 185.451 186.581H175.441C175.285 186.581 175.168 186.524 175.09 186.412C175.021 186.299 174.986 186.169 174.986 186.022C174.986 185.874 175.021 185.749 175.09 185.645C175.168 185.541 175.285 185.489 175.441 185.489H178.171V182.85H179.393V185.489Z" fill="#6F6F6F"/>
<path d="M42.5059 194.501V216.551C42.5059 222.066 46.9765 226.537 52.4912 226.537H265.152C270.667 226.537 275.138 222.066 275.138 216.551V83.0283C275.138 77.5136 270.667 73.043 265.152 73.043H52.4912C46.9765 73.043 42.5059 77.5136 42.5059 83.0283V187.001" stroke="#6F6F6F" stroke-width="2" stroke-linecap="round" stroke-linejoin="round"/>
<rect x="141.82" y="121.619" width="53.9749" height="3.02259" rx="1.5113" fill="#C4C4C4" fill-opacity="0.5"/>
<rect x="141.82" y="131.119" width="53.9749" height="3.02259" rx="1.5113" fill="#C4C4C4" fill-opacity="0.5"/>
<rect x="141.82" y="140.617" width="53.9749" height="3.02259" rx="1.5113" fill="#C4C4C4" fill-opacity="0.5"/>
<rect x="201.192" y="121.619" width="53.9749" height="3.02259" rx="1.5113" fill="#C4C4C4" fill-opacity="0.5"/>
<rect x="201.192" y="131.119" width="53.9749" height="3.02259" rx="1.5113" fill="#C4C4C4" fill-opacity="0.5"/>
<rect x="201.192" y="140.617" width="53.9749" height="3.02259" rx="1.5113" fill="#C4C4C4" fill-opacity="0.5"/>
<rect x="65.1758" y="119.461" width="64.7699" height="29.1464" rx="5" fill="#C4C4C4" fill-opacity="0.3"/>
<ellipse cx="86.2257" cy="131.335" rx="1.61925" ry="2.159" fill="#6F6F6F"/>
<ellipse cx="107.816" cy="131.335" rx="1.61925" ry="2.159" fill="#6F6F6F"/>
<circle cx="97.021" cy="134.033" r="2.69874" fill="#6F6F6F"/>
<circle r="1" transform="matrix(1 0 0 -1 97 145)" fill="#6F6F6F"/>
<path d="M97.0215 134.191V141.748" stroke="#6F6F6F" stroke-width="2" stroke-linecap="round"/>
<path d="M41.1221 26.6914H50.0628" stroke="#FFE371" stroke-width="2" stroke-miterlimit="10" stroke-linecap="round"/>
<path d="M45.8125 22V30.9517" stroke="#FFE371" stroke-width="2" stroke-miterlimit="10" stroke-linecap="round"/>
<defs>
<clipPath id="clip0_2015_3139">
<rect width="364.87" height="258" fill="white"/>
</clipPath>
</defs>
</svg>
