<svg width="173" height="142" viewBox="0 0 173 142" fill="none" xmlns="http://www.w3.org/2000/svg">
<path d="M152.008 71C152.008 107.451 122.459 137 86.0078 137C49.557 137 20.0078 107.451 20.0078 71C20.0078 34.5492 49.557 5 86.0078 5C122.459 5 152.008 34.5492 152.008 71Z" fill="#FFFCF1"/>
<path d="M127.008 71C127.008 93.6437 108.651 112 86.0078 112C63.3641 112 45.0078 93.6437 45.0078 71C45.0078 48.3563 63.3641 30 86.0078 30C108.651 30 127.008 48.3563 127.008 71Z" fill="#F8D05F"/>
<circle cx="164.008" cy="82" r="3" fill="#FFE371"/>
<circle cx="6.50781" cy="66.5" r="1.5" fill="#FFE371"/>
<circle cx="41.0078" cy="40" r="5" fill="#FFE371"/>
<circle cx="27.0078" cy="91" r="4.45647" stroke="#FFEEBA" stroke-width="3.08707"/>
<circle cx="149.008" cy="53" r="5.45647" stroke="#FFEEBA" stroke-width="3.08707"/>
<path d="M60.0078 71.3333L77.798 90L108.008 55" stroke="white" stroke-width="6" stroke-linecap="round" stroke-linejoin="round"/>
</svg>
