<svg width="160" height="160" viewBox="0 0 160 160" fill="none" xmlns="http://www.w3.org/2000/svg">
<path fill-rule="evenodd" clip-rule="evenodd" d="M88.9405 109.68C81.9168 105.358 75.3828 100.27 69.4553 94.509C65.2881 90.3599 61.5501 85.3018 59.6154 79.722C56.1338 68.8979 57.7869 55.4518 69.4552 52.8393C80.3334 50.4037 87.0386 58.4293 89.7012 64.8565C92.3894 58.4293 99.1231 50.4031 109.976 52.8393C121.357 56.5064 123.294 68.8979 119.812 79.722C117.877 85.3018 114.144 90.3599 109.976 94.509C104.049 100.27 97.5148 105.358 90.4911 109.68L89.7304 110.154L88.9405 109.68Z" fill="#FFEEBA"/>
<path d="M102.529 102.229C99.1061 104.902 95.5366 107.383 91.8365 109.66L91.0443 110.153L90.2217 109.66C82.9071 105.158 76.1025 99.8602 69.9296 93.8604C65.5898 89.5395 61.6971 84.2719 59.6822 78.4611C56.0565 67.1888 57.778 53.1859 69.9295 50.4652C81.2582 47.9287 88.241 56.2867 91.0139 62.9801C93.8134 56.2867 100.826 47.9282 112.129 50.4652C123.981 54.2842 125.997 67.1888 122.372 78.4611C120.565 83.6713 117.252 88.4448 113.458 92.4906" stroke="#6F6F6F" stroke-width="2" stroke-linecap="round" stroke-linejoin="round"/>
<path fill-rule="evenodd" clip-rule="evenodd" d="M73.2216 116.66C65.907 112.158 59.1024 106.86 52.9296 100.86C48.5897 96.5395 44.697 91.2719 42.6821 85.4611C39.0564 74.1888 40.7779 60.1859 52.9294 57.4652C64.2581 54.9287 71.2409 63.2867 74.0137 69.9801C76.8133 63.2867 83.8259 54.9282 95.1285 57.4652C106.981 61.2842 108.997 74.1888 105.371 85.4611C103.357 91.2719 99.4682 96.5395 95.1284 100.86C88.9556 106.86 82.1509 112.158 74.8364 116.66L74.0442 117.153L73.2216 116.66Z" fill="white"/>
<path fill-rule="evenodd" clip-rule="evenodd" d="M71.672 116.683C64.7092 112.398 58.2318 107.355 52.3558 101.644C48.2247 97.5306 44.5192 92.5163 42.6012 86.9849C39.1499 76.2547 40.7886 62.9252 52.3557 60.3354C63.1395 57.9209 69.7866 65.877 72.426 72.2484C75.091 65.877 81.7663 57.9204 92.5253 60.3354C103.808 63.9707 105.727 76.2547 102.276 86.9849C100.358 92.5163 96.6564 97.5306 92.5253 101.644C86.6493 107.355 80.1719 112.398 73.2091 116.683L72.4551 117.153L71.672 116.683Z" fill="#FFE371"/>
<path d="M41.297 71C41.0265 72.7736 40.9458 74.6259 41.0341 76.5C41.176 79.5092 41.7538 82.5747 42.6822 85.4611C44.6971 91.2719 48.5898 96.5395 52.9296 100.86C59.1025 106.86 65.9071 112.158 73.2217 116.66L74.0443 117.153L74.8365 116.66C82.151 112.158 88.9557 106.86 95.1285 100.86C99.4684 96.5395 103.357 91.2719 105.372 85.4611C106.41 82.2332 106.985 78.8714 107 75.6275C107.012 72.9585 106.644 70.3693 105.841 68C104.213 63.1927 100.794 59.2908 95.1286 57.4652C83.826 54.9282 76.8134 63.2867 74.0139 69.9801C71.241 63.2867 64.2582 54.9287 52.9295 57.4652C49.081 58.3269 46.2787 60.3202 44.3611 63" stroke="#6F6F6F" stroke-width="2" stroke-linecap="round" stroke-linejoin="round"/>
<path d="M89.351 67.5261C94.9233 66.8297 98.4061 72.4018 97.7095 77.2777" stroke="#6F6F6F" stroke-width="2" stroke-linecap="round" stroke-linejoin="round"/>
<circle cx="109" cy="97" r="1" fill="#6F6F6F"/>
</svg>
