<svg width="140" height="140" viewBox="0 0 140 140" fill="none" xmlns="http://www.w3.org/2000/svg">
<circle cx="70" cy="70" r="70" fill="white"/>
<path d="M53.886 93.356H55.302V98.036H53.886V93.356ZM52.41 99.272H56.766V92.108H52.41V99.272ZM60.078 90.968V95.192H59.154V91.148H57.678V101.528H59.154V96.464H60.078V102.02H61.578V90.968H60.078ZM72.3171 90.98H70.7211V97.64H72.3171V90.98ZM70.0371 96.068C68.3091 95.624 67.4931 94.496 67.4211 93.38H69.6411V92.132H67.4211V90.992H65.8371V92.132H63.6051V93.38H65.8371C65.7771 94.604 64.9731 95.816 63.2331 96.308L63.9771 97.544C65.2851 97.172 66.1731 96.38 66.6651 95.36C67.1811 96.272 68.0571 96.968 69.3171 97.304L70.0371 96.068ZM68.5851 100.82C67.1451 100.82 66.3771 100.544 66.3771 99.932C66.3771 99.332 67.1451 99.044 68.5851 99.044C70.0131 99.044 70.7811 99.332 70.7811 99.932C70.7811 100.544 70.0131 100.82 68.5851 100.82ZM68.5851 97.832C66.2451 97.832 64.8051 98.612 64.8051 99.932C64.8051 101.276 66.2451 102.032 68.5851 102.032C70.9131 102.032 72.3531 101.276 72.3531 99.932C72.3531 98.612 70.9131 97.832 68.5851 97.832ZM86.3629 92.132H82.6789V90.968H81.0949V92.132H77.3749V93.368H86.3629V92.132ZM84.0349 95.708C84.0349 96.2 83.3269 96.428 81.8869 96.428C80.4469 96.428 79.7509 96.2 79.7509 95.708C79.7509 95.192 80.4469 94.976 81.8869 94.976C83.3269 94.976 84.0349 95.192 84.0349 95.708ZM78.1069 95.708C78.1069 96.92 79.5229 97.604 81.8869 97.604C84.2509 97.604 85.6789 96.92 85.6789 95.708C85.6789 94.484 84.2509 93.8 81.8869 93.8C79.5229 93.8 78.1069 94.484 78.1069 95.708ZM86.9029 98.132H76.8949V99.404H81.0949V102.044H82.6789V99.404H86.9029V98.132ZM54.4539 111.876C52.7139 111.336 51.9699 110.04 51.9699 108.708V107.58H50.3619V108.576C50.3619 110.076 49.6179 111.552 47.7699 112.164L48.5979 113.412C49.8579 112.968 50.7099 112.116 51.1899 111.036C51.6579 111.972 52.4619 112.716 53.6259 113.1L54.4539 111.876ZM53.0259 116.808C51.6099 116.808 50.8539 116.52 50.8539 115.896C50.8539 115.284 51.6099 114.996 53.0259 114.996C54.4299 114.996 55.1859 115.284 55.1859 115.896C55.1859 116.52 54.4299 116.808 53.0259 116.808ZM53.0259 113.772C50.7219 113.772 49.2819 114.564 49.2819 115.896C49.2819 117.24 50.7219 118.032 53.0259 118.032C55.3179 118.032 56.7579 117.24 56.7579 115.896C56.7579 114.564 55.3179 113.772 53.0259 113.772ZM56.6379 109.548V106.992H55.0539V113.52H56.6379V110.856H58.1019V109.548H56.6379ZM60.8489 112.236H63.5849V111.012H60.8489V109.38H63.8129V108.12H59.3489V115.512H60.1169C61.7729 115.512 62.8649 115.488 64.1369 115.272L63.9929 114C62.9609 114.156 62.0729 114.204 60.8489 114.216V112.236ZM66.9569 106.968V111.252H66.0689V107.148H64.5929V117.54H66.0689V112.524H66.9569V118.032H68.4569V106.968H66.9569ZM77.672 110.088V111.192H75.704V110.088H77.672ZM74.156 112.164H72.056V110.604H74.156V112.164ZM75.704 112.452H77.672V115.14H79.256V106.98H77.672V108.816H75.704V107.712H74.156V109.392H72.056V107.712H70.484V113.424H75.704V112.452ZM73.544 116.58V114.348H71.96V117.84H79.496V116.58H73.544ZM88.7111 109.992V111.012H86.2751V112.284H88.7111V113.34H90.2951V106.98H88.7111V108.732H86.7311C86.7791 108.408 86.8031 108.072 86.8031 107.724H81.7391V108.996H85.0751C84.8711 110.496 83.6591 111.684 81.1391 112.356L81.7511 113.604C84.1871 112.92 85.7351 111.732 86.4191 109.992H88.7111ZM86.6471 116.748C85.2791 116.748 84.4751 116.4 84.4751 115.728C84.4751 115.056 85.2791 114.708 86.6471 114.708C88.0031 114.708 88.8071 115.056 88.8071 115.728C88.8071 116.4 88.0031 116.748 86.6471 116.748ZM86.6471 113.484C84.3911 113.484 82.9151 114.348 82.9151 115.728C82.9151 117.108 84.3911 117.972 86.6471 117.972C88.8911 117.972 90.3671 117.108 90.3671 115.728C90.3671 114.348 88.8911 113.484 86.6471 113.484Z" fill="#6F6F6F"/>
<rect x="25.15" y="47.15" width="89.7" height="21.7" rx="10.85" stroke="#6F6F6F" stroke-width="2.3"/>
<path d="M53.2411 56.1425C53.2411 56.0321 53.3307 55.9425 53.4411 55.9425H54.2318C54.3422 55.9425 54.4318 56.0321 54.4318 56.1425V59.5495C54.4318 59.6599 54.3422 59.7495 54.2318 59.7495H53.4411C53.3307 59.7495 53.2411 59.6599 53.2411 59.5495V56.1425ZM52 60.5549C52 60.6653 52.0895 60.7549 52.2 60.7549H55.4628C55.5733 60.7549 55.6628 60.6653 55.6628 60.5549V55.1273C55.6628 55.0169 55.5733 54.9273 55.4628 54.9273H52.2C52.0895 54.9273 52 55.0169 52 55.1273V60.5549ZM58.6477 54C58.5373 54 58.4477 54.0895 58.4477 54.2V57.236C58.4477 57.3465 58.3582 57.436 58.2477 57.436H57.8708C57.7603 57.436 57.6708 57.3465 57.6708 57.236V54.3464C57.6708 54.236 57.5812 54.1464 57.4708 54.1464H56.6297C56.5192 54.1464 56.4297 54.236 56.4297 54.3464V62.39C56.4297 62.5005 56.5192 62.59 56.6297 62.59H57.4708C57.5812 62.59 57.6708 62.5005 57.6708 62.39V58.6707C57.6708 58.5603 57.7603 58.4707 57.8708 58.4707H58.2477C58.3582 58.4707 58.4477 58.5603 58.4477 58.6707V62.7902C58.4477 62.9007 58.5373 62.9902 58.6477 62.9902H59.509C59.6195 62.9902 59.709 62.9007 59.709 62.7902V54.2C59.709 54.0895 59.6195 54 59.509 54H58.6477Z" fill="#6F6F6F"/>
<path d="M68.7391 54.2098C68.7391 54.0993 68.6496 54.0098 68.5391 54.0098H67.5971C67.4866 54.0098 67.3971 54.0993 67.3971 54.2098V59.2273C67.3971 59.3378 67.4866 59.4273 67.5971 59.4273H68.5391C68.6496 59.4273 68.7391 59.3378 68.7391 59.2273V54.2098ZM66.6823 58.3805C66.7517 58.2653 66.6896 58.1158 66.5613 58.0754C65.3924 57.7074 64.7845 56.9535 64.6478 56.1741C64.6279 56.0602 64.7203 55.962 64.836 55.962H66.289C66.3994 55.962 66.489 55.8725 66.489 55.762V55.1469C66.489 55.0364 66.3994 54.9469 66.289 54.9469H64.8222C64.7118 54.9469 64.6222 54.8573 64.6222 54.7469V54.2195C64.6222 54.1091 64.5327 54.0195 64.4222 54.0195H63.4903C63.3799 54.0195 63.2903 54.1091 63.2903 54.2195V54.7469C63.2903 54.8573 63.2008 54.9469 63.0903 54.9469H61.6135C61.503 54.9469 61.4135 55.0364 61.4135 55.1469V55.762C61.4135 55.8725 61.503 55.962 61.6135 55.962H63.0799C63.1944 55.962 63.2863 56.0581 63.2704 56.1714C63.1495 57.0334 62.5471 57.8574 61.3572 58.265C61.2306 58.3084 61.1717 58.458 61.2424 58.5716L61.6474 59.2225C61.6942 59.2977 61.7852 59.3335 61.8698 59.3072C62.7491 59.0337 63.39 58.5335 63.8036 57.8937C63.8899 57.7603 64.0957 57.7533 64.1915 57.8801C64.614 58.439 65.2374 58.8713 66.0726 59.1145C66.1575 59.1392 66.2478 59.1021 66.2934 59.0263L66.6823 58.3805ZM65.601 62.0141C64.3902 62.0141 63.7444 61.7896 63.7444 61.2918C63.7444 60.8037 64.3902 60.5694 65.601 60.5694C66.8018 60.5694 67.4475 60.8037 67.4475 61.2918C67.4475 61.7896 66.8018 62.0141 65.601 62.0141ZM65.601 59.5835C63.6334 59.5835 62.4225 60.218 62.4225 61.2918C62.4225 62.385 63.6334 63 65.601 63C67.5585 63 68.7694 62.385 68.7694 61.2918C68.7694 60.218 67.5585 59.5835 65.601 59.5835Z" fill="#6F6F6F"/>
<path d="M71.9975 56.1963C71.9975 55.6497 72.4314 55.3373 73.0671 55.3373C73.7028 55.3373 74.1568 55.6497 74.1568 56.1963C74.1568 56.743 73.7028 57.0553 73.0671 57.0553C72.4314 57.0553 71.9975 56.743 71.9975 56.1963ZM75.8708 58.6328C75.8606 58.5183 75.7563 58.4361 75.6423 58.4508C75.1015 58.521 74.5267 58.5626 73.954 58.5956C73.8394 58.6022 73.7431 58.5109 73.7431 58.3962V58.1244C73.7431 58.0303 73.8091 57.9496 73.8998 57.9245C74.8006 57.6753 75.3878 57.0276 75.3878 56.1963C75.3878 55.1226 74.4192 54.3709 73.0671 54.3709C71.7251 54.3709 70.7564 55.1226 70.7564 56.1963C70.7564 57.0363 71.3518 57.6842 72.2527 57.9255C72.3443 57.9501 72.4112 58.0311 72.4112 58.1259V58.4612C72.4112 58.5697 72.3247 58.6584 72.2163 58.6608C71.6115 58.6737 71.0296 58.6754 70.506 58.6757C70.3831 58.6757 70.2893 58.7855 70.3084 58.9068L70.4069 59.5318C70.4222 59.629 70.5058 59.7007 70.6042 59.7005C72.0699 59.6982 73.9928 59.6614 75.753 59.3614C75.8549 59.344 75.9257 59.2509 75.9166 59.1479L75.8708 58.6328ZM72.8148 60.4863C72.8148 60.3759 72.7253 60.2863 72.6148 60.2863H71.6829C71.5724 60.2863 71.4829 60.3759 71.4829 60.4863V62.6438C71.4829 62.7543 71.5724 62.8438 71.6829 62.8438H77.7811C77.8915 62.8438 77.9811 62.7543 77.9811 62.6438V62.0189C77.9811 61.9084 77.8915 61.8189 77.7811 61.8189H73.0148C72.9044 61.8189 72.8148 61.7293 72.8148 61.6189V60.4863ZM77.8683 56.8308C77.7578 56.8308 77.6683 56.7413 77.6683 56.6308V54.2098C77.6683 54.0993 77.5787 54.0098 77.4683 54.0098H76.5363C76.4259 54.0098 76.3363 54.0993 76.3363 54.2098V60.672C76.3363 60.7825 76.4259 60.872 76.5363 60.872H77.4683C77.5787 60.872 77.6683 60.7825 77.6683 60.672V58.0948C77.6683 57.9843 77.7578 57.8948 77.8683 57.8948H78.6388C78.7492 57.8948 78.8387 57.8053 78.8387 57.6948V57.0308C78.8387 56.9203 78.7492 56.8308 78.6388 56.8308H77.8683Z" fill="#6F6F6F"/>
<path d="M83.0255 59.7835C83.0255 59.6731 83.115 59.5835 83.2255 59.5835H84.45C84.5605 59.5835 84.65 59.6731 84.65 59.7835V60.7599C84.65 60.8703 84.5605 60.9599 84.45 60.9599H83.2255C83.115 60.9599 83.0255 60.8703 83.0255 60.7599V59.7835ZM86.1617 60.9599C86.0513 60.9599 85.9617 60.8703 85.9617 60.7599V59.7835C85.9617 59.6731 86.0513 59.5835 86.1617 59.5835H87.0634C87.1739 59.5835 87.2634 59.494 87.2634 59.3835V58.7586C87.2634 58.6481 87.1739 58.5586 87.0634 58.5586H82.0752C81.9647 58.5586 81.8752 58.469 81.8752 58.3586V57.7727C81.8752 57.6622 81.9647 57.5727 82.0752 57.5727H86.8515C86.962 57.5727 87.0515 57.4831 87.0515 57.3727V54.7857C87.0515 54.6752 86.962 54.5857 86.8515 54.5857H80.7432C80.6328 54.5857 80.5432 54.6752 80.5432 54.7857V55.4106C80.5432 55.5211 80.6328 55.6106 80.7432 55.6106H85.5398C85.6502 55.6106 85.7398 55.7002 85.7398 55.8106V56.3672C85.7398 56.4777 85.6502 56.5672 85.5398 56.5672H80.7533C80.6429 56.5672 80.5533 56.6568 80.5533 56.7672V59.3835C80.5533 59.494 80.6429 59.5835 80.7533 59.5835H81.5137C81.6242 59.5835 81.7137 59.6731 81.7137 59.7835V60.7599C81.7137 60.8703 81.6242 60.9599 81.5137 60.9599H79.7746C79.6641 60.9599 79.5746 61.0494 79.5746 61.1599V61.8141C79.5746 61.9246 79.6641 62.0141 79.7746 62.0141H87.8C87.9105 62.0141 88 61.9246 88 61.8141V61.1599C88 61.0494 87.9105 60.9599 87.8 60.9599H86.1617Z" fill="#6F6F6F"/>
<path fill-rule="evenodd" clip-rule="evenodd" d="M110.499 68.6137C111.098 68.1735 111.024 67.2575 110.363 66.9184L97.1812 60.1551C96.4471 59.7785 95.5985 60.4027 95.7394 61.2157L98.2703 75.8137C98.3972 76.5457 99.2497 76.8886 99.8481 76.4485L102.354 74.6053C102.799 74.2781 103.425 74.3735 103.752 74.8183L108.788 81.6655C109.116 82.1103 109.742 82.2057 110.187 81.8785L112.603 80.1008C113.048 79.7736 113.143 79.1476 112.816 78.7028L107.78 71.8557C107.452 71.4108 107.548 70.7848 107.993 70.4576L110.499 68.6137Z" fill="white"/>
<path d="M102.354 74.6053L103.035 75.5317L102.354 74.6053ZM103.752 74.8183L102.825 75.4998L103.752 74.8183ZM99.8481 76.4485L99.1667 75.5221L99.8481 76.4485ZM110.363 66.9184L109.838 67.9416L110.363 66.9184ZM96.6562 61.1783L109.838 67.9416L110.888 65.8952L97.7062 59.1319L96.6562 61.1783ZM99.4034 75.6173L96.8725 61.0192L94.6063 61.4121L97.1372 76.0102L99.4034 75.6173ZM101.672 73.679L99.1667 75.5221L100.53 77.3748L103.035 75.5317L101.672 73.679ZM109.715 80.984L104.678 74.1369L102.825 75.4998L107.862 82.3469L109.715 80.984ZM111.922 79.1745L109.505 80.9521L110.868 82.8048L113.285 81.0272L111.922 79.1745ZM106.853 72.5371L111.89 79.3842L113.743 78.0213L108.706 71.1742L106.853 72.5371ZM109.818 67.6873L107.311 69.5312L108.674 71.3839L111.181 69.54L109.818 67.6873ZM108.706 71.1742C108.755 71.241 108.741 71.3349 108.674 71.3839L107.311 69.5312C106.355 70.2348 106.15 71.5806 106.853 72.5371L108.706 71.1742ZM113.285 81.0272C114.241 80.3236 114.446 78.9779 113.743 78.0213L111.89 79.3842C111.841 79.3174 111.855 79.2236 111.922 79.1745L113.285 81.0272ZM107.862 82.3469C108.566 83.3034 109.911 83.5084 110.868 82.8048L109.505 80.9521C109.572 80.903 109.666 80.9173 109.715 80.984L107.862 82.3469ZM103.035 75.5317C102.968 75.5808 102.875 75.5665 102.825 75.4998L104.678 74.1369C103.975 73.1804 102.629 72.9754 101.672 73.679L103.035 75.5317ZM97.1372 76.0102C97.41 77.5839 99.2429 78.3213 100.53 77.3748L99.1667 75.5221C99.2565 75.456 99.3843 75.5075 99.4034 75.6173L97.1372 76.0102ZM109.838 67.9416C109.739 67.8907 109.728 67.7533 109.818 67.6873L111.181 69.54C112.467 68.5936 112.309 66.6243 110.888 65.8952L109.838 67.9416ZM97.7062 59.1319C96.1279 58.3222 94.3033 59.6643 94.6063 61.4121L96.8725 61.0192C96.8758 61.038 96.8743 61.0713 96.8598 61.1052C96.8472 61.1349 96.8296 61.1539 96.8136 61.1657C96.7976 61.1774 96.7742 61.1885 96.7421 61.1918C96.7054 61.1955 96.6732 61.187 96.6562 61.1783L97.7062 59.1319Z" fill="#6F6F6F"/>
</svg>
