<svg width="140" height="140" viewBox="0 0 140 140" fill="none" xmlns="http://www.w3.org/2000/svg">
<path d="M96.6151 85.8165C100.16 78.6771 106.4 74.2337 113.49 74.2337C120.579 74.2337 124.174 71.5877 126.82 66.2456C129.466 60.9036 123.275 60.0049 121.478 60.0049C119.681 60.0049 115.237 60.9036 111.693 54.6629C108.148 48.4221 99.2611 48.4221 99.2611 48.4221C97.4638 41.2828 93.9191 38.6367 93.9191 38.6367C89.4757 43.0801 90.3244 52.8655 90.3244 52.8655C90.3244 52.8655 87.6784 55.5615 86.7797 58.2076C85.881 60.9036 84.9824 61.8022 81.4377 65.347C77.8929 68.8917 72.5509 70.689 72.5509 70.689C72.5509 70.689 59.1708 74.2836 42.2959 72.4863C39.0972 72.1489 36.3765 71.6509 34.0676 71.0654M91.273 109.831V114.624C91.273 116.87 89.4258 118.717 87.1791 118.717H83.0353C81.188 118.717 79.5405 117.469 79.0912 115.672C77.4935 109.381 72.1515 95.6019 55.676 95.6019C39.3004 95.6019 34.4576 109.182 33.0597 115.522C32.6603 117.369 31.0127 118.717 29.0656 118.717H26.3197C23.9732 118.717 22.5753 115.722 22.775 113.375C23.3242 105.937 26.3197 92.9059 35.2065 80.4744C35.2065 80.4744 24.1729 73.1354 22.1759 66.4453" stroke="#6F6F6F" stroke-width="2" stroke-linecap="round"/>
<path fill-rule="evenodd" clip-rule="evenodd" d="M43.3862 56.338C39.5405 53.9712 35.9629 51.1856 32.7174 48.0311C30.4356 45.7593 28.3889 42.9898 27.3296 39.9346C25.4233 34.008 26.3284 26.6457 32.7173 25.2153C38.6735 23.8817 42.3449 28.2761 43.8027 31.7952C45.2747 28.2761 48.9616 23.8814 54.9042 25.2153C61.1357 27.2232 62.1959 34.008 60.2896 39.9346C59.2303 42.9898 57.1859 45.7593 54.9042 48.0311C51.6587 51.1856 48.081 53.9712 44.2353 56.338L43.8188 56.5971L43.3862 56.338Z" fill="white"/>
<path fill-rule="evenodd" clip-rule="evenodd" d="M45.172 61.2531C41.761 59.0858 38.5878 56.5349 35.7092 53.6462C33.6854 51.5659 31.8701 49.0298 30.9305 46.2321C29.2397 40.805 30.0425 34.0632 35.7091 32.7533C40.992 31.5321 44.2483 35.5561 45.5414 38.7787C46.8469 35.5561 50.1171 31.5318 55.3879 32.7533C60.9149 34.592 61.8553 40.805 60.1645 46.2321C59.2249 49.0298 57.4116 51.5659 55.3878 53.6462C52.5092 56.5349 49.336 59.0858 45.925 61.2531L45.5556 61.4904L45.172 61.2531Z" fill="#FFE371"/>
<path d="M30.1724 38.3951C30.0275 39.3456 29.9842 40.3382 30.0315 41.3425C30.1076 42.9551 30.4172 44.5979 30.9147 46.1447C31.9945 49.2587 34.0806 52.0816 36.4063 54.3971C39.7143 57.6124 43.3608 60.4516 47.2806 62.864L47.7215 63.1281L48.146 62.864C52.0658 60.4516 55.7124 57.6124 59.0204 54.3971C61.3461 52.0816 63.4298 49.2587 64.5095 46.1447C65.0659 44.4149 65.3744 42.6133 65.3822 40.8749C65.3885 39.4446 65.1913 38.0571 64.7612 36.7874C63.8885 34.2112 62.0567 32.1202 59.0204 31.1419C52.9634 29.7823 49.2054 34.2616 47.7052 37.8485C46.2192 34.2616 42.4771 29.7826 36.4062 31.1419C34.3438 31.6036 32.8421 32.6718 31.8145 34.1079" stroke="#6F6F6F" stroke-width="2" stroke-linecap="round" stroke-linejoin="round"/>
<circle r="1.07058" transform="matrix(-1 0 0 1 94.9884 89.9202)" fill="#6F6F6F"/>
<circle r="1.07058" transform="matrix(-1 0 0 1 30.0129 69.346)" fill="#6F6F6F"/>
</svg>
