<svg width="110" height="100" viewBox="0 0 110 100" fill="none" xmlns="http://www.w3.org/2000/svg">
<path opacity="0.5" d="M31.4648 51.5645C31.4648 37.7217 42.6866 26.5 56.5293 26.5C70.372 26.5 81.5938 37.7217 81.5938 51.5645V78.5H31.4648V51.5645Z" fill="#F2754E"/>
<path d="M27.5 54C27.5 38.8122 39.8122 26.5 55 26.5V26.5C70.1878 26.5 82.5 38.8122 82.5 54V78.5H27.5V54Z" stroke="#6F6F6F" stroke-width="2"/>
<path d="M55 6.5V18.0789M82.7143 25.0263L89.6429 15.7632M91.9524 50.5H103.5M27.2857 25.0263L20.3571 15.7632M6.5 50.5H18.0476" stroke="#6F6F6F" stroke-width="2" stroke-linecap="round"/>
<path d="M36.4805 58.3734C36.4805 56.7312 36.4808 54.976 36.7474 53.2965M54.1839 35.8848C47.7072 35.8848 42.1979 40.1403 40.9997 43.5686" stroke="#6F6F6F" stroke-width="2" stroke-linecap="round"/>
<path d="M68.2887 93.5H55H26.5C24.8431 93.5 23.5 92.1569 23.5 90.5V81.5C23.5 79.8431 24.8431 78.5 26.5 78.5H83.5C85.1569 78.5 86.5 79.8431 86.5 81.5V90.5C86.5 92.1569 85.1569 93.5 83.5 93.5H78.625" stroke="#6F6F6F" stroke-width="2" stroke-linecap="round"/>
<circle cx="38.5049" cy="48.1289" r="1" fill="#6F6F6F"/>
<circle cx="75.1377" cy="93.5" r="1" fill="#6F6F6F"/>
</svg>
