<svg width="160" height="160" viewBox="0 0 160 160" fill="none" xmlns="http://www.w3.org/2000/svg">
<circle cx="65.404" cy="64.8986" r="31.2424" fill="white"/>
<path d="M75.0652 35.2167C71.9894 34.2041 68.7025 33.6562 65.2876 33.6562C48.033 33.6562 34.0453 47.6439 34.0453 64.8986C34.0453 82.1533 48.033 96.141 65.2876 96.141C82.5423 96.141 96.53 82.1533 96.53 64.8986C96.53 56.4479 93.1748 48.7808 87.7238 43.1568" stroke="#6F6F6F" stroke-width="2" stroke-linecap="round"/>
<path d="M90.0464 84.6211L95.9064 90.4996C97.3668 91.9646 97.3631 94.3361 95.8981 95.7966V95.7966V95.7966C94.4331 97.257 92.0616 97.2532 90.6012 95.7882L84.7411 89.9097" stroke="#6F6F6F" stroke-width="2"/>
<path d="M65.4039 89.111C78.7115 89.111 89.4995 78.3231 89.4995 65.0155C89.4995 60.8762 88.4557 56.9807 86.6171 53.5778M73.41 42.2819C70.9051 41.3998 68.2105 40.9199 65.4039 40.9199C54.2197 40.9199 44.8152 48.5399 42.0987 58.8714C41.583 60.8329 41.3083 62.8921 41.3083 65.0155C41.3083 68.4839 42.0412 71.7812 43.3605 74.7609" stroke="#6F6F6F" stroke-width="2" stroke-linecap="round"/>
<rect x="97.625" y="89.1113" width="34.8332" height="11.473" rx="5.73648" transform="rotate(45.0901 97.625 89.1113)" fill="white"/>
<rect x="97.625" y="89.1113" width="32.5606" height="9.18033" rx="4.59016" transform="rotate(45.0901 97.625 89.1113)" fill="#FFEEBA"/>
<rect x="97.625" y="89.1113" width="34.8332" height="11.473" rx="5.73648" transform="rotate(45.0901 97.625 89.1113)" stroke="#6F6F6F" stroke-width="2"/>
<circle cx="77.6963" cy="44.5566" r="1" fill="#6F6F6F"/>
</svg>
