<svg width="140" height="140" viewBox="0 0 140 140" fill="none" xmlns="http://www.w3.org/2000/svg">
<path d="M140 70C140 108.66 108.66 140 70 140C31.3401 140 0 108.66 0 70C0 31.3401 31.3401 0 70 0C108.66 0 140 31.3401 140 70Z" fill="white"/>
<path d="M54.0225 92.612H51.6105V91.172H50.0265V92.612H47.5785V93.896H54.0225V92.612ZM50.8065 98.444C50.1345 98.444 49.6185 97.952 49.6185 97.136C49.6185 96.32 50.1345 95.828 50.8065 95.828C51.4905 95.828 52.0185 96.32 52.0185 97.136C52.0185 97.952 51.4905 98.444 50.8065 98.444ZM50.8065 94.496C49.2945 94.496 48.1545 95.612 48.1545 97.136C48.1545 98.66 49.2945 99.776 50.8065 99.776C52.3305 99.776 53.4705 98.66 53.4705 97.136C53.4705 95.612 52.3305 94.496 50.8065 94.496ZM55.2705 90.98V95.324H53.8185V96.608H55.2705V102.032H56.8545V90.98H55.2705ZM62.2056 92.708C63.0216 92.708 63.5856 93.092 63.5856 93.788C63.5856 94.46 63.0216 94.844 62.2056 94.844C61.4016 94.844 60.8256 94.46 60.8256 93.788C60.8256 93.092 61.4016 92.708 62.2056 92.708ZM62.2056 96.14C63.8736 96.14 65.0976 95.156 65.0976 93.788C65.0976 92.396 63.8736 91.424 62.2056 91.424C60.5376 91.424 59.3016 92.396 59.3016 93.788C59.3016 95.156 60.5376 96.14 62.2056 96.14ZM65.6616 96.416C63.3216 96.764 60.5856 96.788 58.6536 96.788L58.8336 98.084C59.6136 98.084 60.5136 98.072 61.4616 98.036V101.696H63.0456V97.94C63.9456 97.856 64.8696 97.748 65.7576 97.568L65.6616 96.416ZM66.2856 90.98V102.02H67.8696V90.98H66.2856ZM76.4434 91.832H74.8474V93.44C74.8474 95.492 74.0074 97.604 72.1474 98.48L73.0954 99.764C74.3434 99.152 75.1714 97.988 75.6514 96.584C76.1074 97.904 76.8874 98.972 78.0394 99.56L78.9994 98.312C77.2234 97.436 76.4434 95.432 76.4434 93.44V91.832ZM82.6354 95.228H81.0274V90.98H79.4434V102.032H81.0274V96.548H82.6354V95.228ZM92.5824 90.992H90.9984V96.56H92.5824V90.992ZM90.1944 95.192C88.4064 94.664 87.6144 93.38 87.6144 92.072V91.244H86.0064V92.072C86.0064 93.416 85.2024 94.808 83.3664 95.372L84.1344 96.608C85.4304 96.212 86.3304 95.372 86.8344 94.328C87.3264 95.288 88.1784 96.056 89.4384 96.428L90.1944 95.192ZM86.8104 100.724V100.04H92.5944V97.052H85.2264V98.264H91.0224V98.912H85.2384V101.948H92.8704V100.724H86.8104ZM55.5379 112.032C53.7979 111.468 53.0419 110.16 53.0059 108.888H55.1659V107.628H49.1899V108.888H51.3859C51.3499 110.256 50.5699 111.636 48.7699 112.224L49.5979 113.46C50.8699 113.04 51.7339 112.188 52.2259 111.12C52.7059 112.092 53.5339 112.872 54.7339 113.256L55.5379 112.032ZM50.2579 115.392H56.0539V118.044H57.6379V114.132H50.2579V115.392ZM59.1019 109.644H57.6379V106.98H56.0539V113.64H57.6379V110.952H59.1019V109.644ZM67.6329 113.46H69.2169V106.98H67.6329V108.996H65.6169V110.28H67.6329V113.46ZM66.6249 111.864C64.8729 111.3 64.1529 109.956 64.1529 108.468V107.556H62.5449V108.54C62.5449 110.064 61.7649 111.564 59.8809 112.164L60.7089 113.436C62.0169 112.992 62.8929 112.104 63.3849 110.976C63.8529 111.96 64.6329 112.716 65.7969 113.112L66.6249 111.864ZM65.4849 116.82C64.0329 116.82 63.2769 116.52 63.2769 115.896C63.2769 115.26 64.0329 114.96 65.4849 114.96C66.9249 114.96 67.6809 115.26 67.6809 115.896C67.6809 116.52 66.9249 116.82 65.4849 116.82ZM65.4849 113.736C63.1329 113.736 61.6929 114.528 61.6929 115.896C61.6929 117.24 63.1329 118.032 65.4849 118.032C67.8249 118.032 69.2649 117.24 69.2649 115.896C69.2649 114.528 67.8249 113.736 65.4849 113.736ZM73.752 115.104H78.252V116.664H73.752V115.104ZM72.192 117.9H79.8V113.868H72.192V117.9ZM79.596 111.456C79.848 110.184 79.848 109.248 79.848 108.36V107.472H72.252V108.732H78.288C78.288 109.5 78.252 110.352 78.024 111.456H71.016V112.716H81.024V111.456H79.596ZM86.3271 109.344H88.6071V108.036H82.4151V109.344H84.7191V109.956C84.7191 111.84 83.8191 113.868 81.9711 114.696L82.8711 115.956C84.1671 115.368 85.0551 114.156 85.5471 112.716C86.0391 114.048 86.9151 115.128 88.1991 115.68L89.0631 114.432C87.2151 113.664 86.3271 111.756 86.3271 109.956V109.344ZM89.6271 106.98V118.032H91.2111V106.98H89.6271Z" fill="#6F6F6F"/>
<circle cx="70" cy="57" r="25" stroke="#C1C1C1" stroke-width="4"/>
<rect x="91.332" y="41.5886" width="51.9629" height="3.60853" rx="1.80427" transform="rotate(135 91.332 41.5886)" fill="#C1C1C1"/>
<circle opacity="0.99" cx="69.2416" cy="57.0007" r="16.2742" fill="white" stroke="#6F6F6F" stroke-width="2.3"/>
<path d="M66.8843 56.4116C66.8843 58.3654 65.8661 59.9492 64.6101 59.9492C63.3541 59.9492 62.3359 58.3654 62.3359 56.4116C62.3359 55.4542 64.2129 54.273 64.6101 53.6361C65.0234 52.9732 63.9696 52.874 64.6101 52.874C65.8661 52.874 66.8843 54.4579 66.8843 56.4116Z" fill="#6F6F6F"/>
<path d="M78.2573 56.4116C78.2573 58.3654 77.2391 58.8947 75.9831 58.8947C74.7272 58.8947 73.709 58.3654 73.709 56.4116C73.709 54.4579 74.7272 52.874 75.9831 52.874C77.2391 52.874 78.2573 54.4579 78.2573 56.4116Z" fill="#6F6F6F"/>
<path d="M65.4549 52.4548C65.4549 53.7175 64.6973 55.1063 61.667 55.1063" stroke="#6F6F6F" stroke-width="2" stroke-linecap="round"/>
<path d="M85.9098 58.5156H75.056C74.4847 58.5156 73.9343 58.7308 73.5145 59.1183C71.9942 60.5216 72.9871 63.0611 75.056 63.0611H85.9098C87.165 63.0611 88.1826 62.0435 88.1826 60.7884C88.1826 59.5332 87.165 58.5156 85.9098 58.5156Z" fill="white"/>
<path d="M71.9235 58.5156H85.9083C87.1635 58.5156 88.1811 59.5332 88.1811 60.7884V60.7884C88.1811 62.0435 87.1635 63.0611 85.9084 63.0611H70.7568" stroke="#6F6F6F" stroke-width="2.3" stroke-linecap="round"/>
</svg>
