<svg width="217" height="25" viewBox="0 0 217 25" fill="none" xmlns="http://www.w3.org/2000/svg">
<path d="M13.6854 0.541382H1.91851C1.27901 0.541382 0.767404 0.796158 0.511602 1.05093C0.127901 1.4331 0 1.81526 0 2.32482C0 3.21653 0.639503 4.10825 1.91851 4.10825H6.01133V19.777C6.01133 21.0509 6.90663 21.6878 7.80194 21.6878C8.69724 21.6878 9.59254 21.0509 9.59254 19.777V4.10825H13.6854C14.8365 4.10825 15.6039 3.21653 15.6039 2.32482C15.6039 1.4331 14.9644 0.541382 13.6854 0.541382Z" fill="#DFDFDF"/>
<path d="M24.173 5.76465C19.6965 5.76465 16.1152 9.33152 16.1152 13.7901C16.1152 18.2487 19.6965 21.8156 24.173 21.8156C25.9636 21.8156 27.4984 21.4334 28.7774 20.5417C28.9053 21.5608 29.6727 22.0703 30.568 22.0703C31.4633 22.0703 32.3586 21.4334 32.3586 20.1595V13.9175C32.3586 7.93025 27.3705 5.76465 24.173 5.76465ZM24.173 18.3761C21.615 18.3761 19.6965 16.3379 19.6965 13.9175C19.6965 11.3697 21.7429 9.33152 24.173 9.33152C26.731 9.33152 28.7774 11.3697 28.7774 13.9175C28.7774 16.3379 26.731 18.3761 24.173 18.3761Z" fill="#DFDFDF"/>
<path d="M39.6493 13.1532L45.5327 8.82203C46.0443 8.43987 46.3001 7.80293 46.3001 7.16599C46.1722 6.52905 45.7885 6.0195 45.2769 5.76472C44.7653 5.50994 44.1258 5.63733 43.6142 6.0195L38.2424 9.84114V2.19785C38.2424 -0.222526 34.7891 -0.222526 34.7891 2.19785V19.9048C34.7891 20.6691 35.0449 21.0513 35.3007 21.3061C35.5565 21.6882 36.0681 21.8156 36.4518 21.8156C37.3471 21.8156 38.2424 21.1787 38.2424 19.9048V16.5927L43.4863 21.0513C44.3816 21.8156 45.4048 21.6882 45.9164 21.0513C46.5559 20.4144 46.6838 19.2679 45.6606 18.3761L39.6493 13.1532Z" fill="#DFDFDF"/>
<path d="M63.6936 12.898C63.6936 10.2228 61.0077 5.38208 55.6359 5.38208C51.1593 5.38208 47.5781 8.94895 47.5781 13.4075C47.5781 17.8661 51.1593 21.433 55.6359 21.433C59.4729 21.433 62.0309 19.2674 63.0541 17.484C63.6936 16.3375 63.182 15.4457 62.5425 14.9362C61.7751 14.554 60.7519 14.6814 60.2403 15.5731C59.2171 17.6113 56.9149 17.8661 55.7638 17.8661C53.5894 17.8661 51.9267 16.2101 51.4151 14.554H62.1588C62.9262 14.6814 63.6936 13.9171 63.6936 12.898ZM55.6359 8.82156C57.1707 8.82156 58.5776 9.71328 59.345 11.1145H51.7988C52.5662 9.71328 53.9731 8.82156 55.6359 8.82156Z" fill="#DFDFDF"/>
<path d="M85.9497 7.42055V14.1721C85.9497 16.5925 84.4149 18.1212 82.2406 18.1212C80.0663 18.1212 78.5314 16.4651 78.5314 14.1721V7.42055C78.5314 5.12756 75.0781 5.12756 75.0781 7.42055V14.1721C75.0781 18.5033 78.1477 21.688 82.2406 21.688C86.4613 21.688 89.403 18.6307 89.403 14.2995V7.42055C89.5309 5.12756 85.9497 5.12756 85.9497 7.42055Z" fill="#DFDFDF"/>
<path d="M98.2284 11.6241C95.2867 10.9871 95.0309 10.7324 95.0309 10.2228C95.0309 9.20371 96.4378 9.07632 97.3331 9.07632C98.74 9.07632 99.7632 9.58587 100.531 10.605C101.298 11.6241 102.321 11.6241 103.089 11.2419C103.728 10.7324 104.112 9.71326 103.472 8.69416C102.065 6.65595 100.147 5.63684 97.461 5.63684C94.1356 5.63684 91.5775 7.67505 91.5775 10.3502C91.5775 12.7706 93.1124 14.0445 96.8215 14.9362C99.7632 15.5731 101.298 16.0827 101.298 16.847C101.298 17.9935 99.2516 18.503 97.8447 18.503C96.0541 18.503 94.5193 17.7387 93.4961 16.4648C92.8566 15.5731 91.8334 15.5731 91.1939 15.9553C90.4264 16.4648 90.0427 17.4839 90.6822 18.6304C92.2171 21.0508 95.7983 22.0699 97.7168 22.0699C101.17 22.0699 104.751 20.2865 104.751 16.9744C104.751 13.4075 101.426 12.261 98.2284 11.6241Z" fill="#DFDFDF"/>
<path d="M109.228 18.1212C108.589 17.8664 107.821 17.8664 107.31 18.2486C106.798 18.6307 106.542 19.395 106.67 20.2868C106.798 20.7963 106.542 21.1785 106.158 21.4333C105.135 21.9428 104.879 23.0893 105.135 23.8536C105.391 24.4906 105.903 25.0001 106.798 25.0001C107.054 25.0001 107.182 25.0001 107.437 24.8727C109.356 24.3632 110.507 22.4524 110.379 20.1594C110.379 19.2677 109.868 18.5033 109.228 18.1212Z" fill="#DFDFDF"/>
<path d="M135.191 0.541382H123.296C122.657 0.541382 122.145 0.796158 121.89 1.05093C121.634 1.4331 121.506 1.81526 121.506 2.32482C121.506 3.21653 122.145 4.10825 123.424 4.10825H127.517V19.777C127.517 21.0509 128.412 21.6878 129.308 21.6878C130.203 21.6878 131.098 21.0509 131.098 19.777V4.10825H135.191C136.342 4.10825 137.11 3.21653 137.11 2.32482C137.11 1.4331 136.47 0.541382 135.191 0.541382Z" fill="#DFDFDF"/>
<path d="M145.679 5.76465C141.202 5.76465 137.621 9.33152 137.621 13.7901C137.621 18.2487 141.202 21.8156 145.679 21.8156C147.469 21.8156 149.004 21.4334 150.283 20.5417C150.411 21.5608 151.179 22.0703 152.074 22.0703C152.969 22.0703 153.864 21.4334 153.864 20.1595V13.9175C153.864 7.93025 148.876 5.76465 145.679 5.76465ZM145.679 18.3761C143.121 18.3761 141.202 16.3379 141.202 13.9175C141.202 11.3697 143.249 9.33152 145.679 9.33152C148.237 9.33152 150.283 11.3697 150.283 13.9175C150.283 16.3379 148.237 18.3761 145.679 18.3761Z" fill="#DFDFDF"/>
<path d="M161.155 13.1532L167.039 8.82203C167.55 8.43987 167.806 7.80293 167.806 7.16599C167.678 6.52905 167.294 6.0195 166.783 5.76472C166.271 5.50994 165.632 5.63733 165.12 6.0195L159.748 9.84114V2.19785C159.748 -0.222526 156.295 -0.222526 156.295 2.19785V19.9048C156.295 20.6691 156.551 21.0513 156.807 21.3061C157.062 21.6882 157.574 21.8156 157.958 21.8156C158.853 21.8156 159.748 21.1787 159.748 19.9048V16.5927L164.992 21.0513C165.887 21.8156 166.911 21.6882 167.422 21.0513C168.062 20.4144 168.19 19.2679 167.166 18.3761L161.155 13.1532Z" fill="#DFDFDF"/>
<path d="M185.199 12.898C185.199 10.2228 182.514 5.38208 177.142 5.38208C172.665 5.38208 169.084 8.94895 169.084 13.4075C169.084 17.8661 172.665 21.433 177.142 21.433C180.979 21.433 183.537 19.2674 184.56 17.484C185.199 16.3375 184.688 15.4457 184.048 14.9362C183.281 14.554 182.258 14.6814 181.746 15.5731C180.723 17.6113 178.421 17.8661 177.27 17.8661C175.095 17.8661 173.433 16.2101 172.921 14.554H183.665C184.432 14.6814 185.199 13.9171 185.199 12.898ZM177.142 8.82156C178.677 8.82156 180.083 9.71328 180.851 11.1145H173.305C174.072 9.71328 175.479 8.82156 177.142 8.82156Z" fill="#DFDFDF"/>
<path d="M195.048 5.63684C192.618 5.63684 187.502 5.63684 187.502 12.898V19.6495C187.502 20.796 188.397 21.433 189.293 21.433C190.188 21.433 191.083 20.796 191.083 19.6495V12.898C191.083 9.07632 192.49 9.07632 195.048 9.07632C195.56 9.07632 196.071 8.82154 196.455 8.56677C196.711 8.31199 196.967 7.80244 196.967 7.42028C196.839 6.52856 196.199 5.63684 195.048 5.63684Z" fill="#DFDFDF"/>
<path d="M204.641 11.6241C201.7 10.9871 201.572 10.7324 201.572 10.2228C201.572 9.20371 202.979 9.07632 203.874 9.07632C205.281 9.07632 206.304 9.58587 207.072 10.605C207.839 11.6241 208.862 11.6241 209.63 11.2419C210.269 10.7324 210.653 9.71326 210.013 8.69416C208.606 6.65595 206.688 5.63684 204.002 5.63684C200.677 5.63684 198.119 7.67505 198.119 10.3502C198.119 12.7706 199.653 14.0445 203.362 14.9362C206.304 15.5731 207.839 16.0827 207.839 16.847C207.839 17.9935 205.793 18.503 204.386 18.503C202.595 18.503 201.06 17.7387 200.037 16.4648C199.398 15.5731 198.374 15.5731 197.735 15.9553C196.967 16.4648 196.584 17.4839 197.223 18.6304C198.758 21.0508 202.339 22.0699 204.258 22.0699C207.711 22.0699 211.292 20.2865 211.292 16.9744C211.037 13.4075 207.839 12.261 204.641 11.6241Z" fill="#DFDFDF"/>
<path d="M214.234 15.9554C215.129 15.9554 216.024 15.3184 216.024 14.1719V1.81528C216.024 -0.605094 212.571 -0.605094 212.571 1.81528V14.1719C212.443 15.3184 213.338 15.9554 214.234 15.9554Z" fill="#DFDFDF"/>
<path d="M214.233 18.3759C212.954 18.3759 211.803 19.5223 211.803 20.7962C211.803 22.0701 212.954 23.2166 214.233 23.2166C215.512 23.2166 216.791 22.0701 216.791 20.7962C216.791 19.6497 215.512 18.3759 214.233 18.3759Z" fill="#DFDFDF"/>
</svg>
