<svg width="66" height="66" viewBox="0 0 66 66" fill="none" xmlns="http://www.w3.org/2000/svg">
<path fill-rule="evenodd" clip-rule="evenodd" d="M33 26.8768C34.0562 26.8768 34.9125 27.7062 34.9125 28.7292V38.6086C34.9125 39.6317 34.0562 40.461 33 40.461C31.9438 40.461 31.0875 39.6317 31.0875 38.6086V28.7292C31.0875 27.7062 31.9438 26.8768 33 26.8768Z" fill="#FDCB02"/>
<path d="M35.55 46.0182C35.55 47.3823 34.4083 48.4881 33 48.4881C31.5917 48.4881 30.45 47.3823 30.45 46.0182C30.45 44.6541 31.5917 43.5483 33 43.5483C34.4083 43.5483 35.55 44.6541 35.55 46.0182Z" fill="#FDCB02"/>
<path fill-rule="evenodd" clip-rule="evenodd" d="M27.3297 11.1629C30.0688 7.27903 35.9312 7.27903 38.6703 11.1629C42.067 15.9791 46.8746 22.9848 50.091 28.4781C53.4675 34.2446 57.3117 42.1377 59.8695 47.578C61.8828 51.8601 58.8453 56.7135 54.007 56.9915C48.046 57.3341 39.4816 57.75 33 57.75C26.5184 57.75 17.954 57.3341 11.993 56.9915C7.15471 56.7135 4.11716 51.8601 6.13047 47.578C8.68834 42.1377 12.5325 34.2446 15.909 28.4781C19.1254 22.9848 23.933 15.9791 27.3297 11.1629ZM35.5119 13.2526C34.2915 11.5222 31.7085 11.5222 30.4881 13.2526C27.0958 18.0626 22.3673 24.9581 19.2361 30.3057C15.9499 35.918 12.1653 43.6817 9.6115 49.1134C8.71586 51.0184 10.0512 53.1687 12.2196 53.2933C18.174 53.6354 26.6408 54.0452 33 54.0452C39.3592 54.0452 47.826 53.6354 53.7804 53.2933C55.9488 53.1687 57.2841 51.0184 56.3885 49.1134C53.8347 43.6817 50.0501 35.918 46.7639 30.3057C43.6327 24.9581 38.9042 18.0626 35.5119 13.2526Z" fill="#FDCB02"/>
</svg>
