<svg width="25" height="24" viewBox="0 0 25 24" fill="none" xmlns="http://www.w3.org/2000/svg">
<path fill-rule="evenodd" clip-rule="evenodd" d="M4.42246 5.37254C4.73878 4.84878 6.48163 2.94376 7.72535 3.00127C8.09713 3.03208 8.42577 3.25699 8.69279 3.51784C9.30592 4.11656 11.0611 6.38101 11.1607 6.85753C11.4031 8.02621 10.0105 8.6999 10.4367 9.87783C11.5233 12.5366 13.3955 14.4088 16.0555 15.4943C17.2324 15.9205 17.9062 14.5279 19.0749 14.7713C19.5504 14.8709 21.816 16.626 22.4148 17.2391C22.6746 17.5051 22.9005 17.8347 22.9313 18.2065C22.9776 19.5159 20.9543 21.2833 20.56 21.5092C19.6295 22.1747 18.4156 22.1634 16.9356 21.4753C12.806 19.7572 6.20639 13.2822 4.45635 8.99669C3.78674 7.52505 3.74052 6.30297 4.42246 5.37254Z" fill="#FDCB02"/>
</svg>
