<svg width="19" height="19" viewBox="0 0 19 19" fill="none" xmlns="http://www.w3.org/2000/svg">
<path fill-rule="evenodd" clip-rule="evenodd" d="M0.490332 2.37254C0.806653 1.84878 2.5495 -0.0562353 3.79322 0.00127468C4.165 0.0320836 4.49364 0.256989 4.76067 0.517838C5.37379 1.11656 7.12897 3.38101 7.22859 3.85753C7.47096 5.02621 6.07833 5.6999 6.50454 6.87783C7.59112 9.53664 9.46337 11.4088 12.1233 12.4943C13.3003 12.9205 13.974 11.5279 15.1428 11.7713C15.6183 11.8709 17.8839 13.626 18.4826 14.2391C18.7425 14.5051 18.9684 14.8347 18.9992 15.2065C19.0454 16.5159 17.0222 18.2833 16.6278 18.5092C15.6974 19.1747 14.4834 19.1634 13.0035 18.4753C8.87387 16.7572 2.27426 10.2822 0.524223 5.99669C-0.145392 4.52505 -0.191607 3.30297 0.490332 2.37254Z" fill="#FDCB02"/>
</svg>
