<svg width="116" height="125" viewBox="0 0 116 125" fill="none" xmlns="http://www.w3.org/2000/svg">
<g style="mix-blend-mode:multiply">
<mask id="path-1-inside-1" fill="white">
<path d="M90.7216 98.8418C90.6413 98.6935 90.5453 98.5542 90.4351 98.4264C90.6079 96.9869 90.7079 95.5396 90.7347 94.09C91.0212 83.7037 84.3389 81.2369 84.0523 81.1071C83.6897 80.9797 83.3004 80.9474 82.9217 81.0134C82.543 81.0793 82.1877 81.2413 81.89 81.4836C81.5886 81.7213 81.3545 82.0329 81.2107 82.388C81.0668 82.7431 81.0181 83.1294 81.0693 83.509C82.1375 92.3633 78.5814 96.8944 75.9501 98.9976V87.6895C75.9501 84.5606 75.9501 75.4336 66.9882 73.1486C65.0586 60.2778 60.8837 47.843 54.6525 36.4069C55.9963 33.7907 57.1752 31.0937 58.1826 28.3315C59.0158 26.676 59.3368 24.8111 59.1049 22.9735C58.873 21.1359 58.0986 19.4083 56.8799 18.0101C53.5844 14.0243 45.5212 6.41629 44.9611 5.88399C40.5679 2.01119 34.8816 -0.086314 29.0172 0.00272268C19.6515 0.00272268 14.9882 4.94926 14.1284 5.96192C13.2687 6.97459 5.46613 14.1671 2.3008 18.0101C1.08062 19.4075 0.305197 21.1352 0.0732322 22.9732C-0.158733 24.8112 0.163248 26.6764 0.99819 28.3315C2.06774 31.3463 3.3744 34.2722 4.90601 37.082C5.9135 38.6907 7.24398 40.0742 8.81382 41.1456C8.81382 41.1456 8.81382 41.2755 8.81382 41.3404V110.02C6.94542 110.584 5.31371 111.742 4.16814 113.318C3.02257 114.893 2.42618 116.799 2.47013 118.745C2.40249 120.1 2.87007 121.428 3.77274 122.445C4.27625 122.965 4.88533 123.371 5.55925 123.638C6.23316 123.904 6.95638 124.024 7.68055 123.99H20.2507C20.4151 124.009 20.5812 124.009 20.7457 123.99C22.5735 123.601 24.2142 122.603 25.3979 121.162C26.5816 119.72 27.2378 117.92 27.2587 116.057V97.8811C30.357 100.272 33.9391 101.964 37.7577 102.841V109.67C35.7126 110.76 32.2086 113.188 31.909 117.148C31.7626 117.92 31.7749 118.714 31.9451 119.482C32.1152 120.25 32.4397 120.975 32.899 121.614C33.3413 122.132 33.8961 122.542 34.5213 122.814C35.1465 123.086 35.8256 123.213 36.5072 123.185H46.1856C46.5909 123.245 47.0002 123.276 47.41 123.276C49.1538 123.317 50.8577 122.752 52.2297 121.679C52.8936 121.127 53.4386 120.447 53.8319 119.679H58.8208C59.1197 120.254 59.5114 120.776 59.9802 121.224C61.2473 122.345 62.8846 122.96 64.5784 122.951H73.1365C76.1064 122.951 78.1254 122.107 79.1284 120.445C79.7324 119.41 79.9054 118.179 79.6104 117.018C81.4862 116.849 84.2216 115.901 87.7777 112.798C89.7587 111.132 91.1242 108.853 91.6575 106.325C92.1909 103.796 91.8615 101.162 90.7216 98.8418ZM73.2146 118.459H64.6695C64.1182 118.47 63.5799 118.291 63.1455 117.953C62.789 117.51 62.6206 116.946 62.6765 116.382V105.268C62.7002 104.958 62.6593 104.646 62.5564 104.353C62.4536 104.059 62.291 103.79 62.0788 103.562C61.8666 103.333 61.6095 103.151 61.3234 103.027C61.0374 102.902 60.7286 102.838 60.4165 102.838C60.1044 102.838 59.7957 102.902 59.5096 103.027C59.2236 103.151 58.9664 103.333 58.7543 103.562C58.5421 103.79 58.3795 104.059 58.2766 104.353C58.1738 104.646 58.1329 104.958 58.1565 105.268V115.174H54.8088V91.4545C54.8325 91.1443 54.7916 90.8326 54.6887 90.5389C54.5859 90.2452 54.4233 89.9759 54.2111 89.7477C53.9989 89.5196 53.7417 89.3376 53.4557 89.2131C53.1697 89.0886 52.8609 89.0244 52.5488 89.0244C52.2367 89.0244 51.9279 89.0886 51.6419 89.2131C51.3558 89.3376 51.0987 89.5196 50.8865 89.7477C50.6743 89.9759 50.5117 90.2452 50.4089 90.5389C50.306 90.8326 50.2651 91.1443 50.2888 91.4545V115.564C50.3376 116.033 50.2862 116.506 50.138 116.954C49.9898 117.401 49.7482 117.813 49.429 118.16C48.66 118.661 47.7269 118.847 46.8238 118.68H46.394H36.416C36.3634 118.414 36.3634 118.141 36.416 117.875V117.563C36.5333 115.356 39.7246 113.668 40.8188 113.227C41.2523 113.067 41.626 112.778 41.8893 112.4C42.1526 112.021 42.2927 111.571 42.2908 111.111V102.023C42.3889 101.827 42.4548 101.616 42.4862 101.399C42.5514 100.957 42.4834 100.505 42.2908 100.101V86.534C42.2908 85.9349 42.052 85.3603 41.6269 84.9366C41.2019 84.513 40.6254 84.275 40.0242 84.275C39.4231 84.275 38.8466 84.513 38.4216 84.9366C37.9965 85.3603 37.7577 85.9349 37.7577 86.534V98.2187C24.5753 94.4926 21.4621 81.5096 21.3319 80.9254C21.2819 80.6217 21.1702 80.3315 21.0037 80.0724C20.8372 79.8133 20.6193 79.5909 20.3635 79.4187C20.1076 79.2465 19.8192 79.1282 19.5158 79.0711C19.2125 79.014 18.9006 79.0193 18.5994 79.0866C18.2981 79.1539 18.0139 79.2819 17.764 79.4626C17.5142 79.6433 17.304 79.873 17.1464 80.1375C16.9887 80.4021 16.887 80.6959 16.8474 81.0011C16.8078 81.3062 16.8311 81.6163 16.916 81.9121C18.2706 87.0545 20.9308 91.7626 24.6405 95.5831C24.1089 95.6641 23.6244 95.9329 23.2752 96.3405C22.9261 96.7481 22.7356 97.2673 22.7387 97.8032V116.057C22.7319 116.857 22.46 117.632 21.9652 118.261C21.4704 118.89 20.7805 119.339 20.0032 119.537H7.73266C7.53553 119.558 7.33629 119.522 7.15951 119.433C7.09005 119.305 7.05419 119.162 7.0553 119.017C7.06296 118.966 7.06296 118.913 7.0553 118.862C7.02817 117.665 7.46096 116.504 8.26501 115.616C9.06906 114.728 10.1835 114.18 11.38 114.084C11.9315 114.023 12.4412 113.762 12.8113 113.35C13.1815 112.937 13.3861 112.404 13.386 111.851V42.5478H13.7767C17.5022 42.5478 19.391 39.1333 19.5603 35.9525V23.4369C19.5603 22.8378 19.3215 22.2632 18.8965 21.8396C18.4714 21.4159 17.8949 21.1779 17.2938 21.1779C16.6927 21.1779 16.1162 21.4159 15.6911 21.8396C15.266 22.2632 15.0272 22.8378 15.0272 23.4369V35.7447C15.0272 36.0433 14.7407 38.0297 13.7246 38.0297C11.901 38.0297 10.39 36.9652 8.80079 34.5893C7.42699 32.0295 6.25123 29.3689 5.28376 26.6307C5.23613 26.5034 5.17499 26.3816 5.10139 26.2672C4.67259 25.3998 4.51415 24.4243 4.64648 23.4664C4.77881 22.5084 5.19585 21.6119 5.84388 20.8923C8.99619 17.0623 17.3068 9.20766 17.385 9.20766C17.4772 9.12611 17.5602 9.03465 17.6325 8.93499C18.8965 8.11905 21.2016 4.57274 29.0693 4.57274C33.7474 4.4705 38.2967 6.10378 41.8349 9.15572C41.913 9.23361 50.2236 17.0623 53.3759 20.8404C54.0304 21.5564 54.4516 22.4534 54.5842 23.413C54.7167 24.3725 54.5544 25.3496 54.1184 26.2153C54.049 26.33 53.9922 26.4519 53.9491 26.5788C52.976 29.3148 51.8004 31.9749 50.4321 34.5373C48.8299 36.9132 47.3188 37.9778 45.4952 37.9778C44.5182 37.9778 44.2707 35.9655 44.1926 35.6928V23.385C44.1926 22.7859 43.9538 22.2113 43.5287 21.7876C43.1037 21.364 42.5272 21.126 41.926 21.126C41.3249 21.126 40.7484 21.364 40.3234 21.7876C39.8983 22.2113 39.6595 22.7859 39.6595 23.385V35.9006C39.8288 39.0814 41.7176 42.4959 45.4431 42.4959C47.6703 42.487 49.8149 41.6542 51.4611 40.159C56.7177 50.3839 60.3517 61.3593 62.2337 72.6942C56.1505 73.2784 53.5583 78.7053 53.0242 81.8861C52.9418 82.4687 53.0907 83.0605 53.4393 83.5354C53.7878 84.0103 54.3086 84.3309 54.8907 84.429C55.4728 84.5271 56.0703 84.395 56.5561 84.0607C57.042 83.7264 57.3778 83.2164 57.4922 82.6391C57.5964 81.99 58.7166 76.4073 64.5653 77.2382C70.1665 78.0302 71.3128 81.977 71.3128 87.6246V110.085C71.3155 110.417 71.3902 110.744 71.5319 111.045C71.6735 111.345 71.8788 111.611 72.1335 111.825C73.1234 112.643 75.0773 114.811 74.8559 116.33C74.7931 116.799 74.8797 117.276 75.1034 117.693C75.1034 117.693 75.1685 117.901 75.1946 118.044C74.5728 118.324 73.8971 118.466 73.2146 118.459ZM84.9381 109.371C80.8088 112.967 78.8288 112.487 78.8028 112.474C78.8673 112.49 78.9288 112.517 78.9852 112.552L78.8028 112.941C78.0994 111.523 77.1565 110.237 76.0152 109.137V104.282C78.7575 102.8 81.0822 100.655 82.7756 98.0435C84.469 95.4324 85.4769 92.439 85.7066 89.3383C86.1558 90.8228 86.3496 92.3724 86.2798 93.9213C86.1235 99.8935 85.0814 101.711 84.8729 101.971C84.4527 102.276 84.1499 102.716 84.0148 103.216C83.8798 103.717 83.9206 104.249 84.1304 104.723C84.3122 105.116 84.6048 105.448 84.9725 105.679C85.3402 105.909 85.7673 106.028 86.2016 106.021C86.5164 106.025 86.828 105.959 87.1134 105.827L87.2567 105.762C86.8658 107.201 86.0321 108.481 84.8729 109.423L84.9381 109.371Z"/>
</mask>
<path d="M90.7216 98.8418C90.6413 98.6935 90.5453 98.5542 90.4351 98.4264C90.6079 96.9869 90.7079 95.5396 90.7347 94.09C91.0212 83.7037 84.3389 81.2369 84.0523 81.1071C83.6897 80.9797 83.3004 80.9474 82.9217 81.0134C82.543 81.0793 82.1877 81.2413 81.89 81.4836C81.5886 81.7213 81.3545 82.0329 81.2107 82.388C81.0668 82.7431 81.0181 83.1294 81.0693 83.509C82.1375 92.3633 78.5814 96.8944 75.9501 98.9976V87.6895C75.9501 84.5606 75.9501 75.4336 66.9882 73.1486C65.0586 60.2778 60.8837 47.843 54.6525 36.4069C55.9963 33.7907 57.1752 31.0937 58.1826 28.3315C59.0158 26.676 59.3368 24.8111 59.1049 22.9735C58.873 21.1359 58.0986 19.4083 56.8799 18.0101C53.5844 14.0243 45.5212 6.41629 44.9611 5.88399C40.5679 2.01119 34.8816 -0.086314 29.0172 0.00272268C19.6515 0.00272268 14.9882 4.94926 14.1284 5.96192C13.2687 6.97459 5.46613 14.1671 2.3008 18.0101C1.08062 19.4075 0.305197 21.1352 0.0732322 22.9732C-0.158733 24.8112 0.163248 26.6764 0.99819 28.3315C2.06774 31.3463 3.3744 34.2722 4.90601 37.082C5.9135 38.6907 7.24398 40.0742 8.81382 41.1456C8.81382 41.1456 8.81382 41.2755 8.81382 41.3404V110.02C6.94542 110.584 5.31371 111.742 4.16814 113.318C3.02257 114.893 2.42618 116.799 2.47013 118.745C2.40249 120.1 2.87007 121.428 3.77274 122.445C4.27625 122.965 4.88533 123.371 5.55925 123.638C6.23316 123.904 6.95638 124.024 7.68055 123.99H20.2507C20.4151 124.009 20.5812 124.009 20.7457 123.99C22.5735 123.601 24.2142 122.603 25.3979 121.162C26.5816 119.72 27.2378 117.92 27.2587 116.057V97.8811C30.357 100.272 33.9391 101.964 37.7577 102.841V109.67C35.7126 110.76 32.2086 113.188 31.909 117.148C31.7626 117.92 31.7749 118.714 31.9451 119.482C32.1152 120.25 32.4397 120.975 32.899 121.614C33.3413 122.132 33.8961 122.542 34.5213 122.814C35.1465 123.086 35.8256 123.213 36.5072 123.185H46.1856C46.5909 123.245 47.0002 123.276 47.41 123.276C49.1538 123.317 50.8577 122.752 52.2297 121.679C52.8936 121.127 53.4386 120.447 53.8319 119.679H58.8208C59.1197 120.254 59.5114 120.776 59.9802 121.224C61.2473 122.345 62.8846 122.96 64.5784 122.951H73.1365C76.1064 122.951 78.1254 122.107 79.1284 120.445C79.7324 119.41 79.9054 118.179 79.6104 117.018C81.4862 116.849 84.2216 115.901 87.7777 112.798C89.7587 111.132 91.1242 108.853 91.6575 106.325C92.1909 103.796 91.8615 101.162 90.7216 98.8418ZM73.2146 118.459H64.6695C64.1182 118.47 63.5799 118.291 63.1455 117.953C62.789 117.51 62.6206 116.946 62.6765 116.382V105.268C62.7002 104.958 62.6593 104.646 62.5564 104.353C62.4536 104.059 62.291 103.79 62.0788 103.562C61.8666 103.333 61.6095 103.151 61.3234 103.027C61.0374 102.902 60.7286 102.838 60.4165 102.838C60.1044 102.838 59.7957 102.902 59.5096 103.027C59.2236 103.151 58.9664 103.333 58.7543 103.562C58.5421 103.79 58.3795 104.059 58.2766 104.353C58.1738 104.646 58.1329 104.958 58.1565 105.268V115.174H54.8088V91.4545C54.8325 91.1443 54.7916 90.8326 54.6887 90.5389C54.5859 90.2452 54.4233 89.9759 54.2111 89.7477C53.9989 89.5196 53.7417 89.3376 53.4557 89.2131C53.1697 89.0886 52.8609 89.0244 52.5488 89.0244C52.2367 89.0244 51.9279 89.0886 51.6419 89.2131C51.3558 89.3376 51.0987 89.5196 50.8865 89.7477C50.6743 89.9759 50.5117 90.2452 50.4089 90.5389C50.306 90.8326 50.2651 91.1443 50.2888 91.4545V115.564C50.3376 116.033 50.2862 116.506 50.138 116.954C49.9898 117.401 49.7482 117.813 49.429 118.16C48.66 118.661 47.7269 118.847 46.8238 118.68H46.394H36.416C36.3634 118.414 36.3634 118.141 36.416 117.875V117.563C36.5333 115.356 39.7246 113.668 40.8188 113.227C41.2523 113.067 41.626 112.778 41.8893 112.4C42.1526 112.021 42.2927 111.571 42.2908 111.111V102.023C42.3889 101.827 42.4548 101.616 42.4862 101.399C42.5514 100.957 42.4834 100.505 42.2908 100.101V86.534C42.2908 85.9349 42.052 85.3603 41.6269 84.9366C41.2019 84.513 40.6254 84.275 40.0242 84.275C39.4231 84.275 38.8466 84.513 38.4216 84.9366C37.9965 85.3603 37.7577 85.9349 37.7577 86.534V98.2187C24.5753 94.4926 21.4621 81.5096 21.3319 80.9254C21.2819 80.6217 21.1702 80.3315 21.0037 80.0724C20.8372 79.8133 20.6193 79.5909 20.3635 79.4187C20.1076 79.2465 19.8192 79.1282 19.5158 79.0711C19.2125 79.014 18.9006 79.0193 18.5994 79.0866C18.2981 79.1539 18.0139 79.2819 17.764 79.4626C17.5142 79.6433 17.304 79.873 17.1464 80.1375C16.9887 80.4021 16.887 80.6959 16.8474 81.0011C16.8078 81.3062 16.8311 81.6163 16.916 81.9121C18.2706 87.0545 20.9308 91.7626 24.6405 95.5831C24.1089 95.6641 23.6244 95.9329 23.2752 96.3405C22.9261 96.7481 22.7356 97.2673 22.7387 97.8032V116.057C22.7319 116.857 22.46 117.632 21.9652 118.261C21.4704 118.89 20.7805 119.339 20.0032 119.537H7.73266C7.53553 119.558 7.33629 119.522 7.15951 119.433C7.09005 119.305 7.05419 119.162 7.0553 119.017C7.06296 118.966 7.06296 118.913 7.0553 118.862C7.02817 117.665 7.46096 116.504 8.26501 115.616C9.06906 114.728 10.1835 114.18 11.38 114.084C11.9315 114.023 12.4412 113.762 12.8113 113.35C13.1815 112.937 13.3861 112.404 13.386 111.851V42.5478H13.7767C17.5022 42.5478 19.391 39.1333 19.5603 35.9525V23.4369C19.5603 22.8378 19.3215 22.2632 18.8965 21.8396C18.4714 21.4159 17.8949 21.1779 17.2938 21.1779C16.6927 21.1779 16.1162 21.4159 15.6911 21.8396C15.266 22.2632 15.0272 22.8378 15.0272 23.4369V35.7447C15.0272 36.0433 14.7407 38.0297 13.7246 38.0297C11.901 38.0297 10.39 36.9652 8.80079 34.5893C7.42699 32.0295 6.25123 29.3689 5.28376 26.6307C5.23613 26.5034 5.17499 26.3816 5.10139 26.2672C4.67259 25.3998 4.51415 24.4243 4.64648 23.4664C4.77881 22.5084 5.19585 21.6119 5.84388 20.8923C8.99619 17.0623 17.3068 9.20766 17.385 9.20766C17.4772 9.12611 17.5602 9.03465 17.6325 8.93499C18.8965 8.11905 21.2016 4.57274 29.0693 4.57274C33.7474 4.4705 38.2967 6.10378 41.8349 9.15572C41.913 9.23361 50.2236 17.0623 53.3759 20.8404C54.0304 21.5564 54.4516 22.4534 54.5842 23.413C54.7167 24.3725 54.5544 25.3496 54.1184 26.2153C54.049 26.33 53.9922 26.4519 53.9491 26.5788C52.976 29.3148 51.8004 31.9749 50.4321 34.5373C48.8299 36.9132 47.3188 37.9778 45.4952 37.9778C44.5182 37.9778 44.2707 35.9655 44.1926 35.6928V23.385C44.1926 22.7859 43.9538 22.2113 43.5287 21.7876C43.1037 21.364 42.5272 21.126 41.926 21.126C41.3249 21.126 40.7484 21.364 40.3234 21.7876C39.8983 22.2113 39.6595 22.7859 39.6595 23.385V35.9006C39.8288 39.0814 41.7176 42.4959 45.4431 42.4959C47.6703 42.487 49.8149 41.6542 51.4611 40.159C56.7177 50.3839 60.3517 61.3593 62.2337 72.6942C56.1505 73.2784 53.5583 78.7053 53.0242 81.8861C52.9418 82.4687 53.0907 83.0605 53.4393 83.5354C53.7878 84.0103 54.3086 84.3309 54.8907 84.429C55.4728 84.5271 56.0703 84.395 56.5561 84.0607C57.042 83.7264 57.3778 83.2164 57.4922 82.6391C57.5964 81.99 58.7166 76.4073 64.5653 77.2382C70.1665 78.0302 71.3128 81.977 71.3128 87.6246V110.085C71.3155 110.417 71.3902 110.744 71.5319 111.045C71.6735 111.345 71.8788 111.611 72.1335 111.825C73.1234 112.643 75.0773 114.811 74.8559 116.33C74.7931 116.799 74.8797 117.276 75.1034 117.693C75.1034 117.693 75.1685 117.901 75.1946 118.044C74.5728 118.324 73.8971 118.466 73.2146 118.459ZM84.9381 109.371C80.8088 112.967 78.8288 112.487 78.8028 112.474C78.8673 112.49 78.9288 112.517 78.9852 112.552L78.8028 112.941C78.0994 111.523 77.1565 110.237 76.0152 109.137V104.282C78.7575 102.8 81.0822 100.655 82.7756 98.0435C84.469 95.4324 85.4769 92.439 85.7066 89.3383C86.1558 90.8228 86.3496 92.3724 86.2798 93.9213C86.1235 99.8935 85.0814 101.711 84.8729 101.971C84.4527 102.276 84.1499 102.716 84.0148 103.216C83.8798 103.717 83.9206 104.249 84.1304 104.723C84.3122 105.116 84.6048 105.448 84.9725 105.679C85.3402 105.909 85.7673 106.028 86.2016 106.021C86.5164 106.025 86.828 105.959 87.1134 105.827L87.2567 105.762C86.8658 107.201 86.0321 108.481 84.8729 109.423L84.9381 109.371Z" fill="#6F6F6F" stroke="white" stroke-width="2" mask="url(#path-1-inside-1)"/>
<g style="mix-blend-mode:multiply">
<path d="M28.0146 32.4733H29.8904C30.5748 32.4259 31.2157 32.1215 31.6837 31.6215C32.1517 31.1215 32.412 30.4631 32.412 29.7793C32.412 29.0955 32.1517 28.4372 31.6837 27.9372C31.2157 27.4372 30.5748 27.1327 29.8904 27.0854H28.0146C27.6439 27.0597 27.2718 27.1103 26.9215 27.234C26.5713 27.3578 26.2503 27.5521 25.9786 27.8047C25.7068 28.0574 25.4902 28.3631 25.342 28.7028C25.1939 29.0425 25.1174 29.4089 25.1174 29.7793C25.1174 30.1497 25.1939 30.5161 25.342 30.8558C25.4902 31.1955 25.7068 31.5012 25.9786 31.7539C26.2503 32.0065 26.5713 32.2008 26.9215 32.3246C27.2718 32.4483 27.6439 32.4989 28.0146 32.4733Z" fill="#6F6F6F"/>
</g>
<g style="mix-blend-mode:multiply">
<path d="M35.6737 35.2C35.4711 35.0866 35.232 35.0571 35.0079 35.1179C34.7837 35.1786 34.5925 35.3246 34.4753 35.5245C34.2833 35.8509 34.0094 36.1218 33.6805 36.3107C33.3516 36.4996 32.9791 36.6 32.5995 36.6021C32.0261 36.6021 31.4761 36.375 31.0705 35.9709C30.665 35.5667 30.4372 35.0185 30.4372 34.4469C30.4372 34.2162 30.3453 33.995 30.1816 33.8318C30.0179 33.6687 29.7959 33.5771 29.5645 33.5771H29.2779C29.0464 33.5771 28.8245 33.6687 28.6608 33.8318C28.4971 33.995 28.4052 34.2162 28.4052 34.4469C28.4052 35.0185 28.1773 35.5667 27.7718 35.9709C27.3663 36.375 26.8163 36.6021 26.2428 36.6021C25.8633 36.6 25.4908 36.4996 25.1619 36.3107C24.833 36.1218 24.5591 35.8509 24.3671 35.5245C24.2499 35.3246 24.0587 35.1786 23.8345 35.1179C23.6104 35.0571 23.3712 35.0866 23.1687 35.2C22.9672 35.3192 22.8204 35.5121 22.7596 35.7377C22.6987 35.9632 22.7287 36.2035 22.843 36.4074C23.1697 36.9745 23.6344 37.4505 24.1943 37.7915C24.7541 38.1325 25.3911 38.3275 26.0465 38.3586C26.7019 38.3896 27.3546 38.2557 27.9443 37.9691C28.5341 37.6826 29.042 37.2526 29.4212 36.7189C29.8028 37.2385 30.3077 37.6556 30.8906 37.9331C31.4736 38.2105 32.1165 38.3395 32.7618 38.3087C33.407 38.2778 34.0346 38.088 34.5882 37.7562C35.1418 37.4244 35.6043 36.9609 35.9342 36.4074C36.0578 36.2121 36.0997 35.9764 36.051 35.7507C36.0023 35.525 35.8669 35.3273 35.6737 35.2Z" fill="#6F6F6F"/>
</g>
</g>
<path d="M90.2058 43C89.9957 43.0008 89.789 42.9462 89.6067 42.8414C89.4245 42.7367 89.2732 42.5856 89.1681 42.4036L90.5062 36.058H76.1928C75.8764 36.058 75.573 35.9323 75.3493 35.7087C75.1256 35.485 75 35.1815 75 34.8652V1.19279C75 0.876441 75.1256 0.573068 75.3493 0.349377C75.573 0.125686 75.8764 0 76.1928 0H114.195C114.511 0 114.815 0.125686 115.038 0.349377C115.262 0.573068 115.388 0.876441 115.388 1.19279V34.8652C115.388 35.1815 115.262 35.485 115.038 35.7087C114.815 35.9323 114.511 36.058 114.195 36.058H99.8815L91.2197 42.4036C91.1156 42.5839 90.9662 42.7338 90.7862 42.8384C90.6063 42.9431 90.402 42.9987 90.1939 43H90.2058ZM77.3856 33.6724H92C92.2102 33.6715 92.4169 33.7263 92.5991 33.831C92.7813 33.9357 92.9327 34.0868 93.0378 34.2688L91.5 39.5L98.5 34C98.6041 33.8197 98.4294 33.9386 98.6093 33.834C98.7893 33.7294 98.9935 33.6736 99.2016 33.6724H113.002V2.38558H77.3856V33.6724Z" fill="#6F6F6F"/>
<path d="M95.3019 31.3111C95.1453 31.3074 94.991 31.2728 94.8477 31.2094C94.7044 31.1459 94.575 31.0548 94.467 30.9414C93.1191 29.522 91.5566 28.1384 90.0417 26.8024C86.0221 23.2241 82.229 19.8843 82.229 15.9123C82.229 10.4135 85.9505 7.94447 89.6362 7.94447C90.7167 7.86665 91.7993 8.06309 92.7836 8.5156C93.7678 8.96811 94.6218 9.66198 95.2662 10.5328C95.9235 9.66724 96.785 8.97787 97.7736 8.52623C98.7622 8.07459 99.8473 7.87475 100.932 7.94447C101.902 7.92775 102.866 8.10851 103.764 8.47578C104.662 8.84305 105.476 9.38912 106.157 10.0808C106.837 10.7726 107.37 11.5955 107.723 12.4995C108.075 13.4036 108.24 14.3699 108.208 15.3397C108.208 20.4687 103.914 24.1664 99.7511 27.7447C98.5583 28.7944 97.2701 29.8798 96.1727 30.9653C96.0584 31.0787 95.9223 31.1678 95.7727 31.2273C95.623 31.2867 95.4629 31.3152 95.3019 31.3111ZM89.6124 10.33C87.2268 10.33 84.5907 11.7972 84.5907 15.9123C84.5907 18.8108 88.0021 21.8762 91.5924 25.0133C92.8448 26.1226 94.133 27.2557 95.3258 28.4366C96.2562 27.5897 97.2223 26.7547 98.1646 25.9317C102.089 22.5561 105.798 19.3713 105.798 15.3397C105.832 14.6832 105.729 14.027 105.496 13.4121C105.264 12.7973 104.907 12.2371 104.447 11.7667C103.988 11.2963 103.437 10.9259 102.828 10.6787C102.219 10.4315 101.565 10.3128 100.908 10.33C99.9275 10.2309 98.9431 10.4768 98.1244 11.0254C97.3058 11.5741 96.7041 12.3912 96.4232 13.3358V13.479C96.3465 13.7143 96.1986 13.9199 95.9998 14.0674C95.801 14.2149 95.5613 14.2968 95.3139 14.302C95.0702 14.3028 94.832 14.2289 94.6316 14.0903C94.4311 13.9517 94.278 13.755 94.1927 13.5267C93.9613 12.5209 93.3646 11.6368 92.5182 11.0461C91.6719 10.4554 90.6363 10.2003 89.6124 10.33Z" fill="#6F6F6F"/>
</svg>
