<svg width="113" height="101" viewBox="0 0 113 101" fill="none" xmlns="http://www.w3.org/2000/svg">
<path d="M56.683 75.434C56.302 75.4211 55.9404 75.2632 55.672 74.9926C52.3682 71.5179 48.5518 68.143 44.8778 64.8819C35.4079 56.4943 26.4507 48.5624 26.4507 39.6052C26.4507 27.2873 34.7101 21.762 42.9126 21.762C50.7306 21.762 54.4473 25.3648 56.5549 29.3237C58.6055 25.5642 62.3507 21.762 70.2826 21.762C72.4395 21.7321 74.5801 22.1396 76.5751 22.9599C78.5701 23.7803 80.3781 24.9965 81.89 26.535C83.4019 28.0735 84.5863 29.9025 85.3717 31.9115C86.1571 33.9205 86.5273 36.0679 86.4597 38.2239C86.4597 49.958 76.292 58.7158 66.4519 67.1604C63.4899 69.7236 60.414 72.3581 57.7084 75.0211C57.5736 75.1548 57.4135 75.2602 57.2374 75.3311C57.0613 75.402 56.8728 75.437 56.683 75.434ZM42.8841 24.6101C36.305 24.6101 29.2703 28.5547 29.2703 39.6052C29.2703 47.2808 37.8145 54.7997 46.7432 62.7601C50.104 65.7363 53.5786 68.8123 56.7115 71.9879C59.2178 69.6097 61.9378 67.2743 64.5723 65.0101C74.3412 56.594 83.5831 48.6621 83.5831 38.2239C83.6409 36.4446 83.3378 34.6719 82.6921 33.0128C82.0463 31.3538 81.0713 29.8427 79.8258 28.5706C78.5804 27.2985 77.0902 26.2918 75.4452 25.6111C73.8001 24.9304 72.0343 24.5899 70.2542 24.6101C62.3935 24.6101 59.645 28.7825 58.0216 32.8695L57.8935 33.2682C57.7967 33.548 57.6149 33.7907 57.3737 33.9625C57.1326 34.1342 56.8439 34.2265 56.5478 34.2265C56.2517 34.2265 55.9629 34.1342 55.7217 33.9625C55.4805 33.7907 55.2989 33.548 55.202 33.2682C53.5074 28.7968 50.9157 24.6101 42.8841 24.6101Z" fill="#6F6F6F"/>
<path d="M9.38859 87.5237C9.01091 87.5237 8.64863 87.3736 8.38157 87.1065C8.11451 86.8395 7.96455 86.4773 7.96455 86.0996V78.3956C5.69051 77.6573 3.70247 76.2298 2.27612 74.311C0.849773 72.3922 0.0557389 70.0771 0.00412591 67.6868V35.9449C-0.0537587 34.4071 0.499342 32.9088 1.54263 31.7774C2.58593 30.6461 4.03456 29.9736 5.57208 29.907H7.49459C9.03211 29.9736 10.4807 30.6461 11.524 31.7774C12.5673 32.9088 13.1204 34.4071 13.0625 35.9449V48.7613C17.8758 49.0034 21.4074 50.4701 23.572 53.1473C24.4978 54.3986 25.1575 55.8263 25.5102 57.3424C25.8629 58.8585 25.9011 60.4307 25.6226 61.9621C25.5433 62.3398 25.3171 62.6705 24.994 62.8815C24.6709 63.0925 24.2772 63.1664 23.8996 63.0871C23.5219 63.0078 23.1911 62.7817 22.9802 62.4586C22.7692 62.1355 22.6952 61.7417 22.7745 61.3641C22.9772 60.2481 22.9556 59.1029 22.7111 57.9954C22.4667 56.8878 22.0041 55.8401 21.3505 54.9132C19.5419 52.6917 16.2809 51.5667 11.6528 51.5667C11.2751 51.5667 10.9129 51.4166 10.6458 51.1495C10.3788 50.8825 10.2287 50.5203 10.2287 50.1426V35.9734C10.284 35.1913 10.0299 34.4188 9.52122 33.8221C9.01249 33.2255 8.28987 32.8526 7.50884 32.7836H5.58634C4.80388 32.849 4.07898 33.2209 3.56953 33.8184C3.06007 34.4159 2.80738 35.1904 2.86646 35.9734V67.7153C2.86646 72.0728 6.8822 75.7611 9.40275 75.7611C9.78043 75.7611 10.1427 75.9111 10.4098 76.1782C10.6768 76.4453 10.8268 76.8074 10.8268 77.1851V86.1281C10.8193 86.5033 10.6641 86.8604 10.3947 87.1217C10.1254 87.383 9.76384 87.5275 9.38859 87.5237Z" fill="#6F6F6F"/>
<path d="M21.8073 41.7282C21.4296 41.7282 21.0675 41.5781 20.8004 41.3111C20.5333 41.044 20.3833 40.6818 20.3833 40.3041V11.4388C20.2199 10.6341 19.7833 9.91051 19.1474 9.39081C18.5116 8.8711 17.7156 8.5872 16.8944 8.5872C16.0732 8.5872 15.2772 8.8711 14.6414 9.39081C14.0056 9.91051 13.5689 10.6341 13.4055 11.4388V26.434C13.4055 26.8117 13.2555 27.1739 12.9884 27.4409C12.7214 27.708 12.3591 27.858 11.9814 27.858C11.6037 27.858 11.2415 27.708 10.9745 27.4409C10.7074 27.1739 10.5574 26.8117 10.5574 26.434V11.4388C10.7381 9.88495 11.4836 8.45162 12.6519 7.41131C13.8202 6.37099 15.33 5.7962 16.8944 5.7962C18.4587 5.7962 19.9686 6.37099 21.1369 7.41131C22.3053 8.45162 23.0506 9.88495 23.2314 11.4388V40.3041C23.2314 40.6818 23.0813 41.044 22.8142 41.3111C22.5472 41.5781 22.185 41.7282 21.8073 41.7282Z" fill="#6F6F6F"/>
<path d="M31.632 27.858C31.2544 27.858 30.8921 27.708 30.625 27.4409C30.358 27.1739 30.208 26.8117 30.208 26.434V11.4388C30.3742 9.87215 31.1143 8.42238 32.2856 7.36875C33.4569 6.31512 34.9766 5.73218 36.552 5.73218C38.1275 5.73218 39.6473 6.31512 40.8186 7.36875C41.9899 8.42238 42.73 9.87215 42.8962 11.4388V21.8201C42.8962 22.1978 42.7461 22.56 42.4791 22.827C42.212 23.0941 41.8498 23.2441 41.4721 23.2441C41.0944 23.2441 40.7323 23.0941 40.4652 22.827C40.1981 22.56 40.0481 22.1978 40.0481 21.8201V11.4388C39.8776 10.638 39.4374 9.92003 38.8011 9.40488C38.1647 8.88972 37.3708 8.60864 36.552 8.60864C35.7333 8.60864 34.9394 8.88972 34.3031 9.40488C33.6667 9.92003 33.2265 10.638 33.0561 11.4388V26.434C33.0561 26.8117 32.906 27.1739 32.639 27.4409C32.3719 27.708 32.0097 27.858 31.632 27.858Z" fill="#6F6F6F"/>
<path d="M43.4946 87.5266C43.1169 87.5266 42.7547 87.3765 42.4877 87.1094C42.2206 86.8424 42.0706 86.4802 42.0706 86.1025V77.1453C42.0706 76.7676 42.2206 76.4054 42.4877 76.1384C42.7547 75.8713 43.1169 75.7213 43.4946 75.7213C46.7699 75.7213 48.8206 73.8415 49.6038 70.1533C49.6831 69.7756 49.9091 69.4449 50.2323 69.2339C50.5554 69.0229 50.9491 68.9489 51.3268 69.0283C51.7045 69.1076 52.0352 69.3337 52.2462 69.6568C52.4572 69.98 52.5312 70.3737 52.4519 70.7514C51.4835 75.2513 48.8633 77.957 44.9757 78.4696V86.0883C44.9777 86.2814 44.9405 86.4729 44.8662 86.6511C44.792 86.8294 44.6823 86.9907 44.5438 87.1252C44.4052 87.2598 44.2408 87.3647 44.0604 87.4337C43.8801 87.5027 43.6875 87.5343 43.4946 87.5266Z" fill="#6F6F6F"/>
<path d="M51.299 26.05C50.9213 26.05 50.5591 25.9 50.292 25.633C50.0249 25.3659 49.875 25.0037 49.875 24.626V15.3555C49.7116 14.5507 49.2749 13.8272 48.639 13.3075C48.0032 12.7878 47.2073 12.5039 46.3861 12.5039C45.5649 12.5039 44.7689 12.7878 44.133 13.3075C43.4972 13.8272 43.0606 14.5507 42.8972 15.3555V21.0516C42.8972 21.4293 42.7471 21.7915 42.48 22.0586C42.213 22.3257 41.8508 22.4757 41.4731 22.4757C41.0954 22.4757 40.7332 22.3257 40.4662 22.0586C40.1991 21.7915 40.0491 21.4293 40.0491 21.0516V15.3555C40.2298 13.8016 40.9752 12.3683 42.1435 11.328C43.3118 10.2876 44.8217 9.71286 46.3861 9.71286C47.9504 9.71286 49.4603 10.2876 50.6286 11.328C51.797 12.3683 52.5423 13.8016 52.7231 15.3555V24.626C52.7231 25.0037 52.573 25.3659 52.3059 25.633C52.0389 25.9 51.6767 26.05 51.299 26.05Z" fill="#6F6F6F"/>
<path d="M21.8051 42.1123C21.4275 42.1123 21.0653 41.9623 20.7982 41.6952C20.5312 41.4281 20.3811 41.0659 20.3811 40.6882V5.64262C20.5618 4.08873 21.3072 2.65542 22.4755 1.6151C23.6439 0.574789 25.1537 0 26.7181 0C28.2825 0 29.7923 0.574789 30.9607 1.6151C32.129 2.65542 32.8744 4.08873 33.0551 5.64262V26.8181C33.0551 27.1958 32.905 27.558 32.638 27.825C32.3709 28.0921 32.0087 28.2421 31.6311 28.2421C31.2534 28.2421 30.8911 28.0921 30.624 27.825C30.357 27.558 30.207 27.1958 30.207 26.8181V5.64262C30.0303 4.84906 29.5883 4.13945 28.954 3.63087C28.3197 3.12229 27.5311 2.84515 26.7181 2.84515C25.9051 2.84515 25.1164 3.12229 24.4821 3.63087C23.8478 4.13945 23.4059 4.84906 23.2292 5.64262V40.6882C23.2292 41.0659 23.0791 41.4281 22.8121 41.6952C22.545 41.9623 22.1828 42.1123 21.8051 42.1123Z" fill="#6F6F6F"/>
<path d="M47.5111 100.741H5.80099C5.42331 100.741 5.06112 100.591 4.79407 100.324C4.52701 100.057 4.37695 99.6944 4.37695 99.3167V86.1017C4.37695 85.724 4.52701 85.3617 4.79407 85.0947C5.06112 84.8276 5.42331 84.6776 5.80099 84.6776H47.5111C47.8888 84.6776 48.251 84.8276 48.518 85.0947C48.7851 85.3617 48.9351 85.724 48.9351 86.1017V99.3167C48.9351 99.6944 48.7851 100.057 48.518 100.324C48.251 100.591 47.8888 100.741 47.5111 100.741ZM7.22503 97.8927H46.087V87.5257H7.22503V97.8927Z" fill="#6F6F6F"/>
<path d="M103.191 87.5252C102.814 87.5252 102.451 87.3751 102.184 87.1081C101.917 86.841 101.767 86.4788 101.767 86.1012V77.1439C101.767 76.7663 101.917 76.4041 102.184 76.137C102.451 75.87 102.814 75.7199 103.191 75.7199C105.712 75.7199 109.728 72.0316 109.728 67.6741V35.9465C109.787 35.1658 109.536 34.3932 109.03 33.7961C108.523 33.199 107.802 32.8255 107.022 32.7566H105.028C104.247 32.8256 103.525 33.1985 103.016 33.7952C102.507 34.3918 102.253 35.1644 102.308 35.9465V50.0872C102.308 50.4649 102.158 50.8271 101.891 51.0941C101.624 51.3612 101.262 51.5112 100.884 51.5112C96.2563 51.5112 92.9953 52.6362 91.1867 54.8577C90.5208 55.7794 90.0454 56.8247 89.7887 57.9324C89.5319 59.0402 89.4989 60.188 89.6914 61.3086C89.7674 61.6767 89.6948 62.0599 89.4894 62.3747C89.284 62.6895 88.9625 62.9103 88.595 62.989C88.2289 63.0654 87.8474 62.9947 87.533 62.7922C87.2186 62.5897 86.9965 62.2716 86.9146 61.9067C86.6281 60.3764 86.661 58.8034 87.0114 57.2865C87.3619 55.7695 88.0222 54.3414 88.951 53.0919C91.1155 50.4147 94.6471 48.948 99.4604 48.7059V35.8895C99.4025 34.3516 99.9556 32.8534 100.999 31.722C102.042 30.5907 103.491 29.9182 105.028 29.8516H106.965C108.501 29.9182 109.949 30.5911 110.99 31.7229C112.031 32.8547 112.581 34.353 112.519 35.8895V67.6314C112.467 70.0217 111.673 72.3367 110.247 74.2555C108.82 76.1743 106.832 77.6018 104.558 78.3401V86.0442C104.566 86.2312 104.537 86.4179 104.472 86.5936C104.408 86.7693 104.309 86.9306 104.182 87.0681C104.055 87.2057 103.902 87.3169 103.732 87.3953C103.562 87.4737 103.378 87.5179 103.191 87.5252Z" fill="#6F6F6F"/>
<path d="M90.7885 41.7282C90.4109 41.7282 90.0487 41.5781 89.7816 41.3111C89.5146 41.044 89.3645 40.6818 89.3645 40.3041V11.4388C89.5452 9.88495 90.2906 8.45162 91.4589 7.41131C92.6273 6.37099 94.1371 5.7962 95.7015 5.7962C97.2659 5.7962 98.7756 6.37099 99.944 7.41131C101.112 8.45162 101.858 9.88495 102.038 11.4388V26.434C102.038 26.8117 101.888 27.1739 101.621 27.4409C101.354 27.708 100.992 27.858 100.614 27.858C100.237 27.858 99.8745 27.708 99.6074 27.4409C99.3404 27.1739 99.1904 26.8117 99.1904 26.434V11.4388C99.027 10.6341 98.5903 9.91051 97.9545 9.39081C97.3186 8.8711 96.5227 8.5872 95.7015 8.5872C94.8803 8.5872 94.0843 8.8711 93.4484 9.39081C92.8126 9.91051 92.376 10.6341 92.2126 11.4388V40.3041C92.2126 40.6818 92.0625 41.044 91.7955 41.3111C91.5284 41.5781 91.1662 41.7282 90.7885 41.7282Z" fill="#6F6F6F"/>
<path d="M80.9468 27.858C80.5691 27.858 80.2069 27.708 79.9398 27.4409C79.6727 27.1739 79.5228 26.8117 79.5228 26.434V11.4388C79.3523 10.638 78.9121 9.92003 78.2757 9.40488C77.6394 8.88972 76.8455 8.60864 76.0267 8.60864C75.208 8.60864 74.414 8.88972 73.7777 9.40488C73.1413 9.92003 72.7012 10.638 72.5307 11.4388V21.8201C72.5307 22.1978 72.3806 22.56 72.1136 22.827C71.8465 23.0941 71.4843 23.2441 71.1067 23.2441C70.729 23.2441 70.3668 23.0941 70.0997 22.827C69.8327 22.56 69.6826 22.1978 69.6826 21.8201V11.4388C69.8488 9.87215 70.5889 8.42238 71.7602 7.36875C72.9315 6.31512 74.4513 5.73218 76.0267 5.73218C77.6022 5.73218 79.122 6.31512 80.2933 7.36875C81.4646 8.42238 82.2047 9.87215 82.3709 11.4388V26.434C82.3709 26.8117 82.2208 27.1739 81.9537 27.4409C81.6867 27.708 81.3245 27.858 80.9468 27.858Z" fill="#6F6F6F"/>
<path d="M69.0863 87.5262C68.7087 87.5262 68.3465 87.3761 68.0794 87.1091C67.8124 86.842 67.6623 86.4798 67.6623 86.1021V78.4835C63.7747 77.9708 61.1544 75.2652 60.1861 70.7652C60.1068 70.3875 60.1808 69.9938 60.3917 69.6706C60.6027 69.3475 60.9334 69.1214 61.3111 69.0421C61.6887 68.9628 62.0825 69.0368 62.4056 69.2478C62.7287 69.4587 62.9549 69.7894 63.0342 70.1671C63.8174 73.8554 65.8822 75.7351 69.1433 75.7351C69.521 75.7351 69.8831 75.8851 70.1502 76.1522C70.4173 76.4192 70.5673 76.7815 70.5673 77.1592V86.1021C70.5675 86.294 70.5288 86.484 70.4537 86.6606C70.3786 86.8372 70.2686 86.9967 70.1303 87.1297C69.992 87.2627 69.8282 87.3664 69.6488 87.4346C69.4694 87.5027 69.2781 87.5338 69.0863 87.5262Z" fill="#6F6F6F"/>
<path d="M61.2812 27.3024C60.9035 27.3024 60.5413 27.1523 60.2742 26.8853C60.0071 26.6182 59.8572 26.256 59.8572 25.8783V15.3832C60.0379 13.8293 60.7833 12.396 61.9516 11.3556C63.1199 10.3153 64.6297 9.74054 66.1941 9.74054C67.7585 9.74054 69.2683 10.3153 70.4367 11.3556C71.605 12.396 72.3503 13.8293 72.5311 15.3832V21.0793C72.5311 21.457 72.381 21.8192 72.114 22.0863C71.8469 22.3533 71.4847 22.5034 71.107 22.5034C70.7294 22.5034 70.3672 22.3533 70.1001 22.0863C69.8331 21.8192 69.683 21.457 69.683 21.0793V15.3832C69.5196 14.5784 69.083 13.8548 68.4471 13.3351C67.8113 12.8154 67.0153 12.5315 66.1941 12.5315C65.3729 12.5315 64.577 12.8154 63.9411 13.3351C63.3053 13.8548 62.8687 14.5784 62.7053 15.3832V25.8783C62.7053 26.256 62.5552 26.6182 62.2881 26.8853C62.0211 27.1523 61.6589 27.3024 61.2812 27.3024Z" fill="#6F6F6F"/>
<path d="M90.7873 42.1123C90.4096 42.1123 90.0474 41.9623 89.7804 41.6952C89.5133 41.4281 89.3633 41.0659 89.3633 40.6882V5.64262C89.1866 4.84906 88.7446 4.13945 88.1104 3.63087C87.4761 3.12229 86.6873 2.84515 85.8743 2.84515C85.0614 2.84515 84.2727 3.12229 83.6384 3.63087C83.0041 4.13945 82.5621 4.84906 82.3854 5.64262V26.8181C82.3854 27.1958 82.2355 27.558 81.9684 27.825C81.7013 28.0921 81.3391 28.2421 80.9614 28.2421C80.5837 28.2421 80.2215 28.0921 79.9545 27.825C79.6874 27.558 79.5374 27.1958 79.5374 26.8181V5.64262C79.7181 4.08873 80.4635 2.65542 81.6319 1.6151C82.8002 0.574789 84.31 0 85.8743 0C87.4387 0 88.9486 0.574789 90.1169 1.6151C91.2852 2.65542 92.0306 4.08873 92.2113 5.64262V40.6882C92.2113 41.0659 92.0613 41.4281 91.7942 41.6952C91.5272 41.9623 91.165 42.1123 90.7873 42.1123Z" fill="#6F6F6F"/>
<path d="M106.794 100.741H65.1548C64.7771 100.741 64.4149 100.591 64.1478 100.324C63.8808 100.057 63.7307 99.6944 63.7307 99.3167V86.1017C63.7307 85.724 63.8808 85.3617 64.1478 85.0947C64.4149 84.8276 64.7771 84.6776 65.1548 84.6776H106.865C107.243 84.6776 107.605 84.8276 107.872 85.0947C108.139 85.3617 108.289 85.724 108.289 86.1017V99.3167C108.289 99.5099 108.25 99.7011 108.174 99.8787C108.098 100.056 107.987 100.216 107.847 100.35C107.707 100.483 107.542 100.586 107.361 100.654C107.179 100.721 106.987 100.75 106.794 100.741ZM66.5076 97.8927H105.37V87.5257H66.5788L66.5076 97.8927Z" fill="#6F6F6F"/>
</svg>
