<svg width="120" height="107" viewBox="0 0 120 107" fill="none" xmlns="http://www.w3.org/2000/svg">
<path d="M26.2959 95.5648C25.9691 95.5641 25.6532 95.447 25.4049 95.2346C25.1565 95.0221 24.992 94.7281 24.9406 94.4053C24.8893 94.0826 24.9546 93.7521 25.1248 93.4731C25.295 93.1941 25.559 92.9848 25.8695 92.8828C25.9933 92.8828 28.9504 91.8787 31.9212 91.2598C33.2279 90.9847 40.0224 90.9985 51.8921 91.0398C63.2392 91.0398 80.3904 91.1498 82.1509 90.5721C84.2003 89.5268 103.8 70.7939 115.656 59.2267C116.259 58.5832 116.621 57.75 116.679 56.8696C116.736 55.9891 116.487 55.1159 115.972 54.3991C115.009 53.4225 113.648 52.4597 110.47 54.0139L80.7755 74.9063C80.6294 75.026 80.4601 75.1143 80.2783 75.1658C80.0965 75.2172 79.906 75.2306 79.7188 75.2051C79.5316 75.1797 79.3517 75.116 79.1902 75.0179C79.0287 74.9199 78.8891 74.7895 78.7802 74.6351C78.6713 74.4807 78.5953 74.3056 78.557 74.1206C78.5188 73.9356 78.5192 73.7447 78.558 73.5597C78.5968 73.3748 78.6733 73.1999 78.7827 73.0458C78.8921 72.8918 79.032 72.7619 79.1938 72.6644L109.054 51.7033L109.219 51.607C113.936 49.2275 116.495 50.9881 118.021 52.5148C119.02 53.7495 119.535 55.3049 119.472 56.8913C119.408 58.4778 118.771 59.9872 117.678 61.1386C112.382 66.3101 86.0434 91.8926 83.2925 93.1167C81.7108 93.8044 72.7569 93.8731 51.9471 93.7906C43.3783 93.7906 33.6543 93.7906 32.5402 93.9419C29.7894 94.5333 26.8048 95.4823 26.7773 95.4961C26.6235 95.5529 26.4594 95.5763 26.2959 95.5648Z" fill="#6F6F6F"/>
<path d="M42.9508 79.4979C42.586 79.4979 42.2362 79.3529 41.9782 79.095C41.7203 78.837 41.5754 78.4872 41.5754 78.1225C41.5754 77.7577 41.7203 77.4079 41.9782 77.1499C42.2362 76.892 42.586 76.747 42.9508 76.747L75.0527 76.0044C76.0957 75.8834 77.0533 75.3692 77.7305 74.5668C78.4077 73.7644 78.7535 72.7341 78.6975 71.6856V71.5893C78.6975 68.1095 75.7266 67.2018 73.1959 67.0367L44.3124 64.0521C40.5932 63.8495 36.8811 64.5626 33.5018 66.1289L16.7768 74.5051C16.4503 74.6673 16.0728 74.6931 15.7272 74.5771C15.3817 74.461 15.0963 74.2125 14.9339 73.8862C14.7717 73.5597 14.7458 73.1822 14.8618 72.8366C14.9779 72.491 15.2264 72.2057 15.5528 72.0432L32.2501 63.7908C36.1048 61.9518 40.3669 61.1325 44.6287 61.4113L73.5122 64.396C78.4361 64.7123 81.4345 67.3806 81.4758 71.5755C81.4825 71.6119 81.4825 71.6492 81.4758 71.6856C81.5788 73.4549 80.9865 75.1944 79.8251 76.5331C78.6636 77.8718 77.0251 78.7037 75.259 78.8514L43.0333 79.5941L42.9508 79.4979Z" fill="#6F6F6F"/>
<path d="M15.8271 106.249C15.5678 106.248 15.314 106.174 15.095 106.035C14.876 105.896 14.7006 105.699 14.5892 105.465L0.326249 75.8798C0.170353 75.5513 0.150798 75.1746 0.271934 74.8318C0.393071 74.489 0.645003 74.2081 0.972647 74.0505L13.6401 67.9299C13.9686 67.774 14.3453 67.7546 14.6881 67.8757C15.0309 67.9968 15.3119 68.2488 15.4694 68.5764L29.7323 98.1062C29.8923 98.432 29.917 98.8077 29.8011 99.1516C29.6804 99.4955 29.4281 99.7775 29.0996 99.9356L16.4321 106.139C16.2413 106.221 16.0345 106.258 15.8271 106.249ZM3.44844 75.9898L16.5148 103.03L26.7064 98.12L13.6401 71.0659L3.44844 75.9898Z" fill="#6F6F6F"/>
<path d="M65.0133 53.9983C59.6734 53.9983 54.4534 52.4148 50.0134 49.4481C45.5734 46.4814 42.1129 42.2647 40.0694 37.3312C38.0259 32.3978 37.4912 26.9692 38.533 21.7318C39.5747 16.4945 42.1461 11.6837 45.922 7.90782C49.6979 4.13192 54.5088 1.56058 59.7461 0.518813C64.9834 -0.522955 70.412 0.0116417 75.3454 2.05514C80.2789 4.09864 84.4956 7.5592 87.4623 11.9992C90.429 16.4392 92.0124 21.6592 92.0124 26.9992C92.0088 34.1587 89.1631 41.0238 84.1006 46.0864C79.0381 51.1489 72.1728 53.9947 65.0133 53.9983ZM65.0133 2.75082C60.2135 2.7481 55.5208 4.16905 51.5288 6.83396C47.5368 9.49886 44.425 13.2879 42.587 17.7218C40.7489 22.1557 40.2673 27.0351 41.203 31.7428C42.1387 36.4505 44.4497 40.7748 47.8437 44.1688C51.2376 47.5627 55.562 49.8737 60.2697 50.8095C64.9773 51.7452 69.8567 51.2635 74.2906 49.4255C78.7245 47.5874 82.5136 44.4756 85.1785 40.4836C87.8434 36.4916 89.2644 31.7989 89.2616 26.9992C89.2544 20.5703 86.6973 14.4069 82.1514 9.86103C77.6055 5.31517 71.4421 2.7581 65.0133 2.75082Z" fill="#6F6F6F"/>
<path d="M66.5798 35.6658C67.1476 35.3285 67.6071 34.836 67.9044 34.2464C68.2017 33.6567 68.3243 32.9944 68.2579 32.3374C68.047 31.3011 67.4463 30.3853 66.5798 29.7791C65.632 29.0117 64.6143 28.3349 63.5402 27.7573C59.7853 25.4191 58.0386 23.6311 58.0386 20.8803C58.1062 19.3593 58.6868 17.906 59.6858 16.7572C60.6848 15.6083 62.0433 14.8315 63.5402 14.5534V12.3528C63.5383 12.3017 63.5469 12.2508 63.5656 12.2032C63.5843 12.1556 63.6126 12.1123 63.6487 12.0762C63.6849 12.04 63.7281 12.0117 63.7757 11.9931C63.8233 11.9744 63.8742 11.9658 63.9253 11.9677H66.181C66.2327 11.9659 66.2843 11.9744 66.3326 11.993C66.3809 12.0115 66.425 12.0395 66.4622 12.0755C66.4995 12.1114 66.5291 12.1545 66.5493 12.2022C66.5695 12.2498 66.5799 12.301 66.5798 12.3528V14.3196C67.8307 14.3704 69.0676 14.602 70.2521 15.0073C70.7473 15.1586 70.7748 15.3236 70.6785 15.6125L70.2521 17.6893C70.1559 18.1707 70.0596 18.2945 69.5782 18.1707C68.6052 17.8468 67.5998 17.6301 66.5798 17.5243C65.5412 17.3529 64.475 17.5217 63.5402 18.0057C62.9763 18.2578 62.5051 18.6795 62.1921 19.212C61.879 19.7444 61.7397 20.3612 61.7935 20.9766C61.8762 21.5224 62.0749 22.0442 62.3762 22.5069C62.6775 22.9695 63.0744 23.3623 63.5402 23.6586L66.5798 25.6254C70.7748 28.3762 71.9026 29.9992 71.9026 32.5024C71.9313 33.396 71.7778 34.286 71.4515 35.1183C71.1252 35.9507 70.6329 36.7078 70.0046 37.3438C69.0593 38.3025 67.878 38.9951 66.5798 39.3519V41.6488C66.5798 41.9101 66.4423 42.034 66.181 42.034H63.9253C63.8726 42.0438 63.8182 42.0407 63.767 42.0248C63.7158 42.0089 63.6692 41.9808 63.6313 41.9429C63.5933 41.9049 63.5653 41.8584 63.5494 41.8071C63.5335 41.7559 63.5303 41.7015 63.5402 41.6488V39.7095C61.9095 39.6342 60.3 39.3095 58.7676 38.7467C58.1486 38.4579 58.0799 38.4579 58.1762 37.9627L58.41 35.542C58.41 35.2532 58.5338 35.1569 59.0289 35.377C60.4516 35.9283 61.9598 36.2263 63.4852 36.2573C64.5515 36.3492 65.6226 36.1445 66.5798 35.6658Z" fill="#6F6F6F"/>
</svg>
