<svg width="25" height="24" viewBox="0 0 25 24" fill="none" xmlns="http://www.w3.org/2000/svg">
<path fill-rule="evenodd" clip-rule="evenodd" d="M12.2075 6.86423C9.36992 6.86423 7.06779 9.16546 7.06779 12.002C7.06779 14.8384 9.36992 17.1397 12.2075 17.1397C15.0451 17.1397 17.3473 14.8384 17.3473 12.002C17.3473 9.16546 15.0451 6.86423 12.2075 6.86423ZM12.2075 15.3346C10.3666 15.3346 8.87354 13.8422 8.87354 12.002C8.87354 10.1617 10.3666 8.66927 12.2075 8.66927C14.0484 8.66927 15.5415 10.1617 15.5415 12.002C15.5415 13.8422 14.0484 15.3346 12.2075 15.3346Z" fill="#FDCB02"/>
<path d="M17.5505 7.86058C18.211 7.86058 18.7504 7.32532 18.7504 6.66112C18.7504 6.00084 18.211 5.46167 17.5505 5.46167C16.89 5.46167 16.3506 5.99693 16.3506 6.66112C16.3506 7.32141 16.886 7.86058 17.5505 7.86058Z" fill="#FDCB02"/>
<path fill-rule="evenodd" clip-rule="evenodd" d="M12.2075 2C9.49109 2 9.15104 2.01172 8.08401 2.05861C7.02089 2.10549 6.28999 2.2774 5.65681 2.52354C4.99627 2.7814 4.43735 3.12131 3.88233 3.68002C3.32341 4.23481 2.98337 4.79351 2.7254 5.44989C2.47917 6.08674 2.30719 6.81344 2.26029 7.87615C2.21339 8.94667 2.20166 9.28658 2.20166 12.002C2.20166 14.7173 2.21339 15.0572 2.26029 16.1239C2.30719 17.1866 2.47917 17.9172 2.7254 18.5501C2.98337 19.2104 3.32341 19.7691 3.88233 20.3239C4.43735 20.8787 4.99627 21.2225 5.6529 21.4765C6.28999 21.7226 7.01698 21.8945 8.0801 21.9414C9.14714 21.9883 9.48718 22 12.2036 22C14.9201 22 15.2601 21.9883 16.3271 21.9414C17.3902 21.8945 18.1211 21.7226 18.7543 21.4765C19.411 21.2225 19.9699 20.8787 20.5249 20.3239C21.0799 19.7691 21.4239 19.2104 21.6779 18.554C21.9242 17.9172 22.0961 17.1905 22.143 16.1278C22.1899 15.0611 22.2017 14.7212 22.2017 12.0059C22.2017 9.29049 22.1899 8.95058 22.143 7.88396C22.0961 6.82125 21.9242 6.09064 21.6779 5.45771C21.4317 4.79351 21.0916 4.23481 20.5327 3.68002C19.9777 3.12522 19.4188 2.7814 18.7621 2.52745C18.1251 2.2813 17.3981 2.1094 16.3349 2.06251C15.264 2.01172 14.924 2 12.2075 2ZM12.2075 3.80113C14.881 3.80113 15.1976 3.81285 16.249 3.85974C17.2261 3.90272 17.7537 4.06681 18.1055 4.20356C18.5706 4.38328 18.9068 4.60207 19.2546 4.9498C19.6064 5.30143 19.8214 5.63352 20.0012 6.09846C20.138 6.45009 20.3021 6.98144 20.3451 7.95429C20.392 9.00918 20.4037 9.32565 20.4037 11.9941C20.4037 14.6665 20.392 14.983 20.3451 16.034C20.3021 17.0107 20.138 17.5382 20.0012 17.8898C19.8214 18.3548 19.6025 18.6908 19.2546 19.0385C18.9029 19.3901 18.5706 19.605 18.1055 19.7847C17.7537 19.9215 17.2222 20.0856 16.249 20.1285C15.1936 20.1754 14.8771 20.1871 12.2075 20.1871C9.53408 20.1871 9.21749 20.1754 8.16609 20.1285C7.18896 20.0856 6.6613 19.9215 6.30954 19.7847C5.84442 19.605 5.50829 19.3862 5.16043 19.0385C4.80866 18.6869 4.59369 18.3548 4.41389 17.8898C4.27709 17.5382 4.11294 17.0068 4.06994 16.034C4.02304 14.9791 4.01131 14.6626 4.01131 11.9941C4.01131 9.32174 4.02304 9.00527 4.06994 7.95429C4.11294 6.97753 4.27709 6.45009 4.41389 6.09846C4.59369 5.63352 4.81256 5.29752 5.16043 4.9498C5.51219 4.59816 5.84442 4.38328 6.30954 4.20356C6.6613 4.06681 7.19287 3.90272 8.16609 3.85974C9.21749 3.81285 9.53408 3.80113 12.2075 3.80113Z" fill="#FDCB02"/>
</svg>
