<svg width="210" height="50" viewBox="0 0 210 50" fill="none" xmlns="http://www.w3.org/2000/svg">
<path d="M34.2429 1.33887H8.74899C6.36955 1.33887 4.5 3.19793 4.5 5.56402C4.5 7.9301 6.36955 9.78917 8.74899 9.78917H17.247V44.4354C17.247 46.8015 19.1165 48.6606 21.4959 48.6606C23.8754 48.6606 25.7449 46.8015 25.7449 44.4354V9.78917H34.2429C36.6223 9.78917 38.4919 7.9301 38.4919 5.56402C38.4919 3.19793 36.6223 1.33887 34.2429 1.33887Z" fill="white"/>
<path d="M205.5 37.6747C205.5 44.6039 198.021 48.5756 190.883 48.5756C186.294 48.5756 179.156 46.3785 176.182 41.6463C172.613 35.7311 180.091 31.844 183.32 36.5761C184.85 38.7732 188.079 40.2943 190.968 40.2943C193.348 40.2943 196.832 39.7027 196.832 37.7592C196.832 35.9846 191.733 35.3931 188.844 34.7171C179.241 32.52 177.796 28.9709 177.796 24.9992C177.796 19.5065 183.065 14.9434 190.203 14.9434C195.727 14.9434 199.806 17.1404 202.78 21.3656C206.265 26.5203 199.636 31.506 195.557 26.1823C194.197 24.4077 192.498 23.4782 190.203 23.4782C188.504 23.4782 186.719 23.6472 186.719 24.9147C186.719 26.1823 189.524 26.4358 192.073 26.9428C201.591 28.8019 205.5 32.182 205.5 37.6747Z" fill="white"/>
<path d="M99.1539 41.1398L87.5117 30.9994L98.474 22.8871C100.344 21.4506 100.768 18.831 99.3238 16.9719C97.8792 15.1129 95.2448 14.6903 93.3753 16.1269L83.0077 23.8167V5.56402C83.0077 3.19793 81.1382 1.33887 78.7588 1.33887C76.3793 1.33887 74.5098 3.19793 74.5098 5.56402V44.4354C74.5098 46.8015 76.3793 48.6606 78.7588 48.6606C81.1382 48.6606 83.0077 46.8015 83.0077 44.4354V38.2667L93.5452 47.4775C95.3298 48.9986 97.9642 48.8296 99.5788 47.055C101.108 45.2804 100.938 42.6608 99.1539 41.1398Z" fill="white"/>
<path d="M156.252 48.6611C147.585 48.6611 140.531 42.4078 140.531 34.6336V19.085C140.531 16.7189 142.401 14.8599 144.78 14.8599C147.16 14.8599 149.029 16.7189 149.029 19.085V34.6336C149.029 37.6757 152.343 40.2108 156.252 40.2108C160.162 40.2108 163.476 37.6757 163.476 34.6336V19.085C163.476 16.7189 165.345 14.8599 167.725 14.8599C170.104 14.8599 171.974 16.7189 171.974 19.085V34.6336C171.974 42.4078 164.92 48.6611 156.252 48.6611Z" fill="white"/>
<path d="M128.682 36.8302C126.218 39.1118 122.989 39.5343 120.099 39.5343C116.36 39.5343 113.471 36.9992 112.706 34.3796H132.421C135.396 34.3796 136.84 33.0276 136.84 30.577C136.84 24.7463 130.977 15.0284 120.014 15.0284C110.582 15.0284 103.273 22.4647 103.273 31.76C103.273 41.0554 110.667 48.4071 120.014 48.4071C126.133 48.4071 131.317 46.3791 134.801 42.4074C138.2 38.4358 133.441 32.2671 128.682 36.8302ZM113.131 26.9434C113.981 24.1548 116.955 22.4647 119.929 22.4647H121.629C124.688 22.4647 127.578 24.1548 128.427 27.1124C128.512 27.4504 128.088 27.7884 127.748 27.7884H113.726C113.386 27.7884 113.131 27.5349 113.131 27.1969V26.9434Z" fill="white"/>
<path d="M56.0152 24.9848C52.6775 22.0668 47.696 22.0735 44.3595 24.9926C40.344 28.5043 35.6496 33.7077 35.1655 39.1472C35.0253 40.7187 36.2161 42.1242 37.7887 42.2423C37.8032 42.2434 37.8176 42.2445 37.8321 42.2456C40.5343 42.4205 44.0133 38.8253 44.2448 38.5825L44.2582 38.5692L39.5416 36.4931C39.4915 36.4664 39.4837 36.4129 39.5238 36.374L40.6055 35.3048C40.6456 35.2658 40.7224 35.2435 40.7769 35.258L46.7111 35.9786L48.9014 33.6653C49.5725 33.0016 50.5296 32.8824 51.0382 33.398C51.5468 33.9137 51.4144 34.8693 50.7433 35.532L48.4016 37.6826L48.9136 43.777C48.927 43.8316 48.9047 43.9084 48.8646 43.9485L47.7829 45.0177C47.7428 45.0567 47.6894 45.0478 47.6638 44.9977L45.7762 40.095L45.7651 40.1061C45.577 40.2977 42.9015 43.0798 43.2799 46.0724C43.2866 46.1237 43.2944 46.1749 43.3033 46.225C43.5715 47.7676 45.1919 48.6808 46.6733 48.1785C48.1613 47.6729 49.4311 46.7786 50.1912 45.5456C53.1427 50.3314 63.7568 50.0262 65.1335 41.6175C66.1663 35.3103 60.6384 29.0255 56.0152 24.9848Z" fill="white"/>
<path d="M36.4935 26.3633C39.4131 26.3633 41.7799 23.6706 41.7799 20.3491C41.7799 17.0275 39.4131 14.3348 36.4935 14.3348C33.5738 14.3348 31.207 17.0275 31.207 20.3491C31.207 23.6706 33.5738 26.3633 36.4935 26.3633Z" fill="white"/>
<path d="M50.181 19.4588C53.1006 19.4588 55.4674 16.7662 55.4674 13.4446C55.4674 10.1231 53.1006 7.43042 50.181 7.43042C47.2613 7.43042 44.8945 10.1231 44.8945 13.4446C44.8945 16.7662 47.2613 19.4588 50.181 19.4588Z" fill="white"/>
<path d="M63.8704 26.3633C66.7901 26.3633 69.1569 23.6706 69.1569 20.3491C69.1569 17.0275 66.7901 14.3348 63.8704 14.3348C60.9508 14.3348 58.584 17.0275 58.584 20.3491C58.584 23.6706 60.9508 26.3633 63.8704 26.3633Z" fill="white"/>
</svg>
