<svg width="24" height="24" viewBox="0 0 24 24" fill="none" xmlns="http://www.w3.org/2000/svg">
<path fill-rule="evenodd" clip-rule="evenodd" d="M12.6052 22.1436C14.4655 20.4907 19.967 15.1362 19.967 9.61881C19.967 5.21813 16.3996 1.65068 11.9989 1.65068C7.59821 1.65068 4.03076 5.21813 4.03076 9.61881C4.03076 15.1362 9.53225 20.4907 11.3926 22.1436C11.7435 22.4554 12.2543 22.4554 12.6052 22.1436ZM11.9973 12.3918C13.5286 12.3918 14.7699 11.1504 14.7699 9.61913C14.7699 8.08786 13.5286 6.84652 11.9973 6.84652C10.466 6.84652 9.22467 8.08786 9.22467 9.61913C9.22467 11.1504 10.466 12.3918 11.9973 12.3918Z" fill="#FDCB02"/>
</svg>
