<svg width="25" height="24" viewBox="0 0 25 24" fill="none" xmlns="http://www.w3.org/2000/svg">
<path d="M8.43855 20C16.3631 20 20.6975 13.8438 20.6975 8.50515C20.6975 8.3303 20.6975 8.15623 20.6849 7.98295C21.5281 7.41105 22.256 6.70293 22.8345 5.89176C22.0482 6.21863 21.214 6.4329 20.3598 6.52738C21.2593 6.02255 21.9325 5.22842 22.254 4.29285C21.4083 4.76347 20.483 5.09511 19.5182 5.27346C18.8685 4.62577 18.0094 4.19689 17.0736 4.05318C16.1379 3.90947 15.1777 4.05894 14.3417 4.47848C13.5057 4.89801 12.8404 5.56421 12.4489 6.37398C12.0573 7.18376 11.9613 8.09196 12.1757 8.95805C10.4628 8.87748 8.78701 8.46005 7.25725 7.73288C5.72748 7.0057 4.37789 5.98501 3.29607 4.73708C2.74511 5.62645 2.57636 6.67929 2.82418 7.68123C3.07201 8.68318 3.71777 9.55888 4.62999 10.1301C3.9443 10.1112 3.27354 9.93777 2.67447 9.62439V9.67559C2.67474 10.6083 3.01909 11.5123 3.64911 12.2341C4.27913 12.9559 5.15603 13.4512 6.13107 13.6359C5.49677 13.7981 4.83124 13.8218 4.18563 13.7052C4.46106 14.5078 4.9971 15.2098 5.71881 15.7128C6.44052 16.2158 7.31182 16.4948 8.21091 16.5107C7.31761 17.1691 6.29462 17.6559 5.20049 17.9433C4.10635 18.2306 2.96254 18.3128 1.83447 18.1853C3.80483 19.3709 6.09741 19.9997 8.43855 19.9969" fill="#FDCB02"/>
</svg>
