<svg width="22" height="16" viewBox="0 0 22 16" fill="none" xmlns="http://www.w3.org/2000/svg">
<path d="M7.10408 16C15.0286 16 19.363 9.84379 19.363 4.50515C19.363 4.3303 19.363 4.15623 19.3504 3.98295C20.1937 3.41105 20.9215 2.70293 21.5 1.89176C20.7137 2.21863 19.8795 2.4329 19.0254 2.52738C19.9248 2.02255 20.598 1.22842 20.9196 0.292845C20.0738 0.763468 19.1486 1.09511 18.1837 1.27346C17.5341 0.62577 16.6749 0.196886 15.7392 0.0531763C14.8034 -0.090533 13.8432 0.0589443 13.0072 0.478477C12.1712 0.89801 11.5059 1.56421 11.1144 2.37398C10.7229 3.18376 10.6268 4.09196 10.8412 4.95805C9.12828 4.87748 7.45254 4.46005 5.92277 3.73288C4.39301 3.0057 3.04342 1.98501 1.9616 0.737075C1.41064 1.62645 1.24189 2.67929 1.48971 3.68123C1.73754 4.68318 2.3833 5.55888 3.29552 6.13006C2.60983 6.11122 1.93907 5.93777 1.34 5.62439V5.67559C1.34027 6.60833 1.68462 7.51227 2.31464 8.23409C2.94465 8.9559 3.82155 9.45116 4.7966 9.63585C4.1623 9.79809 3.49677 9.8218 2.85116 9.70517C3.12659 10.5078 3.66262 11.2098 4.38433 11.7128C5.10604 12.2158 5.97735 12.4948 6.87644 12.5107C5.98313 13.1691 4.96015 13.6559 3.86602 13.9433C2.77188 14.2306 1.62806 14.3128 0.5 14.1853C2.47035 15.3709 4.76293 15.9997 7.10408 15.9969" fill="#FDCB02"/>
</svg>
