<svg width="22" height="22" viewBox="0 0 22 22" fill="none" xmlns="http://www.w3.org/2000/svg">
<path d="M13.7816 9.51382C12.1897 8.09609 9.81378 8.09933 8.22241 9.51761C6.30724 11.2238 4.06829 13.7519 3.83738 16.3947C3.7705 17.1583 4.33847 17.8411 5.0885 17.8985C5.0954 17.899 5.10231 17.8996 5.10921 17.9001C6.39801 17.9851 8.05733 16.2383 8.16774 16.1204L8.1741 16.1139L5.92453 15.1052C5.90064 15.0922 5.89693 15.0663 5.91604 15.0473L6.43199 14.5279C6.45109 14.5089 6.48772 14.4981 6.51373 14.5051L9.34401 14.8552L10.3886 13.7313C10.7087 13.4088 11.1652 13.3509 11.4078 13.6015C11.6504 13.852 11.5872 14.3163 11.2671 14.6382L10.1503 15.6832L10.3945 18.6442C10.4009 18.6707 10.3902 18.708 10.3711 18.7275L9.85518 19.247C9.83607 19.2659 9.81059 19.2616 9.79838 19.2372L8.89813 16.8552L8.89282 16.8606C8.80312 16.9537 7.52705 18.3054 7.70752 19.7594C7.71071 19.7843 7.71442 19.8092 7.71867 19.8336C7.84659 20.583 8.61945 21.0267 9.32596 20.7827C10.0357 20.537 10.6413 20.1025 11.0039 19.5035C12.4116 21.8287 17.4739 21.6804 18.1305 17.5949C18.6231 14.5306 15.9866 11.477 13.7816 9.51382Z" fill="#FDCB02"/>
<path d="M4.47057 10.1832C5.86307 10.1832 6.99192 8.87491 6.99192 7.26111C6.99192 5.6473 5.86307 4.33905 4.47057 4.33905C3.07807 4.33905 1.94922 5.6473 1.94922 7.26111C1.94922 8.87491 3.07807 10.1832 4.47057 10.1832Z" fill="#FDCB02"/>
<path d="M10.9999 6.82825C12.3924 6.82825 13.5212 5.52 13.5212 3.90619C13.5212 2.29238 12.3924 0.984131 10.9999 0.984131C9.60736 0.984131 8.47852 2.29238 8.47852 3.90619C8.47852 5.52 9.60736 6.82825 10.9999 6.82825Z" fill="#FDCB02"/>
<path d="M17.5282 10.1832C18.9207 10.1832 20.0495 8.87491 20.0495 7.26111C20.0495 5.6473 18.9207 4.33905 17.5282 4.33905C16.1357 4.33905 15.0068 5.6473 15.0068 7.26111C15.0068 8.87491 16.1357 10.1832 17.5282 10.1832Z" fill="#FDCB02"/>
</svg>
