<svg width="16" height="22" viewBox="0 0 16 22" fill="none" xmlns="http://www.w3.org/2000/svg">
<path fill-rule="evenodd" clip-rule="evenodd" d="M8.6052 21.1436C10.4655 19.4907 15.967 14.1362 15.967 8.61881C15.967 4.21813 12.3996 0.650681 7.99889 0.650681C3.59821 0.650681 0.0307617 4.21813 0.0307617 8.61881C0.0307617 14.1362 5.53225 19.4907 7.39258 21.1436C7.74348 21.4554 8.25429 21.4554 8.6052 21.1436ZM7.99729 11.3918C9.52857 11.3918 10.7699 10.1504 10.7699 8.61913C10.7699 7.08786 9.52857 5.84652 7.99729 5.84652C6.46602 5.84652 5.22467 7.08786 5.22467 8.61913C5.22467 10.1504 6.46602 11.3918 7.99729 11.3918Z" fill="#FDCB02"/>
</svg>
